{
	"asset":{
		"generator":"Khronos glTF Blender I/O v3.6.28",
		"version":"2.0"
	},
	"extensionsUsed":[
		"KHR_materials_specular",
		"KHR_materials_ior"
	],
	"scene":0,
	"scenes":[
		{
			"name":"Scene",
			"nodes":[
				0,
				1,
				2
			]
		}
	],
	"nodes":[
		{
			"mesh":0,
			"name":"Cube.001_Cube.002",
			"rotation":[
				0.7071068286895752,
				0,
				0,
				0.7071068286895752
			],
			"translation":[
				0,
				0.14977668225765228,
				0
			]
		},
		{
			"mesh":1,
			"name":"Cube.002_Cube.003",
			"rotation":[
				0.7071068286895752,
				0,
				0,
				0.7071068286895752
			],
			"translation":[
				0,
				0.14977668225765228,
				0
			]
		},
		{
			"mesh":2,
			"name":"Cube_Cube.001",
			"rotation":[
				0.7071068286895752,
				0,
				0,
				0.7071068286895752
			],
			"translation":[
				0,
				0.14977668225765228,
				0
			]
		}
	],
	"materials":[
		{
			"doubleSided":true,
			"extensions":{
				"KHR_materials_specular":{
					"specularColorFactor":[
						0,
						0,
						0
					]
				},
				"KHR_materials_ior":{
					"ior":1.4500000476837158
				}
			},
			"name":"Desk",
			"pbrMetallicRoughness":{
				"baseColorFactor":[
					0.0291003305464983,
					0.0291003305464983,
					0.0291003305464983,
					1
				],
				"metallicFactor":0
			}
		}
	],
	"meshes":[
		{
			"name":"Cube.001_Cube.002",
			"primitives":[
				{
					"attributes":{
						"POSITION":0,
						"NORMAL":1,
						"TEXCOORD_0":2
					},
					"indices":3,
					"material":0
				}
			]
		},
		{
			"name":"Cube.002_Cube.003",
			"primitives":[
				{
					"attributes":{
						"POSITION":4,
						"NORMAL":5,
						"TEXCOORD_0":6
					},
					"indices":7,
					"material":0
				}
			]
		},
		{
			"name":"Cube_Cube.001",
			"primitives":[
				{
					"attributes":{
						"POSITION":8,
						"NORMAL":9,
						"TEXCOORD_0":10
					},
					"indices":11,
					"material":0
				}
			]
		}
	],
	"accessors":[
		{
			"bufferView":0,
			"componentType":5126,
			"count":28,
			"max":[
				0.5003979802131653,
				0.25,
				0.17840799689292908
			],
			"min":[
				0.4803979992866516,
				-0.25,
				-0.3215920031070709
			],
			"type":"VEC3"
		},
		{
			"bufferView":1,
			"componentType":5126,
			"count":28,
			"type":"VEC3"
		},
		{
			"bufferView":2,
			"componentType":5126,
			"count":28,
			"type":"VEC2"
		},
		{
			"bufferView":3,
			"componentType":5123,
			"count":48,
			"type":"SCALAR"
		},
		{
			"bufferView":4,
			"componentType":5126,
			"count":28,
			"max":[
				-0.4808169901371002,
				0.25,
				0.1718290001153946
			],
			"min":[
				-0.5008170008659363,
				-0.25,
				-0.3281710147857666
			],
			"type":"VEC3"
		},
		{
			"bufferView":5,
			"componentType":5126,
			"count":28,
			"type":"VEC3"
		},
		{
			"bufferView":6,
			"componentType":5126,
			"count":28,
			"type":"VEC2"
		},
		{
			"bufferView":7,
			"componentType":5123,
			"count":48,
			"type":"SCALAR"
		},
		{
			"bufferView":8,
			"componentType":5126,
			"count":28,
			"max":[
				0.5,
				0.25,
				-0.29897698760032654
			],
			"min":[
				-0.5,
				-0.25,
				-0.32897698879241943
			],
			"type":"VEC3"
		},
		{
			"bufferView":9,
			"componentType":5126,
			"count":28,
			"type":"VEC3"
		},
		{
			"bufferView":10,
			"componentType":5126,
			"count":28,
			"type":"VEC2"
		},
		{
			"bufferView":11,
			"componentType":5123,
			"count":48,
			"type":"SCALAR"
		}
	],
	"bufferViews":[
		{
			"buffer":0,
			"byteLength":336,
			"byteOffset":0,
			"target":34962
		},
		{
			"buffer":0,
			"byteLength":336,
			"byteOffset":336,
			"target":34962
		},
		{
			"buffer":0,
			"byteLength":224,
			"byteOffset":672,
			"target":34962
		},
		{
			"buffer":0,
			"byteLength":96,
			"byteOffset":896,
			"target":34963
		},
		{
			"buffer":0,
			"byteLength":336,
			"byteOffset":992,
			"target":34962
		},
		{
			"buffer":0,
			"byteLength":336,
			"byteOffset":1328,
			"target":34962
		},
		{
			"buffer":0,
			"byteLength":224,
			"byteOffset":1664,
			"target":34962
		},
		{
			"buffer":0,
			"byteLength":96,
			"byteOffset":1888,
			"target":34963
		},
		{
			"buffer":0,
			"byteLength":336,
			"byteOffset":1984,
			"target":34962
		},
		{
			"buffer":0,
			"byteLength":336,
			"byteOffset":2320,
			"target":34962
		},
		{
			"buffer":0,
			"byteLength":224,
			"byteOffset":2656,
			"target":34962
		},
		{
			"buffer":0,
			"byteLength":96,
			"byteOffset":2880,
			"target":34963
		}
	],
	"buffers":[
		{
			"byteLength":2976,
			"uri":"data:application/octet-stream;base64,"
		}
	]
}
