{
	"asset":{
		"generator":"Khronos glTF Blender I/O v3.6.28",
		"version":"2.0"
	},
	"scene":0,
	"scenes":[
		{
			"name":"Scene",
			"nodes":[
				0
			]
		}
	],
	"nodes":[
		{
			"mesh":0,
			"name":"KeyboardBaru",
			"scale":[
				0.9518591165542603,
				0.0349450521171093,
				0.39160391688346863
			],
			"translation":[
				0,
				0.24826844036579132,
				0
			]
		}
	],
	"materials":[
		{
			"doubleSided":true,
			"name":"Key",
			"pbrMetallicRoughness":{
				"baseColorFactor":[
					0,
					0,
					0,
					1
				],
				"metallicFactor":0,
				"roughnessFactor":0.5
			}
		},
		{
			"doubleSided":true,
			"name":"Laser",
			"pbrMetallicRoughness":{
				"baseColorFactor":[
					0.7157228589057922,
					0.8000000715255737,
					0.7520050406455994,
					1
				],
				"metallicFactor":0,
				"roughnessFactor":0.5
			}
		},
		{
			"doubleSided":true,
			"name":"LobangCas",
			"pbrMetallicRoughness":{
				"baseColorFactor":[
					0.8000000715255737,
					0.7662912607192993,
					0.7914934754371643,
					1
				],
				"metallicFactor":0,
				"roughnessFactor":0.5
			}
		},
		{
			"doubleSided":true,
			"emissiveFactor":[
				0.6068586707115173,
				0.6780826449394226,
				1
			],
			"name":"Hjau",
			"pbrMetallicRoughness":{
				"baseColorFactor":[
					0.7165089249610901,
					0.5985909104347229,
					0.8000000715255737,
					1
				],
				"metallicFactor":0,
				"roughnessFactor":0.5
			}
		},
		{
			"doubleSided":true,
			"name":"TextKey",
			"pbrMetallicRoughness":{
				"metallicFactor":0,
				"roughnessFactor":0.5
			}
		}
	],
	"meshes":[
		{
			"name":"Cube.003",
			"primitives":[
				{
					"attributes":{
						"POSITION":0,
						"NORMAL":1,
						"TEXCOORD_0":2
					},
					"indices":3,
					"material":0
				},
				{
					"attributes":{
						"POSITION":4,
						"NORMAL":5,
						"TEXCOORD_0":6
					},
					"indices":7
				},
				{
					"attributes":{
						"POSITION":8,
						"NORMAL":9,
						"TEXCOORD_0":10
					},
					"indices":11,
					"material":1
				},
				{
					"attributes":{
						"POSITION":12,
						"NORMAL":13,
						"TEXCOORD_0":14
					},
					"indices":15,
					"material":2
				},
				{
					"attributes":{
						"POSITION":16,
						"NORMAL":17,
						"TEXCOORD_0":18
					},
					"indices":19,
					"material":3
				},
				{
					"attributes":{
						"POSITION":20,
						"NORMAL":21,
						"TEXCOORD_0":22
					},
					"indices":23,
					"material":4
				}
			]
		}
	],
	"accessors":[
		{
			"bufferView":0,
			"componentType":5126,
			"count":14087,
			"max":[
				0.9852555990219116,
				0.6186236143112183,
				0.9431480765342712
			],
			"min":[
				-0.9852555990219116,
				-1.0568671226501465,
				-0.966184139251709
			],
			"type":"VEC3"
		},
		{
			"bufferView":1,
			"componentType":5126,
			"count":14087,
			"type":"VEC3"
		},
		{
			"bufferView":2,
			"componentType":5126,
			"count":14087,
			"type":"VEC2"
		},
		{
			"bufferView":3,
			"componentType":5123,
			"count":24915,
			"type":"SCALAR"
		},
		{
			"bufferView":4,
			"componentType":5126,
			"count":311,
			"max":[
				1,
				0.5401132106781006,
				0.9781802296638489
			],
			"min":[
				-1,
				-1,
				-1
			],
			"type":"VEC3"
		},
		{
			"bufferView":5,
			"componentType":5126,
			"count":311,
			"type":"VEC3"
		},
		{
			"bufferView":6,
			"componentType":5126,
			"count":311,
			"type":"VEC2"
		},
		{
			"bufferView":7,
			"componentType":5123,
			"count":729,
			"type":"SCALAR"
		},
		{
			"bufferView":8,
			"componentType":5126,
			"count":4,
			"max":[
				0.9368398189544678,
				-0.08833450078964233,
				0.9781802296638489
			],
			"min":[
				0.5090385675430298,
				-0.3715522885322571,
				0.9781802296638489
			],
			"type":"VEC3"
		},
		{
			"bufferView":9,
			"componentType":5126,
			"count":4,
			"type":"VEC3"
		},
		{
			"bufferView":10,
			"componentType":5126,
			"count":4,
			"type":"VEC2"
		},
		{
			"bufferView":11,
			"componentType":5123,
			"count":6,
			"type":"SCALAR"
		},
		{
			"bufferView":12,
			"componentType":5126,
			"count":26,
			"max":[
				0.01931183971464634,
				-0.11921737343072891,
				0.9781802296638489
			],
			"min":[
				-0.01931183971464634,
				-0.3406694233417511,
				0.9136534333229065
			],
			"type":"VEC3"
		},
		{
			"bufferView":13,
			"componentType":5126,
			"count":26,
			"type":"VEC3"
		},
		{
			"bufferView":14,
			"componentType":5126,
			"count":26,
			"type":"VEC2"
		},
		{
			"bufferView":15,
			"componentType":5123,
			"count":48,
			"type":"SCALAR"
		},
		{
			"bufferView":16,
			"componentType":5126,
			"count":20,
			"max":[
				-0.9141652584075928,
				-0.091773122549057,
				0.9781802296638489
			],
			"min":[
				-0.9367650151252747,
				-0.3681136667728424,
				0.9675807952880859
			],
			"type":"VEC3"
		},
		{
			"bufferView":17,
			"componentType":5126,
			"count":20,
			"type":"VEC3"
		},
		{
			"bufferView":18,
			"componentType":5126,
			"count":20,
			"type":"VEC2"
		},
		{
			"bufferView":19,
			"componentType":5123,
			"count":30,
			"type":"SCALAR"
		},
		{
			"bufferView":20,
			"componentType":5126,
			"count":2776,
			"max":[
				0.982663631439209,
				0.6186236143112183,
				0.9420518279075623
			],
			"min":[
				-0.9821838736534119,
				-0.30723389983177185,
				-0.966184139251709
			],
			"type":"VEC3"
		},
		{
			"bufferView":21,
			"componentType":5126,
			"count":2776,
			"type":"VEC3"
		},
		{
			"bufferView":22,
			"componentType":5126,
			"count":2776,
			"type":"VEC2"
		},
		{
			"bufferView":23,
			"componentType":5123,
			"count":7860,
			"type":"SCALAR"
		}
	],
	"bufferViews":[
		{
			"buffer":0,
			"byteLength":169044,
			"byteOffset":0,
			"target":34962
		},
		{
			"buffer":0,
			"byteLength":169044,
			"byteOffset":169044,
			"target":34962
		},
		{
			"buffer":0,
			"byteLength":112696,
			"byteOffset":338088,
			"target":34962
		},
		{
			"buffer":0,
			"byteLength":49830,
			"byteOffset":450784,
			"target":34963
		},
		{
			"buffer":0,
			"byteLength":3732,
			"byteOffset":500616,
			"target":34962
		},
		{
			"buffer":0,
			"byteLength":3732,
			"byteOffset":504348,
			"target":34962
		},
		{
			"buffer":0,
			"byteLength":2488,
			"byteOffset":508080,
			"target":34962
		},
		{
			"buffer":0,
			"byteLength":1458,
			"byteOffset":510568,
			"target":34963
		},
		{
			"buffer":0,
			"byteLength":48,
			"byteOffset":512028,
			"target":34962
		},
		{
			"buffer":0,
			"byteLength":48,
			"byteOffset":512076,
			"target":34962
		},
		{
			"buffer":0,
			"byteLength":32,
			"byteOffset":512124,
			"target":34962
		},
		{
			"buffer":0,
			"byteLength":12,
			"byteOffset":512156,
			"target":34963
		},
		{
			"buffer":0,
			"byteLength":312,
			"byteOffset":512168,
			"target":34962
		},
		{
			"buffer":0,
			"byteLength":312,
			"byteOffset":512480,
			"target":34962
		},
		{
			"buffer":0,
			"byteLength":208,
			"byteOffset":512792,
			"target":34962
		},
		{
			"buffer":0,
			"byteLength":96,
			"byteOffset":513000,
			"target":34963
		},
		{
			"buffer":0,
			"byteLength":240,
			"byteOffset":513096,
			"target":34962
		},
		{
			"buffer":0,
			"byteLength":240,
			"byteOffset":513336,
			"target":34962
		},
		{
			"buffer":0,
			"byteLength":160,
			"byteOffset":513576,
			"target":34962
		},
		{
			"buffer":0,
			"byteLength":60,
			"byteOffset":513736,
			"target":34963
		},
		{
			"buffer":0,
			"byteLength":33312,
			"byteOffset":513796,
			"target":34962
		},
		{
			"buffer":0,
			"byteLength":33312,
			"byteOffset":547108,
			"target":34962
		},
		{
			"buffer":0,
			"byteLength":22208,
			"byteOffset":580420,
			"target":34962
		},
		{
			"buffer":0,
			"byteLength":15720,
			"byteOffset":602628,
			"target":34963
		}
	],
	"buffers":[
		{
			"byteLength":618348,
			"uri":"data:application/octet-stream;base64,"
		}
	]
}
