{
	"asset":{
		"generator":"Khronos glTF Blender I/O v3.6.28",
		"version":"2.0"
	},
	"extensionsUsed":[
		"KHR_materials_specular",
		"KHR_materials_ior"
	],
	"scene":0,
	"scenes":[
		{
			"name":"Scene",
			"nodes":[
				3,
				6,
				7,
				8,
				9,
				10
			]
		}
	],
	"nodes":[
		{
			"name":"logo",
			"translation":[
				0,
				0,
				2.8850804483226966e-06
			]
		},
		{
			"children":[
				0
			],
			"name":"1",
			"translation":[
				0,
				0,
				2.8850804483226966e-06
			]
		},
		{
			"children":[
				1
			],
			"name":"Text",
			"translation":[
				0,
				0,
				2.8850804483226966e-06
			]
		},
		{
			"children":[
				2
			],
			"name":"logoback",
			"rotation":[
				0,
				0.6998246908187866,
				-0.7143146395683289,
				1.0612664169684649e-07
			],
			"scale":[
				0.018082672730088234,
				0.018082670867443085,
				0.018082670867443085
			],
			"translation":[
				0.21790966391563416,
				0.516046404838562,
				-0.058701932430267334
			]
		},
		{
			"name":"logo_2"
		},
		{
			"children":[
				4
			],
			"name":"1_2"
		},
		{
			"children":[
				5
			],
			"name":"logofront",
			"rotation":[
				0.6998246908187866,
				0,
				0,
				0.7143146395683289
			],
			"scale":[
				0.018082672730088234,
				0.018082670867443085,
				0.018082670867443085
			],
			"translation":[
				0.08675554394721985,
				0.14922839403152466,
				-0.0005415678024291992
			]
		},
		{
			"mesh":0,
			"name":"circle",
			"rotation":[
				9.86278973869048e-05,
				0.6998246908187866,
				-0.7143146991729736,
				0.00010073816520161927
			],
			"scale":[
				0.018082670867443085,
				0.018082670867443085,
				0.018082670867443085
			],
			"translation":[
				0.12013908475637436,
				-0.028419911861419678,
				0.014862537384033203
			]
		},
		{
			"mesh":1,
			"name":"main",
			"rotation":[
				2.0764341570611577e-06,
				-0.7071068286895752,
				-0.7071068286895752,
				2.0764339296874823e-06
			],
			"scale":[
				0.026818538084626198,
				0.018082669004797935,
				0.018082672730088234
			],
			"translation":[
				0.11556039750576019,
				0.47515642642974854,
				-0.026975154876708984
			]
		},
		{
			"mesh":2,
			"name":"stick",
			"rotation":[
				0.00013958752970211208,
				0.11959801614284515,
				-0.9928224682807922,
				1.9772831365116872e-05
			],
			"scale":[
				0.018082670867443085,
				0.018082672730088234,
				0.018082670867443085
			],
			"translation":[
				0.11817967146635056,
				0.11790132522583008,
				-0.13155710697174072
			]
		},
		{
			"mesh":3,
			"name":"base",
			"rotation":[
				9.86278973869048e-05,
				0.6998246908187866,
				-0.7143146991729736,
				0.00010073816520161927
			],
			"scale":[
				0.018082670867443085,
				0.018082670867443085,
				0.018082670867443085
			],
			"translation":[
				0.11972477287054062,
				-0.03198981285095215,
				0.013239264488220215
			]
		}
	],
	"materials":[
		{
			"doubleSided":true,
			"extensions":{
				"KHR_materials_specular":{
					"specularColorFactor":[
						0,
						0,
						0
					]
				},
				"KHR_materials_ior":{
					"ior":1.4500000476837158
				}
			},
			"name":"Mat",
			"pbrMetallicRoughness":{
				"baseColorFactor":[
					0.0800132155418396,
					0.0800132155418396,
					0.0800132155418396,
					1
				],
				"metallicFactor":0.6000000238418579,
				"roughnessFactor":0.5527864098548889
			}
		},
		{
			"doubleSided":true,
			"extensions":{
				"KHR_materials_specular":{
					"specularColorFactor":[
						0.5691258147449819,
						0.5691258147449819,
						0.5691258147449819
					]
				},
				"KHR_materials_ior":{
					"ior":1.4500000476837158
				}
			},
			"name":"Mat.1",
			"pbrMetallicRoughness":{
				"baseColorFactor":[
					0.12244898080825806,
					0.12244898080825806,
					0.12244898080825806,
					1
				],
				"metallicFactor":0.11999999731779099,
				"roughnessFactor":0
			}
		},
		{
			"doubleSided":true,
			"extensions":{
				"KHR_materials_specular":{
					"specularColorFactor":[
						2.371357614441398,
						2.371357614441398,
						2.371357614441398
					]
				},
				"KHR_materials_ior":{
					"ior":1.4500000476837158
				}
			},
			"name":"Mat.2",
			"pbrMetallicRoughness":{
				"baseColorFactor":[
					0.19387754797935486,
					0.19387754797935486,
					0.19387754797935486,
					1
				],
				"metallicFactor":0.051100000739097595,
				"roughnessFactor":0.3937133848667145
			}
		}
	],
	"meshes":[
		{
			"name":"Mesh.024",
			"primitives":[
				{
					"attributes":{
						"POSITION":0,
						"NORMAL":1,
						"TEXCOORD_0":2
					},
					"indices":3,
					"material":0
				}
			]
		},
		{
			"name":"Mesh.026",
			"primitives":[
				{
					"attributes":{
						"POSITION":4,
						"NORMAL":5,
						"TEXCOORD_0":6
					},
					"indices":7,
					"material":0
				},
				{
					"attributes":{
						"POSITION":8,
						"NORMAL":9,
						"TEXCOORD_0":10
					},
					"indices":11,
					"material":1
				},
				{
					"attributes":{
						"POSITION":12,
						"NORMAL":13,
						"TEXCOORD_0":14
					},
					"indices":15,
					"material":2
				}
			]
		},
		{
			"name":"Mesh.027",
			"primitives":[
				{
					"attributes":{
						"POSITION":16,
						"NORMAL":17,
						"TEXCOORD_0":18
					},
					"indices":19,
					"material":0
				}
			]
		},
		{
			"name":"Mesh.028",
			"primitives":[
				{
					"attributes":{
						"POSITION":20,
						"NORMAL":21,
						"TEXCOORD_0":22
					},
					"indices":23,
					"material":0
				}
			]
		}
	],
	"accessors":[
		{
			"bufferView":0,
			"componentType":5126,
			"count":360,
			"max":[
				10,
				10,
				0
			],
			"min":[
				-10,
				-10,
				0
			],
			"type":"VEC3"
		},
		{
			"bufferView":1,
			"componentType":5126,
			"count":360,
			"type":"VEC3"
		},
		{
			"bufferView":2,
			"componentType":5126,
			"count":360,
			"type":"VEC2"
		},
		{
			"bufferView":3,
			"componentType":5123,
			"count":1728,
			"type":"SCALAR"
		},
		{
			"bufferView":4,
			"componentType":5126,
			"count":21197,
			"max":[
				31.000757217407227,
				0.9801334142684937,
				18.504959106445312
			],
			"min":[
				-30.999242782592773,
				-1.0198665857315063,
				-18.495040893554688
			],
			"type":"VEC3"
		},
		{
			"bufferView":5,
			"componentType":5126,
			"count":21197,
			"type":"VEC3"
		},
		{
			"bufferView":6,
			"componentType":5126,
			"count":21197,
			"type":"VEC2"
		},
		{
			"bufferView":7,
			"componentType":5123,
			"count":121182,
			"type":"SCALAR"
		},
		{
			"bufferView":8,
			"componentType":5126,
			"count":960,
			"max":[
				30.9007568359375,
				1.4701334238052368,
				18.404958724975586
			],
			"min":[
				-30.899242401123047,
				0.9801334142684937,
				-18.39504051208496
			],
			"type":"VEC3"
		},
		{
			"bufferView":9,
			"componentType":5126,
			"count":960,
			"type":"VEC3"
		},
		{
			"bufferView":10,
			"componentType":5126,
			"count":960,
			"type":"VEC2"
		},
		{
			"bufferView":11,
			"componentType":5123,
			"count":5262,
			"type":"SCALAR"
		},
		{
			"bufferView":12,
			"componentType":5126,
			"count":608,
			"max":[
				30.9007568359375,
				-0.9598665833473206,
				16.468116760253906
			],
			"min":[
				-30.899242401123047,
				-0.9598665833473206,
				-18.39504051208496
			],
			"type":"VEC3"
		},
		{
			"bufferView":13,
			"componentType":5126,
			"count":608,
			"type":"VEC3"
		},
		{
			"bufferView":14,
			"componentType":5126,
			"count":608,
			"type":"VEC2"
		},
		{
			"bufferView":15,
			"componentType":5123,
			"count":3348,
			"type":"SCALAR"
		},
		{
			"bufferView":16,
			"componentType":5126,
			"count":1158,
			"max":[
				2,
				8.5,
				4.231274604797363
			],
			"min":[
				-2,
				-5.334634780883789,
				-0.3499999940395355
			],
			"type":"VEC3"
		},
		{
			"bufferView":17,
			"componentType":5126,
			"count":1158,
			"type":"VEC3"
		},
		{
			"bufferView":18,
			"componentType":5126,
			"count":1158,
			"type":"VEC2"
		},
		{
			"bufferView":19,
			"componentType":5123,
			"count":5820,
			"type":"SCALAR"
		},
		{
			"bufferView":20,
			"componentType":5126,
			"count":1080,
			"max":[
				10,
				10,
				-0.14158914983272552
			],
			"min":[
				-10,
				-10.316463470458984,
				-2.5137336254119873
			],
			"type":"VEC3"
		},
		{
			"bufferView":21,
			"componentType":5126,
			"count":1080,
			"type":"VEC3"
		},
		{
			"bufferView":22,
			"componentType":5126,
			"count":1080,
			"type":"VEC2"
		},
		{
			"bufferView":23,
			"componentType":5123,
			"count":3240,
			"type":"SCALAR"
		}
	],
	"bufferViews":[
		{
			"buffer":0,
			"byteLength":4320,
			"byteOffset":0,
			"target":34962
		},
		{
			"buffer":0,
			"byteLength":4320,
			"byteOffset":4320,
			"target":34962
		},
		{
			"buffer":0,
			"byteLength":2880,
			"byteOffset":8640,
			"target":34962
		},
		{
			"buffer":0,
			"byteLength":3456,
			"byteOffset":11520,
			"target":34963
		},
		{
			"buffer":0,
			"byteLength":254364,
			"byteOffset":14976,
			"target":34962
		},
		{
			"buffer":0,
			"byteLength":254364,
			"byteOffset":269340,
			"target":34962
		},
		{
			"buffer":0,
			"byteLength":169576,
			"byteOffset":523704,
			"target":34962
		},
		{
			"buffer":0,
			"byteLength":242364,
			"byteOffset":693280,
			"target":34963
		},
		{
			"buffer":0,
			"byteLength":11520,
			"byteOffset":935644,
			"target":34962
		},
		{
			"buffer":0,
			"byteLength":11520,
			"byteOffset":947164,
			"target":34962
		},
		{
			"buffer":0,
			"byteLength":7680,
			"byteOffset":958684,
			"target":34962
		},
		{
			"buffer":0,
			"byteLength":10524,
			"byteOffset":966364,
			"target":34963
		},
		{
			"buffer":0,
			"byteLength":7296,
			"byteOffset":976888,
			"target":34962
		},
		{
			"buffer":0,
			"byteLength":7296,
			"byteOffset":984184,
			"target":34962
		},
		{
			"buffer":0,
			"byteLength":4864,
			"byteOffset":991480,
			"target":34962
		},
		{
			"buffer":0,
			"byteLength":6696,
			"byteOffset":996344,
			"target":34963
		},
		{
			"buffer":0,
			"byteLength":13896,
			"byteOffset":1003040,
			"target":34962
		},
		{
			"buffer":0,
			"byteLength":13896,
			"byteOffset":1016936,
			"target":34962
		},
		{
			"buffer":0,
			"byteLength":9264,
			"byteOffset":1030832,
			"target":34962
		},
		{
			"buffer":0,
			"byteLength":11640,
			"byteOffset":1040096,
			"target":34963
		},
		{
			"buffer":0,
			"byteLength":12960,
			"byteOffset":1051736,
			"target":34962
		},
		{
			"buffer":0,
			"byteLength":12960,
			"byteOffset":1064696,
			"target":34962
		},
		{
			"buffer":0,
			"byteLength":8640,
			"byteOffset":1077656,
			"target":34962
		},
		{
			"buffer":0,
			"byteLength":6480,
			"byteOffset":1086296,
			"target":34963
		}
	],
	"buffers":[
		{
			"byteLength":1092776,
			"uri":"data:application/octet-stream;base64,"
		}
	]
}
