{
	"asset":{
		"generator":"Khronos glTF Blender I/O v3.6.28",
		"version":"2.0"
	},
	"extensionsUsed":[
		"KHR_materials_specular",
		"KHR_materials_ior"
	],
	"scene":0,
	"scenes":[
		{
			"name":"Scene",
			"nodes":[
				3
			]
		}
	],
	"nodes":[
		{
			"mesh":0,
			"name":"BezierCurve.001",
			"rotation":[
				0,
				0.6976944804191589,
				0,
				0.7163954377174377
			],
			"scale":[
				0.8501448035240173,
				4.203860282897949,
				0.8501448035240173
			],
			"translation":[
				0,
				-1.4529650211334229,
				-0.2310929149389267
			]
		},
		{
			"mesh":1,
			"name":"Cube.069",
			"scale":[
				0.16867995262145996,
				5.262313365936279,
				0.91371089220047
			],
			"translation":[
				1.1467244625091553,
				4.909330368041992,
				0
			]
		},
		{
			"mesh":2,
			"name":"Cylinder.002",
			"scale":[
				0.2341495007276535,
				0.7521460056304932,
				0.2341495007276535
			],
			"translation":[
				0,
				-1.0208806991577148,
				0
			]
		},
		{
			"children":[
				0,
				1,
				2
			],
			"mesh":3,
			"name":"Chair",
			"scale":[
				0.7502878308296204,
				0.15173032879829407,
				0.7502878308296204
			],
			"translation":[
				0,
				1.242766261100769,
				0
			]
		}
	],
	"materials":[
		{
			"doubleSided":true,
			"extensions":{
				"KHR_materials_specular":{
					"specularColorFactor":[
						1.159903187122159,
						1.159903187122159,
						1.159903187122159
					]
				},
				"KHR_materials_ior":{
					"ior":1.4500000476837158
				}
			},
			"name":"Metal",
			"pbrMetallicRoughness":{
				"baseColorFactor":[
					0,
					0,
					0,
					1
				],
				"metallicFactor":0,
				"roughnessFactor":0.5
			}
		},
		{
			"doubleSided":true,
			"name":"Chair",
			"pbrMetallicRoughness":{
				"baseColorFactor":[
					0.800000011920929,
					0.800000011920929,
					0.800000011920929,
					1
				],
				"metallicFactor":0,
				"roughnessFactor":0.8909090757369995
			}
		},
		{
			"doubleSided":true,
			"name":"Steel Black Polished",
			"pbrMetallicRoughness":{
				"baseColorFactor":[
					0.00888790749013424,
					0.00888790749013424,
					0.00888790749013424,
					1
				],
				"metallicFactor":0,
				"roughnessFactor":0.47727274894714355
			}
		},
		{
			"doubleSided":true,
			"name":"Steel White",
			"pbrMetallicRoughness":{
				"baseColorFactor":[
					0.800000011920929,
					0.800000011920929,
					0.800000011920929,
					1
				],
				"roughnessFactor":0.5
			}
		}
	],
	"meshes":[
		{
			"name":"BezierCurve.000",
			"primitives":[
				{
					"attributes":{
						"POSITION":0,
						"NORMAL":1,
						"TEXCOORD_0":2
					},
					"indices":3,
					"material":0
				}
			]
		},
		{
			"name":"Cube.000",
			"primitives":[
				{
					"attributes":{
						"POSITION":4,
						"NORMAL":5,
						"TEXCOORD_0":6
					},
					"indices":7,
					"material":1
				}
			]
		},
		{
			"name":"Cylinder.000",
			"primitives":[
				{
					"attributes":{
						"POSITION":8,
						"NORMAL":9,
						"TEXCOORD_0":10
					},
					"indices":11,
					"material":2
				},
				{
					"attributes":{
						"POSITION":12,
						"NORMAL":13,
						"TEXCOORD_0":14
					},
					"indices":15,
					"material":3
				}
			]
		},
		{
			"name":"Cube.001",
			"primitives":[
				{
					"attributes":{
						"POSITION":16,
						"NORMAL":17,
						"TEXCOORD_0":18
					},
					"indices":19,
					"material":1
				}
			]
		}
	],
	"accessors":[
		{
			"bufferView":0,
			"componentType":5126,
			"count":355,
			"max":[
				1.0537726879119873,
				0.03365590050816536,
				0.558954119682312
			],
			"min":[
				-0.033777885138988495,
				-0.23996886610984802,
				-0.016910584643483162
			],
			"type":"VEC3"
		},
		{
			"bufferView":1,
			"componentType":5126,
			"count":355,
			"type":"VEC3"
		},
		{
			"bufferView":2,
			"componentType":5126,
			"count":355,
			"type":"VEC2"
		},
		{
			"bufferView":3,
			"componentType":5123,
			"count":1836,
			"type":"SCALAR"
		},
		{
			"bufferView":4,
			"componentType":5126,
			"count":679,
			"max":[
				3.653867721557617,
				0.997908353805542,
				0.9970443248748779
			],
			"min":[
				-0.9786777496337891,
				-1.4266799688339233,
				-0.9965804219245911
			],
			"type":"VEC3"
		},
		{
			"bufferView":5,
			"componentType":5126,
			"count":679,
			"type":"VEC3"
		},
		{
			"bufferView":6,
			"componentType":5126,
			"count":679,
			"type":"VEC2"
		},
		{
			"bufferView":7,
			"componentType":5123,
			"count":2112,
			"type":"SCALAR"
		},
		{
			"bufferView":8,
			"componentType":5126,
			"count":13479,
			"max":[
				5.8195576667785645,
				1,
				6.694283962249756
			],
			"min":[
				-6.916337013244629,
				-9.462413787841797,
				-6.695655345916748
			],
			"type":"VEC3"
		},
		{
			"bufferView":9,
			"componentType":5126,
			"count":13479,
			"type":"VEC3"
		},
		{
			"bufferView":10,
			"componentType":5126,
			"count":13479,
			"type":"VEC2"
		},
		{
			"bufferView":11,
			"componentType":5123,
			"count":50868,
			"type":"SCALAR"
		},
		{
			"bufferView":12,
			"componentType":5126,
			"count":66,
			"max":[
				0.5075477361679077,
				-1.0606027841567993,
				0.5075474977493286
			],
			"min":[
				-0.5075475573539734,
				-3.3360018730163574,
				-0.5075477957725525
			],
			"type":"VEC3"
		},
		{
			"bufferView":13,
			"componentType":5126,
			"count":66,
			"type":"VEC3"
		},
		{
			"bufferView":14,
			"componentType":5126,
			"count":66,
			"type":"VEC2"
		},
		{
			"bufferView":15,
			"componentType":5123,
			"count":192,
			"type":"SCALAR"
		},
		{
			"bufferView":16,
			"componentType":5126,
			"count":911,
			"max":[
				0.9967172741889954,
				0.9967242479324341,
				0.9936418533325195
			],
			"min":[
				-1.281212329864502,
				-0.9967243075370789,
				-0.9936417937278748
			],
			"type":"VEC3"
		},
		{
			"bufferView":17,
			"componentType":5126,
			"count":911,
			"type":"VEC3"
		},
		{
			"bufferView":18,
			"componentType":5126,
			"count":911,
			"type":"VEC2"
		},
		{
			"bufferView":19,
			"componentType":5123,
			"count":3024,
			"type":"SCALAR"
		}
	],
	"bufferViews":[
		{
			"buffer":0,
			"byteLength":4260,
			"byteOffset":0,
			"target":34962
		},
		{
			"buffer":0,
			"byteLength":4260,
			"byteOffset":4260,
			"target":34962
		},
		{
			"buffer":0,
			"byteLength":2840,
			"byteOffset":8520,
			"target":34962
		},
		{
			"buffer":0,
			"byteLength":3672,
			"byteOffset":11360,
			"target":34963
		},
		{
			"buffer":0,
			"byteLength":8148,
			"byteOffset":15032,
			"target":34962
		},
		{
			"buffer":0,
			"byteLength":8148,
			"byteOffset":23180,
			"target":34962
		},
		{
			"buffer":0,
			"byteLength":5432,
			"byteOffset":31328,
			"target":34962
		},
		{
			"buffer":0,
			"byteLength":4224,
			"byteOffset":36760,
			"target":34963
		},
		{
			"buffer":0,
			"byteLength":161748,
			"byteOffset":40984,
			"target":34962
		},
		{
			"buffer":0,
			"byteLength":161748,
			"byteOffset":202732,
			"target":34962
		},
		{
			"buffer":0,
			"byteLength":107832,
			"byteOffset":364480,
			"target":34962
		},
		{
			"buffer":0,
			"byteLength":101736,
			"byteOffset":472312,
			"target":34963
		},
		{
			"buffer":0,
			"byteLength":792,
			"byteOffset":574048,
			"target":34962
		},
		{
			"buffer":0,
			"byteLength":792,
			"byteOffset":574840,
			"target":34962
		},
		{
			"buffer":0,
			"byteLength":528,
			"byteOffset":575632,
			"target":34962
		},
		{
			"buffer":0,
			"byteLength":384,
			"byteOffset":576160,
			"target":34963
		},
		{
			"buffer":0,
			"byteLength":10932,
			"byteOffset":576544,
			"target":34962
		},
		{
			"buffer":0,
			"byteLength":10932,
			"byteOffset":587476,
			"target":34962
		},
		{
			"buffer":0,
			"byteLength":7288,
			"byteOffset":598408,
			"target":34962
		},
		{
			"buffer":0,
			"byteLength":6048,
			"byteOffset":605696,
			"target":34963
		}
	],
	"buffers":[
		{
			"byteLength":611744,
			"uri":"data:application/octet-stream;base64,"
		}
	]
}
