<svg width="254" height="8" viewBox="0 0 254 8" fill="none" xmlns="http://www.w3.org/2000/svg">
<path fill-rule="evenodd" clip-rule="evenodd" d="M128 6.81482L136 2.07407H139V0.888889H248L249.5 0H254L251 1.77778H222.5L225 3.25926H222.5H205.5L204 4.14815H193.5L192 3.25926H189.5L185 5.92593H157L153.5 8H151.5V6.81482L158.5 2.66667H150.5L147.5 4.44444H134.5L129.5 7.40741H128V6.81482ZM192.5 2.36979L194 3.25868H203L204.5 2.36979H192.5ZM158 5.03646L160 3.85127H177.5L178.5 3.25868H186.5L184.5 4.44387H180L179 5.03646H158Z" fill="url(#paint0_linear_660_2)"/>
<path fill-rule="evenodd" clip-rule="evenodd" d="M126 6.81482L118 2.07407H115V0.888889H6L4.5 0H0L3 1.77778H31.5L29 3.25926H31.5H48.5L50 4.14815H60.5L62 3.25926H64.5L69 5.92593H97L100.5 8H102.5V6.81482L95.5 2.66667H103.5L106.5 4.44444H119.5L124.5 7.40741H126V6.81482ZM61.5 2.36979L60 3.25868H51L49.5 2.36979H61.5ZM96 5.03646L94 3.85127H76.5L75.5 3.25868H67.5L69.5 4.44387H74L75 5.03646H96Z" fill="url(#paint1_linear_660_2)"/>
<defs>
<linearGradient id="paint0_linear_660_2" x1="128" y1="4" x2="254" y2="4" gradientUnits="userSpaceOnUse">
<stop stop-color="#FE0101"/>
<stop offset="1" stop-color="#00B8FF"/>
</linearGradient>
<linearGradient id="paint1_linear_660_2" x1="126" y1="4" x2="0" y2="4" gradientUnits="userSpaceOnUse">
<stop stop-color="#FE0101"/>
<stop offset="1" stop-color="#00B8FF"/>
</linearGradient>
</defs>
</svg>
