<svg width="584" height="503" viewBox="0 0 584 503" fill="none" xmlns="http://www.w3.org/2000/svg">
<path d="M581.333 339C581.333 340.473 582.527 341.667 584 341.667C585.473 341.667 586.667 340.473 586.667 339C586.667 337.527 585.473 336.333 584 336.333C582.527 336.333 581.333 337.527 581.333 339ZM544.5 299.5H544V299.707L544.146 299.854L544.5 299.5ZM541.833 3.5C541.833 4.97276 543.027 6.16667 544.5 6.16667C545.973 6.16667 547.167 4.97276 547.167 3.5C547.167 2.02724 545.973 0.833333 544.5 0.833333C543.027 0.833333 541.833 2.02724 541.833 3.5ZM569.833 167C569.833 168.473 571.027 169.667 572.5 169.667C573.973 169.667 575.167 168.473 575.167 167C575.167 165.527 573.973 164.333 572.5 164.333C571.027 164.333 569.833 165.527 569.833 167ZM569.833 502.5C569.833 503.973 571.027 505.167 572.5 505.167C573.973 505.167 575.167 503.973 575.167 502.5C575.167 501.027 573.973 499.833 572.5 499.833C571.027 499.833 569.833 501.027 569.833 502.5ZM554.333 502.5C554.333 503.973 555.527 505.167 557 505.167C558.473 505.167 559.667 503.973 559.667 502.5C559.667 501.027 558.473 499.833 557 499.833C555.527 499.833 554.333 501.027 554.333 502.5ZM557 435.5H557.5V435.293L557.354 435.146L557 435.5ZM503 381.5H502.5V381.707L502.646 381.854L503 381.5ZM500.333 355.5C500.333 356.973 501.527 358.167 503 358.167C504.473 358.167 505.667 356.973 505.667 355.5C505.667 354.027 504.473 352.833 503 352.833C501.527 352.833 500.333 354.027 500.333 355.5ZM519.333 72.5C519.333 73.9728 520.527 75.1667 522 75.1667C523.473 75.1667 524.667 73.9728 524.667 72.5C524.667 71.0272 523.473 69.8333 522 69.8333C520.527 69.8333 519.333 71.0272 519.333 72.5ZM522 318H521.5V318.207L521.646 318.354L522 318ZM581.333 380C581.333 381.473 582.527 382.667 584 382.667C585.473 382.667 586.667 381.473 586.667 380C586.667 378.527 585.473 377.333 584 377.333C582.527 377.333 581.333 378.527 581.333 380ZM530.333 277C530.333 278.473 531.527 279.667 533 279.667C534.473 279.667 535.667 278.473 535.667 277C535.667 275.527 534.473 274.333 533 274.333C531.527 274.333 530.333 275.527 530.333 277ZM533 313.5H532.5V313.707L532.646 313.854L533 313.5ZM581.333 364.5C581.333 365.973 582.527 367.167 584 367.167C585.473 367.167 586.667 365.973 586.667 364.5C586.667 363.027 585.473 361.833 584 361.833C582.527 361.833 581.333 363.027 581.333 364.5ZM500.333 154.5C500.333 155.973 501.527 157.167 503 157.167C504.473 157.167 505.667 155.973 505.667 154.5C505.667 153.027 504.473 151.833 503 151.833C501.527 151.833 500.333 153.027 500.333 154.5ZM503 339H502.5V339.207L502.646 339.354L503 339ZM581.333 420C581.333 421.473 582.527 422.667 584 422.667C585.473 422.667 586.667 421.473 586.667 420C586.667 418.527 585.473 417.333 584 417.333C582.527 417.333 581.333 418.527 581.333 420ZM546.333 502.5C546.333 503.973 547.527 505.167 549 505.167C550.473 505.167 551.667 503.973 551.667 502.5C551.667 501.027 550.473 499.833 549 499.833C547.527 499.833 546.333 501.027 546.333 502.5ZM549 445.5H549.5V445.293L549.354 445.146L549 445.5ZM493 389.5H492.5V389.707L492.646 389.854L493 389.5ZM490.333 322C490.333 323.473 491.527 324.667 493 324.667C494.473 324.667 495.667 323.473 495.667 322C495.667 320.527 494.473 319.333 493 319.333C491.527 319.333 490.333 320.527 490.333 322ZM477.333 339C477.333 340.473 478.527 341.667 480 341.667C481.473 341.667 482.667 340.473 482.667 339C482.667 337.527 481.473 336.333 480 336.333C478.527 336.333 477.333 337.527 477.333 339ZM480 389.5H479.5V389.707L479.646 389.854L480 389.5ZM536 445.5H536.5V445.293L536.354 445.146L536 445.5ZM533.333 502.5C533.333 503.973 534.527 505.167 536 505.167C537.473 505.167 538.667 503.973 538.667 502.5C538.667 501.027 537.473 499.833 536 499.833C534.527 499.833 533.333 501.027 533.333 502.5ZM479.833 502.5C479.833 503.973 481.027 505.167 482.5 505.167C483.973 505.167 485.167 503.973 485.167 502.5C485.167 501.027 483.973 499.833 482.5 499.833C481.027 499.833 479.833 501.027 479.833 502.5ZM479.833 435.5C479.833 436.973 481.027 438.167 482.5 438.167C483.973 438.167 485.167 436.973 485.167 435.5C485.167 434.027 483.973 432.833 482.5 432.833C481.027 432.833 479.833 434.027 479.833 435.5ZM467.333 462.5C467.333 463.973 468.527 465.167 470 465.167C471.473 465.167 472.667 463.973 472.667 462.5C472.667 461.027 471.473 459.833 470 459.833C468.527 459.833 467.333 461.027 467.333 462.5ZM467.333 502.5C467.333 503.973 468.527 505.167 470 505.167C471.473 505.167 472.667 503.973 472.667 502.5C472.667 501.027 471.473 499.833 470 499.833C468.527 499.833 467.333 501.027 467.333 502.5ZM428.833 502.5C428.833 503.973 430.027 505.167 431.5 505.167C432.973 505.167 434.167 503.973 434.167 502.5C434.167 501.027 432.973 499.833 431.5 499.833C430.027 499.833 428.833 501.027 428.833 502.5ZM431.5 483.5L431.146 483.146L431 483.293V483.5H431.5ZM465.5 449.5L465.854 449.854L466 449.707V449.5H465.5ZM462.833 413.5C462.833 414.973 464.027 416.167 465.5 416.167C466.973 416.167 468.167 414.973 468.167 413.5C468.167 412.027 466.973 410.833 465.5 410.833C464.027 410.833 462.833 412.027 462.833 413.5ZM454.833 401.5C454.833 402.973 456.027 404.167 457.5 404.167C458.973 404.167 460.167 402.973 460.167 401.5C460.167 400.027 458.973 398.833 457.5 398.833C456.027 398.833 454.833 400.027 454.833 401.5ZM457.5 445.5L457.854 445.854L458 445.707V445.5H457.5ZM422.5 480.5L422.146 480.146L422 480.293V480.5H422.5ZM419.833 502.5C419.833 503.973 421.027 505.167 422.5 505.167C423.973 505.167 425.167 503.973 425.167 502.5C425.167 501.027 423.973 499.833 422.5 499.833C421.027 499.833 419.833 501.027 419.833 502.5ZM412.333 502.5C412.333 503.973 413.527 505.167 415 505.167C416.473 505.167 417.667 503.973 417.667 502.5C417.667 501.027 416.473 499.833 415 499.833C413.527 499.833 412.333 501.027 412.333 502.5ZM415 475.5L414.646 475.146L414.5 475.293V475.5H415ZM450.5 440L450.854 440.354L451 440.207V440H450.5ZM447.833 427C447.833 428.473 449.027 429.667 450.5 429.667C451.973 429.667 453.167 428.473 453.167 427C453.167 425.527 451.973 424.333 450.5 424.333C449.027 424.333 447.833 425.527 447.833 427ZM467.333 191.5C467.333 192.973 468.527 194.167 470 194.167C471.473 194.167 472.667 192.973 472.667 191.5C472.667 190.027 471.473 188.833 470 188.833C468.527 188.833 467.333 190.027 467.333 191.5ZM470 362L470.354 362.354L470.5 362.207V362H470ZM384.5 447.5L384.146 447.146L384 447.293V447.5H384.5ZM381.833 487C381.833 488.473 383.027 489.667 384.5 489.667C385.973 489.667 387.167 488.473 387.167 487C387.167 485.527 385.973 484.333 384.5 484.333C383.027 484.333 381.833 485.527 381.833 487ZM370.833 502.5C370.833 503.973 372.027 505.167 373.5 505.167C374.973 505.167 376.167 503.973 376.167 502.5C376.167 501.027 374.973 499.833 373.5 499.833C372.027 499.833 370.833 501.027 370.833 502.5ZM370.833 270.5C370.833 271.973 372.027 273.167 373.5 273.167C374.973 273.167 376.167 271.973 376.167 270.5C376.167 269.027 374.973 267.833 373.5 267.833C372.027 267.833 370.833 269.027 370.833 270.5ZM454.833 318C454.833 319.473 456.027 320.667 457.5 320.667C458.973 320.667 460.167 319.473 460.167 318C460.167 316.527 458.973 315.333 457.5 315.333C456.027 315.333 454.833 316.527 454.833 318ZM457.5 358.5L457.854 358.854L458 358.707V358.5H457.5ZM441.833 211.5C441.833 212.973 443.027 214.167 444.5 214.167C445.973 214.167 447.167 212.973 447.167 211.5C447.167 210.027 445.973 208.833 444.5 208.833C443.027 208.833 441.833 210.027 441.833 211.5ZM444.5 348.5L444.854 348.854L445 348.707V348.5H444.5ZM360 433L359.646 432.646L359.5 432.793V433H360ZM357.333 502.5C357.333 503.973 358.527 505.167 360 505.167C361.473 505.167 362.667 503.973 362.667 502.5C362.667 501.027 361.473 499.833 360 499.833C358.527 499.833 357.333 501.027 357.333 502.5ZM346.833 502.5C346.833 503.973 348.027 505.167 349.5 505.167C350.973 505.167 352.167 503.973 352.167 502.5C352.167 501.027 350.973 499.833 349.5 499.833C348.027 499.833 346.833 501.027 346.833 502.5ZM349.5 445.5L349.146 445.146L349 445.293V445.5H349.5ZM431.833 121C431.833 122.473 433.027 123.667 434.5 123.667C435.973 123.667 437.167 122.473 437.167 121C437.167 119.527 435.973 118.333 434.5 118.333C433.027 118.333 431.833 119.527 431.833 121ZM434.5 348.5L434.854 348.854L435 348.707V348.5H434.5ZM315 468L314.646 467.646L314.5 467.793V468H315ZM312.333 502.5C312.333 503.973 313.527 505.167 315 505.167C316.473 505.167 317.667 503.973 317.667 502.5C317.667 501.027 316.473 499.833 315 499.833C313.527 499.833 312.333 501.027 312.333 502.5ZM320.833 502.5C320.833 503.973 322.027 505.167 323.5 505.167C324.973 505.167 326.167 503.973 326.167 502.5C326.167 501.027 324.973 499.833 323.5 499.833C322.027 499.833 320.833 501.027 320.833 502.5ZM320.833 233.5C320.833 234.973 322.027 236.167 323.5 236.167C324.973 236.167 326.167 234.973 326.167 233.5C326.167 232.027 324.973 230.833 323.5 230.833C322.027 230.833 320.833 232.027 320.833 233.5ZM412.333 154.5C412.333 155.973 413.527 157.167 415 157.167C416.473 157.167 417.667 155.973 417.667 154.5C417.667 153.027 416.473 151.833 415 151.833C413.527 151.833 412.333 153.027 412.333 154.5ZM415 348.5L415.354 348.854L415.5 348.707V348.5H415ZM301 462.5L300.646 462.146L300.5 462.293V462.5H301ZM298.333 502.5C298.333 503.973 299.527 505.167 301 505.167C302.473 505.167 303.667 503.973 303.667 502.5C303.667 501.027 302.473 499.833 301 499.833C299.527 499.833 298.333 501.027 298.333 502.5ZM403.833 246.5C403.833 247.973 405.027 249.167 406.5 249.167C407.973 249.167 409.167 247.973 409.167 246.5C409.167 245.027 407.973 243.833 406.5 243.833C405.027 243.833 403.833 245.027 403.833 246.5ZM406.5 345L406.854 345.354L407 345.207V345H406.5ZM293.5 458L293.146 457.646L293 457.793V458H293.5ZM290.833 502.5C290.833 503.973 292.027 505.167 293.5 505.167C294.973 505.167 296.167 503.973 296.167 502.5C296.167 501.027 294.973 499.833 293.5 499.833C292.027 499.833 290.833 501.027 290.833 502.5ZM293.333 345C293.333 346.473 294.527 347.667 296 347.667C297.473 347.667 298.667 346.473 298.667 345C298.667 343.527 297.473 342.333 296 342.333C294.527 342.333 293.333 343.527 293.333 345ZM346.833 335.5C346.833 336.973 348.027 338.167 349.5 338.167C350.973 338.167 352.167 336.973 352.167 335.5C352.167 334.027 350.973 332.833 349.5 332.833C348.027 332.833 346.833 334.027 346.833 335.5ZM349.5 380L349.854 380.354L350 380.207V380H349.5ZM261.5 468L261.146 467.646L261 467.793V468H261.5ZM258.833 502.5C258.833 503.973 260.027 505.167 261.5 505.167C262.973 505.167 264.167 503.973 264.167 502.5C264.167 501.027 262.973 499.833 261.5 499.833C260.027 499.833 258.833 501.027 258.833 502.5ZM279.333 292.5C279.333 293.973 280.527 295.167 282 295.167C283.473 295.167 284.667 293.973 284.667 292.5C284.667 291.027 283.473 289.833 282 289.833C280.527 289.833 279.333 291.027 279.333 292.5ZM282 433L282.354 433.354L282.5 433.207V433H282ZM221.5 493.5L221.146 493.146L221 493.293V493.5H221.5ZM218.833 502.5C218.833 503.973 220.027 505.167 221.5 505.167C222.973 505.167 224.167 503.973 224.167 502.5C224.167 501.027 222.973 499.833 221.5 499.833C220.027 499.833 218.833 501.027 218.833 502.5ZM251.833 358.5C251.833 359.973 253.027 361.167 254.5 361.167C255.973 361.167 257.167 359.973 257.167 358.5C257.167 357.027 255.973 355.833 254.5 355.833C253.027 355.833 251.833 357.027 251.833 358.5ZM254.5 427L254.854 427.354L255 427.207V427H254.5ZM204 477.5L203.646 477.146L203.5 477.293V477.5H204ZM201.333 502.5C201.333 503.973 202.527 505.167 204 505.167C205.473 505.167 206.667 503.973 206.667 502.5C206.667 501.027 205.473 499.833 204 499.833C202.527 499.833 201.333 501.027 201.333 502.5ZM223.833 401.5C223.833 402.973 225.027 404.167 226.5 404.167C227.973 404.167 229.167 402.973 229.167 401.5C229.167 400.027 227.973 398.833 226.5 398.833C225.027 398.833 223.833 400.027 223.833 401.5ZM226.5 433L226.854 433.354L227 433.207V433H226.5ZM197 462.5L196.646 462.146L196.5 462.293V462.5H197ZM194.333 502.5C194.333 503.973 195.527 505.167 197 505.167C198.473 505.167 199.667 503.973 199.667 502.5C199.667 501.027 198.473 499.833 197 499.833C195.527 499.833 194.333 501.027 194.333 502.5ZM183.833 364.5C183.833 365.973 185.027 367.167 186.5 367.167C187.973 367.167 189.167 365.973 189.167 364.5C189.167 363.027 187.973 361.833 186.5 361.833C185.027 361.833 183.833 363.027 183.833 364.5ZM183.833 502.5C183.833 503.973 185.027 505.167 186.5 505.167C187.973 505.167 189.167 503.973 189.167 502.5C189.167 501.027 187.973 499.833 186.5 499.833C185.027 499.833 183.833 501.027 183.833 502.5ZM165.333 339C165.333 340.473 166.527 341.667 168 341.667C169.473 341.667 170.667 340.473 170.667 339C170.667 337.527 169.473 336.333 168 336.333C166.527 336.333 165.333 337.527 165.333 339ZM165.333 502.5C165.333 503.973 166.527 505.167 168 505.167C169.473 505.167 170.667 503.973 170.667 502.5C170.667 501.027 169.473 499.833 168 499.833C166.527 499.833 165.333 501.027 165.333 502.5ZM147.333 309.5C147.333 310.973 148.527 312.167 150 312.167C151.473 312.167 152.667 310.973 152.667 309.5C152.667 308.027 151.473 306.833 150 306.833C148.527 306.833 147.333 308.027 147.333 309.5ZM150 445.5L150.354 445.854L150.5 445.707V445.5H150ZM108.5 487L108.146 486.646L108 486.793V487H108.5ZM105.833 502.5C105.833 503.973 107.027 505.167 108.5 505.167C109.973 505.167 111.167 503.973 111.167 502.5C111.167 501.027 109.973 499.833 108.5 499.833C107.027 499.833 105.833 501.027 105.833 502.5ZM126.833 351C126.833 352.473 128.027 353.667 129.5 353.667C130.973 353.667 132.167 352.473 132.167 351C132.167 349.527 130.973 348.333 129.5 348.333C128.027 348.333 126.833 349.527 126.833 351ZM129.5 455.5L129.854 455.854L130 455.707V455.5H129.5ZM98 487L97.6464 486.646L97.5 486.793V487H98ZM95.3333 502.5C95.3333 503.973 96.5272 505.167 98 505.167C99.4728 505.167 100.667 503.973 100.667 502.5C100.667 501.027 99.4728 499.833 98 499.833C96.5272 499.833 95.3333 501.027 95.3333 502.5ZM86.8333 395C86.8333 396.473 88.0272 397.667 89.5 397.667C90.9728 397.667 92.1667 396.473 92.1667 395C92.1667 393.527 90.9728 392.333 89.5 392.333C88.0272 392.333 86.8333 393.527 86.8333 395ZM86.8333 502.5C86.8333 503.973 88.0272 505.167 89.5 505.167C90.9728 505.167 92.1667 503.973 92.1667 502.5C92.1667 501.027 90.9728 499.833 89.5 499.833C88.0272 499.833 86.8333 501.027 86.8333 502.5ZM53.3333 440C53.3333 441.473 54.5272 442.667 56 442.667C57.4728 442.667 58.6667 441.473 58.6667 440C58.6667 438.527 57.4728 437.333 56 437.333C54.5272 437.333 53.3333 438.527 53.3333 440ZM53.3333 502.5C53.3333 503.973 54.5272 505.167 56 505.167C57.4728 505.167 58.6667 503.973 58.6667 502.5C58.6667 501.027 57.4728 499.833 56 499.833C54.5272 499.833 53.3333 501.027 53.3333 502.5ZM35.3333 413.5C35.3333 414.973 36.5272 416.167 38 416.167C39.4728 416.167 40.6667 414.973 40.6667 413.5C40.6667 412.027 39.4728 410.833 38 410.833C36.5272 410.833 35.3333 412.027 35.3333 413.5ZM38 455.5L38.3536 455.854L38.5 455.707V455.5H38ZM3.5 490L3.14645 489.646L3 489.793V490H3.5ZM0.833333 502.5C0.833333 503.973 2.02724 505.167 3.5 505.167C4.97276 505.167 6.16667 503.973 6.16667 502.5C6.16667 501.027 4.97276 499.833 3.5 499.833C2.02724 499.833 0.833333 501.027 0.833333 502.5ZM584.354 338.646L544.854 299.146L544.146 299.854L583.646 339.354L584.354 338.646ZM545 299.5V3.5H544V299.5H545ZM572 167V502.5H573V167H572ZM557.5 502.5V435.5H556.5V502.5H557.5ZM557.354 435.146L503.354 381.146L502.646 381.854L556.646 435.854L557.354 435.146ZM503.5 381.5V355.5H502.5V381.5H503.5ZM521.5 72.5V318H522.5V72.5H521.5ZM521.646 318.354L583.646 380.354L584.354 379.646L522.354 317.646L521.646 318.354ZM532.5 277V313.5H533.5V277H532.5ZM532.646 313.854L583.646 364.854L584.354 364.146L533.354 313.146L532.646 313.854ZM502.5 154.5V339H503.5V154.5H502.5ZM502.646 339.354L583.646 420.354L584.354 419.646L503.354 338.646L502.646 339.354ZM549.5 502.5V445.5H548.5V502.5H549.5ZM549.354 445.146L493.354 389.146L492.646 389.854L548.646 445.854L549.354 445.146ZM493.5 389.5V322H492.5V389.5H493.5ZM479.5 339V389.5H480.5V339H479.5ZM479.646 389.854L535.646 445.854L536.354 445.146L480.354 389.146L479.646 389.854ZM535.5 445.5V502.5H536.5V445.5H535.5ZM483 502.5V435.5H482V502.5H483ZM469.5 462.5V502.5H470.5V462.5H469.5ZM432 502.5V483.5H431V502.5H432ZM431.854 483.854L465.854 449.854L465.146 449.146L431.146 483.146L431.854 483.854ZM466 449.5V413.5H465V449.5H466ZM457 401.5V445.5H458V401.5H457ZM457.146 445.146L422.146 480.146L422.854 480.854L457.854 445.854L457.146 445.146ZM422 480.5V502.5H423V480.5H422ZM415.5 502.5V475.5H414.5V502.5H415.5ZM415.354 475.854L450.854 440.354L450.146 439.646L414.646 475.146L415.354 475.854ZM451 440V427H450V440H451ZM469.5 191.5V362H470.5V191.5H469.5ZM469.646 361.646L384.146 447.146L384.854 447.854L470.354 362.354L469.646 361.646ZM384 447.5V487H385V447.5H384ZM457 318V358.5H458V318H457ZM374 502.5V442.5H373V502.5H374ZM374 442.5V270.5H373V442.5H374ZM457.146 358.146L373.146 442.146L373.854 442.854L457.854 358.854L457.146 358.146ZM444 211.5V348.5H445V211.5H444ZM444.146 348.146L359.646 432.646L360.354 433.354L444.854 348.854L444.146 348.146ZM350 502.5V445.5H349V502.5H350ZM359.5 433V435H360.5V433H359.5ZM359.5 435V502.5H360.5V435H359.5ZM349.854 445.854L360.354 435.354L359.646 434.646L349.146 445.146L349.854 445.854ZM434 121V348.5H435V121H434ZM434.146 348.146L314.646 467.646L315.354 468.354L434.854 348.854L434.146 348.146ZM314.5 468V502.5H315.5V468H314.5ZM324 502.5V233.5H323V502.5H324ZM414.5 154.5V348.5H415.5V154.5H414.5ZM414.646 348.146L300.646 462.146L301.354 462.854L415.354 348.854L414.646 348.146ZM300.5 462.5V502.5H301.5V462.5H300.5ZM406 246.5V345H407V246.5H406ZM293 458V502.5H294V458H293ZM406.146 344.646L295.646 455.146L296.354 455.854L406.854 345.354L406.146 344.646ZM295.646 455.146L293.146 457.646L293.854 458.354L296.354 455.854L295.646 455.146ZM295.5 345V455.5H296.5V345H295.5ZM349 335.5V380H350V335.5H349ZM349.146 379.646L261.146 467.646L261.854 468.354L349.854 380.354L349.146 379.646ZM261 468V502.5H262V468H261ZM281.5 292.5V433H282.5V292.5H281.5ZM281.646 432.646L221.146 493.146L221.854 493.854L282.354 433.354L281.646 432.646ZM221 493.5V502.5H222V493.5H221ZM254 358.5V427H255V358.5H254ZM254.146 426.646L203.646 477.146L204.354 477.854L254.854 427.354L254.146 426.646ZM203.5 477.5V502.5H204.5V477.5H203.5ZM226 401.5V433H227V401.5H226ZM226.146 432.646L196.646 462.146L197.354 462.854L226.854 433.354L226.146 432.646ZM196.5 462.5V502.5H197.5V462.5H196.5ZM186 364.5V502.5H187V364.5H186ZM167.5 339V502.5H168.5V339H167.5ZM149.5 309.5V445.5H150.5V309.5H149.5ZM149.646 445.146L108.146 486.646L108.854 487.354L150.354 445.854L149.646 445.146ZM108 487V502.5H109V487H108ZM129 351V455.5H130V351H129ZM129.146 455.146L97.6464 486.646L98.3536 487.354L129.854 455.854L129.146 455.146ZM97.5 487V502.5H98.5V487H97.5ZM89 395V502.5H90V395H89ZM55.5 440V502.5H56.5V440H55.5ZM37.5 413.5V455.5H38.5V413.5H37.5ZM37.6464 455.146L3.14645 489.646L3.85355 490.354L38.3536 455.854L37.6464 455.146ZM3 490V502.5H4V490H3Z" fill="white"/>
</svg>
