<svg width="518" height="81" viewBox="0 0 518 81" fill="none" xmlns="http://www.w3.org/2000/svg">
<path d="M358.333 49C358.333 50.4728 359.527 51.6667 361 51.6667C362.473 51.6667 363.667 50.4728 363.667 49C363.667 47.5272 362.473 46.3333 361 46.3333C359.527 46.3333 358.333 47.5272 358.333 49ZM401 49V49.5H401.207L401.354 49.3536L401 49ZM409.5 40.5V40H409.293L409.146 40.1464L409.5 40.5ZM464 40.5L464.354 40.1464L464.207 40H464V40.5ZM476.333 55.5C476.333 56.9728 477.527 58.1667 479 58.1667C480.473 58.1667 481.667 56.9728 481.667 55.5C481.667 54.0272 480.473 52.8333 479 52.8333C477.527 52.8333 476.333 54.0272 476.333 55.5ZM446.833 27.75C446.833 29.2228 448.027 30.4167 449.5 30.4167C450.973 30.4167 452.167 29.2228 452.167 27.75C452.167 26.2772 450.973 25.0833 449.5 25.0833C448.027 25.0833 446.833 26.2772 446.833 27.75ZM483.5 48V48.5H483.707L483.854 48.3536L483.5 48ZM489.333 39.5C489.333 40.9728 490.527 42.1667 492 42.1667C493.473 42.1667 494.667 40.9728 494.667 39.5C494.667 38.0272 493.473 36.8333 492 36.8333C490.527 36.8333 489.333 38.0272 489.333 39.5ZM482.5 26V25.5H482.293L482.146 25.6464L482.5 26ZM500.5 26V26.5H500.707L500.854 26.3536L500.5 26ZM511.833 12C511.833 13.4728 513.027 14.6667 514.5 14.6667C515.973 14.6667 517.167 13.4728 517.167 12C517.167 10.5272 515.973 9.33333 514.5 9.33333C513.027 9.33333 511.833 10.5272 511.833 12ZM361 49.5H401V48.5H361V49.5ZM401.354 49.3536L409.854 40.8536L409.146 40.1464L400.646 48.6464L401.354 49.3536ZM409.5 41H436.75V40H409.5V41ZM436.75 41H464V40H436.75V41ZM437.104 40.8536L449.854 28.1036L449.146 27.3964L436.396 40.1464L437.104 40.8536ZM471.146 48.3536L478.646 55.8536L479.354 55.1464L471.854 47.6464L471.146 48.3536ZM471.5 48.5H483.5V47.5H471.5V48.5ZM483.854 48.3536L492.354 39.8536L491.646 39.1464L483.146 47.6464L483.854 48.3536ZM463.646 40.8536L465.646 42.8536L466.354 42.1464L464.354 40.1464L463.646 40.8536ZM465.646 42.8536L471.146 48.3536L471.854 47.6464L466.354 42.1464L465.646 42.8536ZM466.354 42.8536L482.854 26.3536L482.146 25.6464L465.646 42.1464L466.354 42.8536ZM482.5 26.5H500.5V25.5H482.5V26.5ZM500.854 26.3536L514.854 12.3536L514.146 11.6464L500.146 25.6464L500.854 26.3536Z" fill="url(#paint0_linear_651_4)" fill-opacity="0.3"/>
<path d="M490.333 3C490.333 4.47276 491.527 5.66667 493 5.66667C494.473 5.66667 495.667 4.47276 495.667 3C495.667 1.52724 494.473 0.333333 493 0.333333C491.527 0.333333 490.333 1.52724 490.333 3ZM439.586 3V2.5H439.379L439.232 2.64645L439.586 3ZM398.259 44.3267V44.8267H398.466L398.613 44.6802L398.259 44.3267ZM367.333 44.3267C367.333 45.7995 368.527 46.9934 370 46.9934C371.473 46.9934 372.667 45.7995 372.667 44.3267C372.667 42.8539 371.473 41.66 370 41.66C368.527 41.66 367.333 42.8539 367.333 44.3267ZM439.586 23.6633V24.1633H439.793L439.939 24.0169L439.586 23.6633ZM443.749 19.5V19H443.542L443.395 19.1464L443.749 19.5ZM466.333 19.5C466.333 20.9728 467.527 22.1667 469 22.1667C470.473 22.1667 471.667 20.9728 471.667 19.5C471.667 18.0272 470.473 16.8333 469 16.8333C467.527 16.8333 466.333 18.0272 466.333 19.5ZM469.333 8.70717C469.333 10.1799 470.527 11.3738 472 11.3738C473.473 11.3738 474.667 10.1799 474.667 8.70717C474.667 7.23441 473.473 6.0405 472 6.0405C470.527 6.0405 469.333 7.23441 469.333 8.70717ZM398.259 43.8267H370V44.8267H398.259V43.8267ZM439.232 2.64645L418.569 23.3098L419.276 24.0169L439.939 3.35355L439.232 2.64645ZM418.569 23.3098L397.905 43.9731L398.613 44.6802L419.276 24.0169L418.569 23.3098ZM418.922 24.1633H439.586V23.1633H418.922V24.1633ZM439.939 24.0169L444.103 19.8536L443.395 19.1464L439.232 23.3098L439.939 24.0169ZM443.749 20H469V19H443.749V20ZM493 2.5H466.293V3.5H493V2.5ZM466.293 2.5H439.586V3.5H466.293V2.5ZM465.939 3.35355L471.646 9.06072L472.354 8.35362L466.646 2.64645L465.939 3.35355Z" fill="url(#paint1_linear_651_4)" fill-opacity="0.3"/>
<path d="M159.167 49C159.167 50.4728 157.973 51.6667 156.5 51.6667C155.027 51.6667 153.833 50.4728 153.833 49C153.833 47.5272 155.027 46.3333 156.5 46.3333C157.973 46.3333 159.167 47.5272 159.167 49ZM116.5 49V49.5H116.293L116.146 49.3536L116.5 49ZM108 40.5V40H108.207L108.354 40.1464L108 40.5ZM53.5 40.5L53.1464 40.1464L53.2929 40H53.5V40.5ZM41.1667 55.5C41.1667 56.9728 39.9728 58.1667 38.5 58.1667C37.0272 58.1667 35.8333 56.9728 35.8333 55.5C35.8333 54.0272 37.0272 52.8333 38.5 52.8333C39.9728 52.8333 41.1667 54.0272 41.1667 55.5ZM70.6667 27.75C70.6667 29.2228 69.4728 30.4167 68 30.4167C66.5272 30.4167 65.3333 29.2228 65.3333 27.75C65.3333 26.2772 66.5272 25.0833 68 25.0833C69.4728 25.0833 70.6667 26.2772 70.6667 27.75ZM34 48V48.5H33.7929L33.6464 48.3536L34 48ZM28.1667 39.5C28.1667 40.9728 26.9728 42.1667 25.5 42.1667C24.0272 42.1667 22.8333 40.9728 22.8333 39.5C22.8333 38.0272 24.0272 36.8333 25.5 36.8333C26.9728 36.8333 28.1667 38.0272 28.1667 39.5ZM35 26V25.5H35.2071L35.3536 25.6464L35 26ZM17 26V26.5H16.7929L16.6464 26.3536L17 26ZM5.66667 12C5.66667 13.4728 4.47276 14.6667 3 14.6667C1.52724 14.6667 0.333333 13.4728 0.333333 12C0.333333 10.5272 1.52724 9.33333 3 9.33333C4.47276 9.33333 5.66667 10.5272 5.66667 12ZM156.5 49.5H116.5V48.5H156.5V49.5ZM116.146 49.3536L107.646 40.8536L108.354 40.1464L116.854 48.6464L116.146 49.3536ZM108 41H80.75V40H108V41ZM80.75 41H53.5V40H80.75V41ZM80.3964 40.8536L67.6464 28.1036L68.3536 27.3964L81.1036 40.1464L80.3964 40.8536ZM46.3536 48.3536L38.8536 55.8536L38.1464 55.1464L45.6464 47.6464L46.3536 48.3536ZM46 48.5H34V47.5H46V48.5ZM33.6464 48.3536L25.1464 39.8536L25.8536 39.1464L34.3536 47.6464L33.6464 48.3536ZM53.8536 40.8536L51.8536 42.8536L51.1464 42.1464L53.1464 40.1464L53.8536 40.8536ZM51.8536 42.8536L46.3536 48.3536L45.6464 47.6464L51.1464 42.1464L51.8536 42.8536ZM51.1464 42.8536L34.6464 26.3536L35.3536 25.6464L51.8536 42.1464L51.1464 42.8536ZM35 26.5H17V25.5H35V26.5ZM16.6464 26.3536L2.64645 12.3536L3.35355 11.6464L17.3536 25.6464L16.6464 26.3536Z" fill="url(#paint2_linear_651_4)" fill-opacity="0.3"/>
<path d="M27.1667 3C27.1667 4.47276 25.9728 5.66667 24.5 5.66667C23.0272 5.66667 21.8333 4.47276 21.8333 3C21.8333 1.52724 23.0272 0.333333 24.5 0.333333C25.9728 0.333333 27.1667 1.52724 27.1667 3ZM77.9143 3V2.5H78.1214L78.2679 2.64645L77.9143 3ZM119.241 44.3267V44.8267H119.034L118.887 44.6802L119.241 44.3267ZM150.167 44.3267C150.167 45.7995 148.973 46.9934 147.5 46.9934C146.027 46.9934 144.833 45.7995 144.833 44.3267C144.833 42.8539 146.027 41.66 147.5 41.66C148.973 41.66 150.167 42.8539 150.167 44.3267ZM77.9143 23.6633V24.1633H77.7072L77.5608 24.0169L77.9143 23.6633ZM73.751 19.5V19H73.9581L74.1045 19.1464L73.751 19.5ZM51.1667 19.5C51.1667 20.9728 49.9728 22.1667 48.5 22.1667C47.0272 22.1667 45.8333 20.9728 45.8333 19.5C45.8333 18.0272 47.0272 16.8333 48.5 16.8333C49.9728 16.8333 51.1667 18.0272 51.1667 19.5ZM48.1667 8.70717C48.1667 10.1799 46.9728 11.3738 45.5 11.3738C44.0272 11.3738 42.8333 10.1799 42.8333 8.70717C42.8333 7.23441 44.0272 6.0405 45.5 6.0405C46.9728 6.0405 48.1667 7.23441 48.1667 8.70717ZM119.241 43.8267H147.5V44.8267H119.241V43.8267ZM78.2679 2.64645L98.9312 23.3098L98.2241 24.0169L77.5608 3.35355L78.2679 2.64645ZM98.9312 23.3098L119.595 43.9731L118.887 44.6802L98.2241 24.0169L98.9312 23.3098ZM98.5777 24.1633H77.9143V23.1633H98.5777V24.1633ZM77.5608 24.0169L73.3974 19.8536L74.1045 19.1464L78.2679 23.3098L77.5608 24.0169ZM73.751 20H48.5V19H73.751V20ZM24.5 2.5H51.2072V3.5H24.5V2.5ZM51.2072 2.5H77.9143V3.5H51.2072V2.5ZM51.5607 3.35355L45.8536 9.06072L45.1464 8.35362L50.8536 2.64645L51.5607 3.35355Z" fill="url(#paint3_linear_651_4)" fill-opacity="0.3"/>
<g filter="url(#filter0_i_651_4)">
<path d="M259.22 81C183.841 81 157.441 3 157.441 3H361C361 3 334.599 81 259.22 81Z" fill="black"/>
</g>
<defs>
<filter id="filter0_i_651_4" x="157.441" y="-2" width="203.559" height="83" filterUnits="userSpaceOnUse" color-interpolation-filters="sRGB">
<feFlood flood-opacity="0" result="BackgroundImageFix"/>
<feBlend mode="normal" in="SourceGraphic" in2="BackgroundImageFix" result="shape"/>
<feColorMatrix in="SourceAlpha" type="matrix" values="0 0 0 0 0 0 0 0 0 0 0 0 0 0 0 0 0 0 127 0" result="hardAlpha"/>
<feOffset dy="-5"/>
<feGaussianBlur stdDeviation="10"/>
<feComposite in2="hardAlpha" operator="arithmetic" k2="-1" k3="1"/>
<feColorMatrix type="matrix" values="0 0 0 0 0.996078 0 0 0 0 0.00392157 0 0 0 0 0.00392157 0 0 0 0.15 0"/>
<feBlend mode="normal" in2="shape" result="effect1_innerShadow_651_4"/>
</filter>
<linearGradient id="paint0_linear_651_4" x1="361" y1="41.625" x2="479" y2="41.625" gradientUnits="userSpaceOnUse">
<stop stop-color="#FE0101"/>
<stop offset="1" stop-color="#00B8FF"/>
</linearGradient>
<linearGradient id="paint1_linear_651_4" x1="370" y1="23.6633" x2="493" y2="23.6633" gradientUnits="userSpaceOnUse">
<stop stop-color="#FE0101"/>
<stop offset="1" stop-color="#00B8FF"/>
</linearGradient>
<linearGradient id="paint2_linear_651_4" x1="156.5" y1="41.625" x2="38.5" y2="41.625" gradientUnits="userSpaceOnUse">
<stop stop-color="#FE0101"/>
<stop offset="1" stop-color="#00B8FF"/>
</linearGradient>
<linearGradient id="paint3_linear_651_4" x1="147.5" y1="23.6633" x2="24.5" y2="23.6633" gradientUnits="userSpaceOnUse">
<stop stop-color="#FE0101"/>
<stop offset="1" stop-color="#00B8FF"/>
</linearGradient>
</defs>
</svg>
