<svg width="149" height="50" viewBox="0 0 149 50" fill="none" xmlns="http://www.w3.org/2000/svg">
<path d="M117.087 17.4921L111.177 20.9039C110.691 21.1844 110.392 21.7028 110.392 22.2638V29.0874C110.392 29.6484 110.691 30.1668 111.177 30.4473L117.087 33.8591C117.573 34.1396 118.171 34.1396 118.657 33.8591L124.566 30.4473C125.052 30.1668 125.351 29.6484 125.351 29.0874V22.2638C125.351 21.7028 125.052 21.1844 124.566 20.9039L118.657 17.4921C118.171 17.2116 117.573 17.2116 117.087 17.4921Z" stroke="url(#paint0_linear_701_37)" stroke-opacity="0.35" stroke-width="0.3"/>
<path d="M118.171 5.00634L107.23 11.3184C105.923 12.0721 105.119 13.4656 105.119 14.9737V27.5918C105.119 29.1 105.923 30.4935 107.23 31.2471L118.171 37.5592C119.476 38.3121 121.083 38.3121 122.388 37.5592L133.329 31.2471C134.636 30.4935 135.44 29.1 135.44 27.5918V14.9737C135.44 13.4656 134.636 12.0721 133.329 11.3184L122.388 5.00634C121.083 4.25341 119.476 4.25341 118.171 5.00634Z" stroke="url(#paint1_linear_701_37)" stroke-opacity="0.19"/>
<path d="M111.024 12.4643L107.603 14.4395C107.341 14.5907 107.18 14.8699 107.18 15.1721V19.1227C107.18 19.4249 107.341 19.7041 107.603 19.8553L111.024 21.8305C111.286 21.9816 111.608 21.9816 111.87 21.8305L115.291 19.8553C115.553 19.7041 115.714 19.4249 115.714 19.1227V15.1721C115.714 14.8699 115.553 14.5907 115.291 14.4395L111.87 12.4643C111.608 12.3132 111.286 12.3132 111.024 12.4643Z" stroke="url(#paint2_linear_701_37)" stroke-opacity="0.4" stroke-width="0.3"/>
<path d="M127.443 9.61736L123.711 11.7722C123.421 11.9395 123.242 12.2486 123.242 12.5832V16.8929C123.242 17.2274 123.421 17.5366 123.711 17.7039L127.443 19.8587C127.733 20.026 128.09 20.026 128.379 19.8587L132.112 17.7039C132.401 17.5366 132.58 17.2274 132.58 16.8929V12.5832C132.58 12.2486 132.401 11.9395 132.112 11.7722L128.379 9.61736C128.09 9.45008 127.733 9.45008 127.443 9.61736Z" stroke="url(#paint3_linear_701_37)" stroke-opacity="0.45" stroke-width="0.3"/>
<path d="M137.08 18.1123L133.348 20.2671C133.058 20.4344 132.88 20.7436 132.88 21.0781V25.3878C132.88 25.7224 133.058 26.0315 133.348 26.1988L137.08 28.3536C137.37 28.5209 137.727 28.5209 138.017 28.3536L141.749 26.1988C142.039 26.0315 142.217 25.7224 142.217 25.3878V21.0781C142.217 20.7436 142.039 20.4344 141.749 20.2671L138.017 18.1123C137.727 17.945 137.37 17.945 137.08 18.1123Z" stroke="url(#paint4_linear_701_37)" stroke-opacity="0.45" stroke-width="0.3"/>
<path d="M120.637 35.6455C120.303 35.4547 119.893 35.4547 119.559 35.6455L117.835 36.631C117.496 36.8244 117.287 37.1844 117.287 37.5743V39.5258C117.287 39.9157 117.496 40.2756 117.835 40.4691L119.559 41.4545C119.893 41.6454 120.303 41.6454 120.637 41.4545L122.362 40.4691C122.7 40.2756 122.909 39.9157 122.909 39.5258V37.5743C122.909 37.1844 122.7 36.8244 122.362 36.631L120.637 35.6455Z" fill="white" fill-opacity="0.1"/>
<path d="M108.984 42.2429C108.679 42.09 108.319 42.09 108.013 42.2429L107.599 42.4497C107.231 42.6337 106.999 43.0099 106.999 43.4215V43.5785C106.999 43.9901 107.231 44.3663 107.599 44.5503L108.013 44.7571C108.319 44.91 108.679 44.91 108.984 44.7571L109.398 44.5503C109.766 44.3663 109.999 43.9901 109.999 43.5785V43.4215C109.999 43.0099 109.766 42.6337 109.398 42.4497L108.984 42.2429Z" fill="white" fill-opacity="0.1"/>
<path d="M132.886 30.8541C132.542 30.6477 132.112 30.6477 131.768 30.8541L130.846 31.4069C130.519 31.6033 130.319 31.9569 130.319 32.3386V33.5177C130.319 33.8993 130.519 34.2529 130.846 34.4493L131.768 35.0021C132.112 35.2085 132.542 35.2085 132.886 35.0021L133.807 34.4493C134.134 34.2529 134.334 33.8993 134.334 33.5177V32.3386C134.334 31.9569 134.134 31.6033 133.807 31.4069L132.886 30.8541Z" fill="white" fill-opacity="0.1"/>
<path d="M120.839 19.0822C120.495 18.8758 120.065 18.8758 119.721 19.0822L118.799 19.635C118.472 19.8314 118.272 20.185 118.272 20.5666V21.7458C118.272 22.1274 118.472 22.481 118.799 22.6774L119.721 23.2302C120.065 23.4366 120.495 23.4366 120.839 23.2302L121.76 22.6774C122.087 22.481 122.288 22.1274 122.288 21.7458V20.5666C122.288 20.185 122.087 19.8314 121.76 19.635L120.839 19.0822Z" fill="white" fill-opacity="0.1"/>
<path d="M133.669 21.1892C133.335 20.9984 132.924 20.9984 132.59 21.1892L130.866 22.1747C130.527 22.3681 130.319 22.7281 130.319 23.118V25.0695C130.319 25.4594 130.527 25.8193 130.866 26.0128L132.59 26.9982C132.924 27.1891 133.335 27.1891 133.669 26.9982L135.393 26.0128C135.732 25.8193 135.94 25.4594 135.94 25.0695V23.118C135.94 22.7281 135.732 22.3681 135.393 22.1747L133.669 21.1892Z" fill="white" fill-opacity="0.1"/>
<path d="M127.983 2.02779L120.829 6.11564C119.866 6.6658 119.272 7.68965 119.272 8.79852V16.9015C119.272 18.0103 119.866 19.0342 120.829 19.5843L127.983 23.6722C128.933 24.215 130.099 24.215 131.049 23.6722L138.203 19.5843C139.166 19.0342 139.76 18.0103 139.76 16.9015V8.79851C139.76 7.68965 139.166 6.6658 138.203 6.11564L131.049 2.02779C130.099 1.48495 128.933 1.48495 127.983 2.02779Z" stroke="url(#paint5_linear_701_37)" stroke-opacity="0.12" stroke-width="2"/>
<path d="M146.365 17.1539L144.479 18.2425C144.356 18.3138 144.28 18.4455 144.28 18.5879V20.7651C144.28 20.9076 144.356 21.0393 144.479 21.1105L146.365 22.1991C146.488 22.2704 146.64 22.2704 146.764 22.1991L148.649 21.1105C148.773 21.0393 148.849 20.9076 148.849 20.7651V18.5879C148.849 18.4455 148.773 18.3138 148.649 18.2425L146.764 17.1539C146.64 17.0827 146.488 17.0827 146.365 17.1539Z" stroke="url(#paint6_linear_701_37)" stroke-opacity="0.45" stroke-width="0.3"/>
<path d="M106.199 28.7619L99.9789 32.3533C99.4651 32.65 99.1485 33.1983 99.1485 33.7916V40.9744C99.1485 41.5677 99.4651 42.116 99.9789 42.4126L106.199 46.0041C106.713 46.3007 107.346 46.3007 107.86 46.0041L114.081 42.4126C114.595 42.116 114.911 41.5677 114.911 40.9744V33.7916C114.911 33.1983 114.595 32.65 114.081 32.3533L107.86 28.7619C107.346 28.4653 106.713 28.4653 106.199 28.7619Z" stroke="url(#paint7_linear_701_37)" stroke-opacity="0.45" stroke-width="0.3"/>
<path d="M99.7822 46.2759L98.4159 46.959C98.2521 47.0409 98.1485 47.2084 98.1485 47.3917V48.6083C98.1485 48.7916 98.2521 48.9591 98.4159 49.041L99.7822 49.7241C99.9184 49.7922 100.079 49.7922 100.215 49.7241L101.581 49.041C101.745 48.9591 101.849 48.7916 101.849 48.6083V47.3917C101.849 47.2084 101.745 47.0409 101.581 46.959L100.215 46.2759C100.079 46.2078 99.9184 46.2078 99.7822 46.2759Z" stroke="url(#paint8_linear_701_37)" stroke-opacity="0.35" stroke-width="0.3"/>
<path d="M31.9104 17.4921L37.8199 20.9039C38.3057 21.1844 38.605 21.7028 38.605 22.2638V29.0874C38.605 29.6484 38.3057 30.1668 37.8199 30.4473L31.9104 33.8591C31.4246 34.1396 30.826 34.1396 30.3402 33.8591L24.4307 30.4473C23.9449 30.1668 23.6456 29.6484 23.6456 29.0874V22.2638C23.6456 21.7028 23.9449 21.1844 24.4307 20.9039L30.3402 17.4921C30.826 17.2116 31.4246 17.2116 31.9104 17.4921Z" stroke="url(#paint9_linear_701_37)" stroke-opacity="0.35" stroke-width="0.3"/>
<path d="M30.8264 5.00634L41.7673 11.3184C43.0737 12.0721 43.8785 13.4656 43.8785 14.9737V27.5918C43.8785 29.1 43.0737 30.4935 41.7673 31.2471L30.8264 37.5592C29.5213 38.3121 27.9138 38.3121 26.6087 37.5592L15.6678 31.2471C14.3615 30.4935 13.5566 29.1 13.5566 27.5918V14.9737C13.5566 13.4656 14.3615 12.0721 15.6678 11.3184L26.6087 5.00634C27.9138 4.25341 29.5213 4.25341 30.8264 5.00634Z" stroke="url(#paint10_linear_701_37)" stroke-opacity="0.19"/>
<path d="M37.9729 12.4643L41.3942 14.4395C41.656 14.5907 41.8172 14.8699 41.8172 15.1721V19.1227C41.8172 19.4249 41.656 19.7041 41.3942 19.8553L37.9729 21.8305C37.7112 21.9816 37.3888 21.9816 37.127 21.8305L33.7058 19.8553C33.444 19.7041 33.2828 19.4249 33.2828 19.1227V15.1721C33.2828 14.8699 33.444 14.5907 33.7058 14.4395L37.127 12.4643C37.3888 12.3132 37.7112 12.3132 37.9729 12.4643Z" stroke="url(#paint11_linear_701_37)" stroke-opacity="0.4" stroke-width="0.3"/>
<path d="M21.5541 9.61736L25.2864 11.7722C25.5761 11.9395 25.7546 12.2486 25.7546 12.5832V16.8929C25.7546 17.2274 25.5761 17.5366 25.2864 17.7039L21.5541 19.8587C21.2643 20.026 20.9074 20.026 20.6176 19.8587L16.8853 17.7039C16.5956 17.5366 16.4171 17.2274 16.4171 16.8929V12.5832C16.4171 12.2486 16.5956 11.9395 16.8853 11.7722L20.6176 9.61736C20.9074 9.45008 21.2643 9.45008 21.5541 9.61736Z" stroke="url(#paint12_linear_701_37)" stroke-opacity="0.45" stroke-width="0.3"/>
<path d="M11.9168 18.1123L15.6492 20.2671C15.9389 20.4344 16.1174 20.7436 16.1174 21.0781V25.3878C16.1174 25.7224 15.9389 26.0315 15.6492 26.1988L11.9168 28.3536C11.6271 28.5209 11.2701 28.5209 10.9804 28.3536L7.2481 26.1988C6.95837 26.0315 6.77988 25.7224 6.77988 25.3878V21.0781C6.77988 20.7436 6.95837 20.4344 7.2481 20.2671L10.9804 18.1123C11.2701 17.945 11.6271 17.945 11.9168 18.1123Z" stroke="url(#paint13_linear_701_37)" stroke-opacity="0.45" stroke-width="0.3"/>
<path d="M28.3598 35.6455C28.6938 35.4547 29.1038 35.4547 29.4379 35.6455L31.1623 36.631C31.5009 36.8244 31.7098 37.1844 31.7098 37.5743V39.5258C31.7098 39.9157 31.5009 40.2756 31.1623 40.4691L29.4379 41.4545C29.1038 41.6454 28.6938 41.6454 28.3598 41.4545L26.6353 40.4691C26.2968 40.2756 26.0879 39.9157 26.0879 39.5258V37.5743C26.0879 37.1844 26.2968 36.8244 26.6353 36.631L28.3598 35.6455Z" fill="white" fill-opacity="0.1"/>
<path d="M40.0127 42.2429C40.3185 42.09 40.6785 42.09 40.9844 42.2429L41.398 42.4497C41.766 42.6337 41.9985 43.0099 41.9985 43.4215V43.5785C41.9985 43.9901 41.766 44.3663 41.398 44.5503L40.9844 44.7571C40.6785 44.91 40.3185 44.91 40.0127 44.7571L39.5991 44.5503C39.231 44.3663 38.9985 43.9901 38.9985 43.5785V43.4215C38.9985 43.0099 39.231 42.6337 39.5991 42.4497L40.0127 42.2429Z" fill="white" fill-opacity="0.1"/>
<path d="M16.1114 30.8541C16.4555 30.6477 16.8853 30.6477 17.2294 30.8541L18.1508 31.4069C18.478 31.6033 18.6782 31.9569 18.6782 32.3386V33.5177C18.6782 33.8993 18.478 34.2529 18.1508 34.4493L17.2294 35.0021C16.8853 35.2085 16.4555 35.2085 16.1114 35.0021L15.1901 34.4493C14.8628 34.2529 14.6626 33.8993 14.6626 33.5177V32.3386C14.6626 31.9569 14.8628 31.6033 15.1901 31.4069L16.1114 30.8541Z" fill="white" fill-opacity="0.1"/>
<path d="M28.1583 19.0822C28.5024 18.8758 28.9322 18.8758 29.2763 19.0822L30.1976 19.635C30.5249 19.8314 30.7251 20.185 30.7251 20.5666V21.7458C30.7251 22.1274 30.5249 22.481 30.1976 22.6774L29.2763 23.2302C28.9322 23.4366 28.5024 23.4366 28.1583 23.2302L27.2369 22.6774C26.9097 22.481 26.7095 22.1274 26.7095 21.7458V20.5666C26.7095 20.185 26.9097 19.8314 27.2369 19.635L28.1583 19.0822Z" fill="white" fill-opacity="0.1"/>
<path d="M15.3286 21.1892C15.6626 20.9984 16.0726 20.9984 16.4066 21.1892L18.1311 22.1747C18.4696 22.3681 18.6785 22.7281 18.6785 23.118V25.0695C18.6785 25.4594 18.4696 25.8193 18.1311 26.0128L16.4066 26.9982C16.0726 27.1891 15.6626 27.1891 15.3286 26.9982L13.6041 26.0128C13.2655 25.8193 13.0566 25.4594 13.0566 25.0695V23.118C13.0566 22.7281 13.2655 22.3681 13.6041 22.1747L15.3286 21.1892Z" fill="white" fill-opacity="0.1"/>
<path d="M21.0141 2.02779L28.1679 6.11564C29.1306 6.6658 29.7248 7.68965 29.7248 8.79852V16.9015C29.7248 18.0103 29.1306 19.0342 28.1679 19.5843L21.0141 23.6722C20.0642 24.215 18.8979 24.215 17.948 23.6722L10.7942 19.5843C9.83147 19.0342 9.2373 18.0103 9.2373 16.9015V8.79851C9.2373 7.68965 9.83147 6.6658 10.7942 6.11564L17.948 2.02779C18.8979 1.48495 20.0642 1.48495 21.0141 2.02779Z" stroke="url(#paint14_linear_701_37)" stroke-opacity="0.12" stroke-width="2"/>
<path d="M2.6323 17.1539L4.5178 18.2425C4.6412 18.3138 4.71722 18.4455 4.71722 18.5879V20.7651C4.71722 20.9076 4.6412 21.0393 4.5178 21.1105L2.6323 22.1991C2.5089 22.2704 2.35686 22.2704 2.23345 22.1991L0.347959 21.1105C0.224555 21.0393 0.148535 20.9076 0.148535 20.7651V18.5879C0.148535 18.4455 0.224555 18.3138 0.347959 18.2425L2.23345 17.1539C2.35686 17.0827 2.5089 17.0827 2.6323 17.1539Z" stroke="url(#paint15_linear_701_37)" stroke-opacity="0.45" stroke-width="0.3"/>
<path d="M42.7976 28.7619L49.0182 32.3533C49.532 32.65 49.8485 33.1983 49.8485 33.7916V40.9744C49.8485 41.5677 49.532 42.116 49.0182 42.4126L42.7976 46.0041C42.2838 46.3007 41.6507 46.3007 41.1369 46.0041L34.9164 42.4126C34.4026 42.116 34.086 41.5677 34.086 40.9744V33.7916C34.086 33.1983 34.4026 32.65 34.9164 32.3533L41.1369 28.7619C41.6507 28.4653 42.2838 28.4653 42.7976 28.7619Z" stroke="url(#paint16_linear_701_37)" stroke-opacity="0.45" stroke-width="0.3"/>
<path d="M49.2149 46.2759L50.5811 46.959C50.745 47.0409 50.8485 47.2084 50.8485 47.3917V48.6083C50.8485 48.7916 50.745 48.9591 50.5811 49.041L49.2149 49.7241C49.0787 49.7922 48.9184 49.7922 48.7822 49.7241L47.4159 49.041C47.2521 48.9591 47.1485 48.7916 47.1485 48.6083V47.3917C47.1485 47.2084 47.2521 47.0409 47.4159 46.959L48.7822 46.2759C48.9184 46.2078 49.0787 46.2078 49.2149 46.2759Z" stroke="url(#paint17_linear_701_37)" stroke-opacity="0.35" stroke-width="0.3"/>
<defs>
<linearGradient id="paint0_linear_701_37" x1="113.852" y1="32.1755" x2="121.699" y2="19.2096" gradientUnits="userSpaceOnUse">
<stop stop-color="#FF0000"/>
<stop offset="1" stop-color="#00B9FF"/>
</linearGradient>
<linearGradient id="paint1_linear_701_37" x1="112.028" y1="34.6148" x2="128.118" y2="8.00982" gradientUnits="userSpaceOnUse">
<stop stop-color="#FF0000"/>
<stop offset="1" stop-color="#00B9FF"/>
</linearGradient>
<linearGradient id="paint2_linear_701_37" x1="109.12" y1="20.9105" x2="113.663" y2="13.404" gradientUnits="userSpaceOnUse">
<stop stop-color="#FF0000"/>
<stop offset="1" stop-color="#00B9FF"/>
</linearGradient>
<linearGradient id="paint3_linear_701_37" x1="125.372" y1="18.8433" x2="130.329" y2="10.6543" gradientUnits="userSpaceOnUse">
<stop stop-color="#FF0000"/>
<stop offset="1" stop-color="#00B9FF"/>
</linearGradient>
<linearGradient id="paint4_linear_701_37" x1="135.01" y1="27.3382" x2="139.966" y2="19.1492" gradientUnits="userSpaceOnUse">
<stop stop-color="#FF0000"/>
<stop offset="1" stop-color="#00B9FF"/>
</linearGradient>
<linearGradient id="paint5_linear_701_37" x1="123.592" y1="22.3306" x2="134.983" y2="3.31491" gradientUnits="userSpaceOnUse">
<stop stop-color="#FF0000"/>
<stop offset="1" stop-color="#00B9FF"/>
</linearGradient>
<linearGradient id="paint6_linear_701_37" x1="145.282" y1="21.7504" x2="147.785" y2="17.6135" gradientUnits="userSpaceOnUse">
<stop stop-color="#FF0000"/>
<stop offset="1" stop-color="#00B9FF"/>
</linearGradient>
<linearGradient id="paint7_linear_701_37" x1="102.798" y1="44.225" x2="111.059" y2="30.5767" gradientUnits="userSpaceOnUse">
<stop stop-color="#FF0000"/>
<stop offset="1" stop-color="#00B9FF"/>
</linearGradient>
<linearGradient id="paint8_linear_701_37" x1="98.9448" y1="49.4756" x2="100.598" y2="46.3207" gradientUnits="userSpaceOnUse">
<stop stop-color="#FF0000"/>
<stop offset="1" stop-color="#00B9FF"/>
</linearGradient>
<linearGradient id="paint9_linear_701_37" x1="35.1453" y1="32.1755" x2="27.2978" y2="19.2096" gradientUnits="userSpaceOnUse">
<stop stop-color="#FF0000"/>
<stop offset="1" stop-color="#00B9FF"/>
</linearGradient>
<linearGradient id="paint10_linear_701_37" x1="36.9691" y1="34.6148" x2="20.8786" y2="8.00982" gradientUnits="userSpaceOnUse">
<stop stop-color="#FF0000"/>
<stop offset="1" stop-color="#00B9FF"/>
</linearGradient>
<linearGradient id="paint11_linear_701_37" x1="39.8774" y1="20.9105" x2="35.3341" y2="13.404" gradientUnits="userSpaceOnUse">
<stop stop-color="#FF0000"/>
<stop offset="1" stop-color="#00B9FF"/>
</linearGradient>
<linearGradient id="paint12_linear_701_37" x1="23.6248" y1="18.8433" x2="18.6685" y2="10.6543" gradientUnits="userSpaceOnUse">
<stop stop-color="#FF0000"/>
<stop offset="1" stop-color="#00B9FF"/>
</linearGradient>
<linearGradient id="paint13_linear_701_37" x1="13.9876" y1="27.3382" x2="9.03127" y2="19.1492" gradientUnits="userSpaceOnUse">
<stop stop-color="#FF0000"/>
<stop offset="1" stop-color="#00B9FF"/>
</linearGradient>
<linearGradient id="paint14_linear_701_37" x1="25.4052" y1="22.3306" x2="14.0142" y2="3.31491" gradientUnits="userSpaceOnUse">
<stop stop-color="#FF0000"/>
<stop offset="1" stop-color="#00B9FF"/>
</linearGradient>
<linearGradient id="paint15_linear_701_37" x1="3.7155" y1="21.7504" x2="1.21167" y2="17.6135" gradientUnits="userSpaceOnUse">
<stop stop-color="#FF0000"/>
<stop offset="1" stop-color="#00B9FF"/>
</linearGradient>
<linearGradient id="paint16_linear_701_37" x1="46.1988" y1="44.225" x2="37.9384" y2="30.5767" gradientUnits="userSpaceOnUse">
<stop stop-color="#FF0000"/>
<stop offset="1" stop-color="#00B9FF"/>
</linearGradient>
<linearGradient id="paint17_linear_701_37" x1="50.0523" y1="49.4756" x2="48.3987" y2="46.3207" gradientUnits="userSpaceOnUse">
<stop stop-color="#FF0000"/>
<stop offset="1" stop-color="#00B9FF"/>
</linearGradient>
</defs>
</svg>
