<svg width="136" height="52" viewBox="0 0 136 52" fill="none" xmlns="http://www.w3.org/2000/svg">
<path d="M104.088 17.4921L98.1787 20.9039C97.6928 21.1844 97.3936 21.7028 97.3936 22.2638V29.0874C97.3936 29.6484 97.6928 30.1668 98.1787 30.4473L104.088 33.8591C104.574 34.1396 105.173 34.1396 105.658 33.8591L111.568 30.4473C112.054 30.1668 112.353 29.6484 112.353 29.0874V22.2638C112.353 21.7028 112.054 21.1844 111.568 20.9039L105.658 17.4921C105.173 17.2116 104.574 17.2116 104.088 17.4921Z" stroke="url(#paint0_linear_701_37)" stroke-opacity="0.3" stroke-width="0.3"/>
<path d="M105.172 5.00634L94.2312 11.3184C92.9249 12.0721 92.12 13.4656 92.12 14.9737V27.5918C92.12 29.1 92.9249 30.4935 94.2312 31.2471L105.172 37.5592C106.477 38.3121 108.085 38.3121 109.39 37.5592L120.331 31.2471C121.637 30.4935 122.442 29.1 122.442 27.5918V14.9737C122.442 13.4656 121.637 12.0721 120.331 11.3184L109.39 5.00634C108.085 4.25341 106.477 4.25341 105.172 5.00634Z" stroke="url(#paint1_linear_701_37)" stroke-opacity="0.14"/>
<path d="M98.0256 12.4643L94.6043 14.4395C94.3426 14.5907 94.1814 14.8699 94.1814 15.1721V19.1227C94.1814 19.4249 94.3426 19.7041 94.6043 19.8553L98.0256 21.8305C98.2873 21.9816 98.6098 21.9816 98.8715 21.8305L102.293 19.8553C102.554 19.7041 102.716 19.4249 102.716 19.1227V15.1721C102.716 14.8699 102.554 14.5907 102.293 14.4395L98.8715 12.4643C98.6098 12.3132 98.2873 12.3132 98.0256 12.4643Z" stroke="url(#paint2_linear_701_37)" stroke-opacity="0.35" stroke-width="0.3"/>
<path d="M114.444 9.61736L110.712 11.7722C110.422 11.9395 110.244 12.2486 110.244 12.5832V16.8929C110.244 17.2274 110.422 17.5366 110.712 17.7039L114.444 19.8587C114.734 20.026 115.091 20.026 115.381 19.8587L119.113 17.7039C119.403 17.5366 119.581 17.2274 119.581 16.8929V12.5832C119.581 12.2486 119.403 11.9395 119.113 11.7722L115.381 9.61736C115.091 9.45008 114.734 9.45008 114.444 9.61736Z" stroke="url(#paint3_linear_701_37)" stroke-opacity="0.4" stroke-width="0.3"/>
<path d="M124.082 18.1123L120.349 20.2671C120.06 20.4344 119.881 20.7436 119.881 21.0781V25.3878C119.881 25.7224 120.06 26.0315 120.349 26.1988L124.082 28.3536C124.371 28.5209 124.728 28.5209 125.018 28.3536L128.75 26.1988C129.04 26.0315 129.219 25.7224 129.219 25.3878V21.0781C129.219 20.7436 129.04 20.4344 128.75 20.2671L125.018 18.1123C124.728 17.945 124.371 17.945 124.082 18.1123Z" stroke="url(#paint4_linear_701_37)" stroke-opacity="0.4" stroke-width="0.3"/>
<path d="M112.639 35.6455C112.305 35.4547 111.895 35.4547 111.561 35.6455L109.836 36.631C109.498 36.8244 109.289 37.1844 109.289 37.5743V39.5258C109.289 39.9157 109.498 40.2756 109.836 40.4691L111.561 41.4545C111.895 41.6454 112.305 41.6454 112.639 41.4545L114.363 40.4691C114.702 40.2756 114.911 39.9157 114.911 39.5258V37.5743C114.911 37.1844 114.702 36.8244 114.363 36.631L112.639 35.6455Z" fill="white" fill-opacity="0.05"/>
<path d="M106.234 45.3104C105.89 45.1039 105.46 45.1039 105.116 45.3104L104.195 45.8632C103.868 46.0595 103.667 46.4132 103.667 46.7948V47.9739C103.667 48.3555 103.868 48.7092 104.195 48.9055L105.116 49.4583C105.46 49.6648 105.89 49.6648 106.234 49.4583L107.156 48.9055C107.483 48.7092 107.683 48.3555 107.683 47.9739V46.7948C107.683 46.4132 107.483 46.0595 107.156 45.8632L106.234 45.3104Z" fill="white" fill-opacity="0.05"/>
<path d="M119.887 30.8541C119.543 30.6477 119.113 30.6477 118.769 30.8541L117.848 31.4069C117.521 31.6033 117.32 31.9569 117.32 32.3386V33.5177C117.32 33.8993 117.521 34.2529 117.848 34.4493L118.769 35.0021C119.113 35.2085 119.543 35.2085 119.887 35.0021L120.808 34.4493C121.136 34.2529 121.336 33.8993 121.336 33.5177V32.3386C121.336 31.9569 121.136 31.6033 120.808 31.4069L119.887 30.8541Z" fill="white" fill-opacity="0.05"/>
<path d="M107.84 38.0822C107.496 37.8758 107.066 37.8758 106.722 38.0822L105.801 38.635C105.474 38.8314 105.273 39.185 105.273 39.5666V40.7458C105.273 41.1274 105.474 41.481 105.801 41.6774L106.722 42.2302C107.066 42.4366 107.496 42.4366 107.84 42.2302L108.762 41.6774C109.089 41.481 109.289 41.1274 109.289 40.7458V39.5666C109.289 39.185 109.089 38.8314 108.762 38.635L107.84 38.0822Z" fill="white" fill-opacity="0.05"/>
<path d="M120.67 21.1892C120.336 20.9984 119.926 20.9984 119.592 21.1892L117.867 22.1747C117.529 22.3681 117.32 22.7281 117.32 23.118V25.0695C117.32 25.4594 117.529 25.8193 117.867 26.0128L119.592 26.9982C119.926 27.1891 120.336 27.1891 120.67 26.9982L122.394 26.0128C122.733 25.8193 122.942 25.4594 122.942 25.0695V23.118C122.942 22.7281 122.733 22.3681 122.394 22.1747L120.67 21.1892Z" fill="white" fill-opacity="0.05"/>
<path d="M114.984 2.02779L107.831 6.11564C106.868 6.6658 106.274 7.68965 106.274 8.79852V16.9015C106.274 18.0103 106.868 19.0342 107.831 19.5843L114.984 23.6722C115.934 24.215 117.101 24.215 118.051 23.6722L125.204 19.5843C126.167 19.0342 126.761 18.0103 126.761 16.9015V8.79851C126.761 7.68965 126.167 6.6658 125.204 6.11564L118.051 2.02779C117.101 1.48495 115.934 1.48495 114.984 2.02779Z" stroke="url(#paint5_linear_701_37)" stroke-opacity="0.07" stroke-width="2"/>
<path d="M133.366 17.1539L131.481 18.2425C131.357 18.3138 131.281 18.4455 131.281 18.5879V20.7651C131.281 20.9076 131.357 21.0393 131.481 21.1105L133.366 22.1991C133.49 22.2704 133.642 22.2704 133.765 22.1991L135.651 21.1105C135.774 21.0393 135.85 20.9076 135.85 20.7651V18.5879C135.85 18.4455 135.774 18.3138 135.651 18.2425L133.765 17.1539C133.642 17.0827 133.49 17.0827 133.366 17.1539Z" stroke="url(#paint6_linear_701_37)" stroke-opacity="0.4" stroke-width="0.3"/>
<path d="M93.2009 28.7619L86.9804 32.3533C86.4665 32.65 86.15 33.1983 86.15 33.7916V40.9744C86.15 41.5677 86.4665 42.116 86.9804 42.4126L93.2009 46.0041C93.7147 46.3007 94.3478 46.3007 94.8616 46.0041L101.082 42.4126C101.596 42.116 101.912 41.5677 101.912 40.9744V33.7916C101.912 33.1983 101.596 32.65 101.082 32.3533L94.8616 28.7619C94.3478 28.4653 93.7147 28.4653 93.2009 28.7619Z" stroke="url(#paint7_linear_701_37)" stroke-opacity="0.4" stroke-width="0.3"/>
<path d="M97.4032 45.2878L95.2261 46.5448C95.0764 46.6312 94.9842 46.7909 94.9842 46.9638V49.4778C94.9842 49.6506 95.0764 49.8103 95.2261 49.8967L97.4032 51.1537C97.5529 51.2401 97.7373 51.2401 97.887 51.1537L100.064 49.8967C100.214 49.8103 100.306 49.6506 100.306 49.4778V46.9638C100.306 46.7909 100.214 46.6312 100.064 46.5448L97.887 45.2878C97.7373 45.2014 97.5529 45.2014 97.4032 45.2878Z" stroke="url(#paint8_linear_701_37)" stroke-opacity="0.3" stroke-width="0.3"/>
<path d="M31.9118 17.4921L37.8213 20.9039C38.3072 21.1844 38.6064 21.7028 38.6064 22.2638V29.0874C38.6064 29.6484 38.3072 30.1668 37.8213 30.4473L31.9118 33.8591C31.426 34.1396 30.8275 34.1396 30.3417 33.8591L24.4322 30.4473C23.9463 30.1668 23.6471 29.6484 23.6471 29.0874V22.2638C23.6471 21.7028 23.9463 21.1844 24.4322 20.9039L30.3417 17.4921C30.8275 17.2116 31.426 17.2116 31.9118 17.4921Z" stroke="url(#paint9_linear_701_37)" stroke-opacity="0.3" stroke-width="0.3"/>
<path d="M30.8279 5.00634L41.7688 11.3184C43.0751 12.0721 43.88 13.4656 43.88 14.9737V27.5918C43.88 29.1 43.0751 30.4935 41.7688 31.2471L30.8279 37.5592C29.5228 38.3121 27.9153 38.3121 26.6102 37.5592L15.6693 31.2471C14.3629 30.4935 13.5581 29.1 13.5581 27.5918V14.9737C13.5581 13.4656 14.3629 12.0721 15.6693 11.3184L26.6102 5.00634C27.9153 4.25341 29.5228 4.25341 30.8279 5.00634Z" stroke="url(#paint10_linear_701_37)" stroke-opacity="0.14"/>
<path d="M37.9744 12.4643L41.3957 14.4395C41.6574 14.5907 41.8186 14.8699 41.8186 15.1721V19.1227C41.8186 19.4249 41.6574 19.7041 41.3957 19.8553L37.9744 21.8305C37.7127 21.9816 37.3902 21.9816 37.1285 21.8305L33.7072 19.8553C33.4455 19.7041 33.2843 19.4249 33.2843 19.1227V15.1721C33.2843 14.8699 33.4455 14.5907 33.7072 14.4395L37.1285 12.4643C37.3902 12.3132 37.7127 12.3132 37.9744 12.4643Z" stroke="url(#paint11_linear_701_37)" stroke-opacity="0.35" stroke-width="0.3"/>
<path d="M21.5555 9.61736L25.2878 11.7722C25.5776 11.9395 25.7561 12.2486 25.7561 12.5832V16.8929C25.7561 17.2274 25.5776 17.5366 25.2878 17.7039L21.5555 19.8587C21.2658 20.026 20.9088 20.026 20.6191 19.8587L16.8868 17.7039C16.597 17.5366 16.4186 17.2274 16.4186 16.8929V12.5832C16.4186 12.2486 16.597 11.9395 16.8868 11.7722L20.6191 9.61736C20.9088 9.45008 21.2658 9.45008 21.5555 9.61736Z" stroke="url(#paint12_linear_701_37)" stroke-opacity="0.4" stroke-width="0.3"/>
<path d="M11.9183 18.1123L15.6506 20.2671C15.9404 20.4344 16.1188 20.7436 16.1188 21.0781V25.3878C16.1188 25.7224 15.9404 26.0315 15.6506 26.1988L11.9183 28.3536C11.6286 28.5209 11.2716 28.5209 10.9819 28.3536L7.24957 26.1988C6.95983 26.0315 6.78135 25.7224 6.78135 25.3878V21.0781C6.78135 20.7436 6.95983 20.4344 7.24957 20.2671L10.9819 18.1123C11.2716 17.945 11.6286 17.945 11.9183 18.1123Z" stroke="url(#paint13_linear_701_37)" stroke-opacity="0.4" stroke-width="0.3"/>
<path d="M23.3613 35.6455C23.6953 35.4547 24.1053 35.4547 24.4393 35.6455L26.1638 36.631C26.5023 36.8244 26.7112 37.1844 26.7112 37.5743V39.5258C26.7112 39.9157 26.5023 40.2756 26.1638 40.4691L24.4393 41.4545C24.1053 41.6454 23.6953 41.6454 23.3613 41.4545L21.6368 40.4691C21.2983 40.2756 21.0894 39.9157 21.0894 39.5258V37.5743C21.0894 37.1844 21.2983 36.8244 21.6368 36.631L23.3613 35.6455Z" fill="white" fill-opacity="0.05"/>
<path d="M29.7657 45.3104C30.1098 45.1039 30.5396 45.1039 30.8837 45.3104L31.805 45.8632C32.1323 46.0595 32.3325 46.4132 32.3325 46.7948V47.9739C32.3325 48.3555 32.1323 48.7092 31.805 48.9055L30.8837 49.4583C30.5396 49.6648 30.1098 49.6648 29.7657 49.4583L28.8444 48.9055C28.5171 48.7092 28.3169 48.3555 28.3169 47.9739V46.7948C28.3169 46.4132 28.5171 46.0595 28.8444 45.8632L29.7657 45.3104Z" fill="white" fill-opacity="0.05"/>
<path d="M16.1129 30.8541C16.457 30.6477 16.8868 30.6477 17.2308 30.8541L18.1522 31.4069C18.4795 31.6033 18.6797 31.9569 18.6797 32.3386V33.5177C18.6797 33.8993 18.4795 34.2529 18.1522 34.4493L17.2308 35.0021C16.8868 35.2085 16.457 35.2085 16.1129 35.0021L15.1915 34.4493C14.8643 34.2529 14.6641 33.8993 14.6641 33.5177V32.3386C14.6641 31.9569 14.8643 31.6033 15.1915 31.4069L16.1129 30.8541Z" fill="white" fill-opacity="0.05"/>
<path d="M28.1598 38.0822C28.5038 37.8758 28.9337 37.8758 29.2777 38.0822L30.1991 38.635C30.5263 38.8314 30.7266 39.185 30.7266 39.5666V40.7458C30.7266 41.1274 30.5263 41.481 30.1991 41.6774L29.2777 42.2302C28.9337 42.4366 28.5038 42.4366 28.1598 42.2302L27.2384 41.6774C26.9112 41.481 26.7109 41.1274 26.7109 40.7458V39.5666C26.7109 39.185 26.9112 38.8314 27.2384 38.635L28.1598 38.0822Z" fill="white" fill-opacity="0.05"/>
<path d="M15.33 21.1892C15.664 20.9984 16.0741 20.9984 16.4081 21.1892L18.1326 22.1747C18.4711 22.3681 18.68 22.7281 18.68 23.118V25.0695C18.68 25.4594 18.4711 25.8193 18.1326 26.0128L16.4081 26.9982C16.0741 27.1891 15.664 27.1891 15.33 26.9982L13.6055 26.0128C13.267 25.8193 13.0581 25.4594 13.0581 25.0695V23.118C13.0581 22.7281 13.267 22.3681 13.6055 22.1747L15.33 21.1892Z" fill="white" fill-opacity="0.05"/>
<path d="M21.0156 2.02779L28.1693 6.11564C29.1321 6.6658 29.7263 7.68965 29.7263 8.79852V16.9015C29.7263 18.0103 29.1321 19.0342 28.1693 19.5843L21.0156 23.6722C20.0656 24.215 18.8994 24.215 17.9494 23.6722L10.7957 19.5843C9.83293 19.0342 9.23877 18.0103 9.23877 16.9015V8.79851C9.23877 7.68965 9.83293 6.6658 10.7957 6.11564L17.9494 2.02779C18.8994 1.48495 20.0656 1.48495 21.0156 2.02779Z" stroke="url(#paint14_linear_701_37)" stroke-opacity="0.07" stroke-width="2"/>
<path d="M2.63377 17.1539L4.51926 18.2425C4.64266 18.3138 4.71869 18.4455 4.71869 18.5879V20.7651C4.71869 20.9076 4.64266 21.0393 4.51926 21.1105L2.63377 22.1991C2.51036 22.2704 2.35832 22.2704 2.23492 22.1991L0.349424 21.1105C0.22602 21.0393 0.15 20.9076 0.15 20.7651V18.5879C0.15 18.4455 0.22602 18.3138 0.349424 18.2425L2.23492 17.1539C2.35832 17.0827 2.51036 17.0827 2.63377 17.1539Z" stroke="url(#paint15_linear_701_37)" stroke-opacity="0.4" stroke-width="0.3"/>
<path d="M42.7991 28.7619L49.0196 32.3533C49.5335 32.65 49.85 33.1983 49.85 33.7916V40.9744C49.85 41.5677 49.5335 42.116 49.0196 42.4126L42.7991 46.0041C42.2853 46.3007 41.6522 46.3007 41.1384 46.0041L34.9179 42.4126C34.404 42.116 34.0875 41.5677 34.0875 40.9744V33.7916C34.0875 33.1983 34.404 32.65 34.9179 32.3533L41.1384 28.7619C41.6522 28.4653 42.2853 28.4653 42.7991 28.7619Z" stroke="url(#paint16_linear_701_37)" stroke-opacity="0.4" stroke-width="0.3"/>
<path d="M38.5968 45.2878L40.7739 46.5448C40.9236 46.6312 41.0158 46.7909 41.0158 46.9638V49.4778C41.0158 49.6506 40.9236 49.8103 40.7739 49.8967L38.5968 51.1537C38.4471 51.2401 38.2627 51.2401 38.113 51.1537L35.9358 49.8967C35.7861 49.8103 35.6939 49.6506 35.6939 49.4778V46.9638C35.6939 46.7909 35.7861 46.6312 35.9358 46.5448L38.113 45.2878C38.2627 45.2014 38.4471 45.2014 38.5968 45.2878Z" stroke="url(#paint17_linear_701_37)" stroke-opacity="0.3" stroke-width="0.3"/>
<defs>
<linearGradient id="paint0_linear_701_37" x1="100.853" y1="32.1755" x2="108.701" y2="19.2096" gradientUnits="userSpaceOnUse">
<stop stop-color="#FF0000"/>
<stop offset="1" stop-color="#00B9FF"/>
</linearGradient>
<linearGradient id="paint1_linear_701_37" x1="99.0294" y1="34.6148" x2="115.12" y2="8.00982" gradientUnits="userSpaceOnUse">
<stop stop-color="#FF0000"/>
<stop offset="1" stop-color="#00B9FF"/>
</linearGradient>
<linearGradient id="paint2_linear_701_37" x1="96.1212" y1="20.9105" x2="100.664" y2="13.404" gradientUnits="userSpaceOnUse">
<stop stop-color="#FF0000"/>
<stop offset="1" stop-color="#00B9FF"/>
</linearGradient>
<linearGradient id="paint3_linear_701_37" x1="112.374" y1="18.8433" x2="117.33" y2="10.6543" gradientUnits="userSpaceOnUse">
<stop stop-color="#FF0000"/>
<stop offset="1" stop-color="#00B9FF"/>
</linearGradient>
<linearGradient id="paint4_linear_701_37" x1="122.011" y1="27.3382" x2="126.967" y2="19.1492" gradientUnits="userSpaceOnUse">
<stop stop-color="#FF0000"/>
<stop offset="1" stop-color="#00B9FF"/>
</linearGradient>
<linearGradient id="paint5_linear_701_37" x1="110.593" y1="22.3306" x2="121.984" y2="3.31491" gradientUnits="userSpaceOnUse">
<stop stop-color="#FF0000"/>
<stop offset="1" stop-color="#00B9FF"/>
</linearGradient>
<linearGradient id="paint6_linear_701_37" x1="132.283" y1="21.7504" x2="134.787" y2="17.6135" gradientUnits="userSpaceOnUse">
<stop stop-color="#FF0000"/>
<stop offset="1" stop-color="#00B9FF"/>
</linearGradient>
<linearGradient id="paint7_linear_701_37" x1="89.7997" y1="44.225" x2="98.0602" y2="30.5767" gradientUnits="userSpaceOnUse">
<stop stop-color="#FF0000"/>
<stop offset="1" stop-color="#00B9FF"/>
</linearGradient>
<linearGradient id="paint8_linear_701_37" x1="96.1641" y1="50.6155" x2="99.0552" y2="45.8386" gradientUnits="userSpaceOnUse">
<stop stop-color="#FF0000"/>
<stop offset="1" stop-color="#00B9FF"/>
</linearGradient>
<linearGradient id="paint9_linear_701_37" x1="35.1467" y1="32.1755" x2="27.2993" y2="19.2096" gradientUnits="userSpaceOnUse">
<stop stop-color="#FF0000"/>
<stop offset="1" stop-color="#00B9FF"/>
</linearGradient>
<linearGradient id="paint10_linear_701_37" x1="36.9706" y1="34.6148" x2="20.8801" y2="8.00982" gradientUnits="userSpaceOnUse">
<stop stop-color="#FF0000"/>
<stop offset="1" stop-color="#00B9FF"/>
</linearGradient>
<linearGradient id="paint11_linear_701_37" x1="39.8788" y1="20.9105" x2="35.3356" y2="13.404" gradientUnits="userSpaceOnUse">
<stop stop-color="#FF0000"/>
<stop offset="1" stop-color="#00B9FF"/>
</linearGradient>
<linearGradient id="paint12_linear_701_37" x1="23.6262" y1="18.8433" x2="18.6699" y2="10.6543" gradientUnits="userSpaceOnUse">
<stop stop-color="#FF0000"/>
<stop offset="1" stop-color="#00B9FF"/>
</linearGradient>
<linearGradient id="paint13_linear_701_37" x1="13.989" y1="27.3382" x2="9.03274" y2="19.1492" gradientUnits="userSpaceOnUse">
<stop stop-color="#FF0000"/>
<stop offset="1" stop-color="#00B9FF"/>
</linearGradient>
<linearGradient id="paint14_linear_701_37" x1="25.4067" y1="22.3306" x2="14.0157" y2="3.31491" gradientUnits="userSpaceOnUse">
<stop stop-color="#FF0000"/>
<stop offset="1" stop-color="#00B9FF"/>
</linearGradient>
<linearGradient id="paint15_linear_701_37" x1="3.71697" y1="21.7504" x2="1.21314" y2="17.6135" gradientUnits="userSpaceOnUse">
<stop stop-color="#FF0000"/>
<stop offset="1" stop-color="#00B9FF"/>
</linearGradient>
<linearGradient id="paint16_linear_701_37" x1="46.2003" y1="44.225" x2="37.9398" y2="30.5767" gradientUnits="userSpaceOnUse">
<stop stop-color="#FF0000"/>
<stop offset="1" stop-color="#00B9FF"/>
</linearGradient>
<linearGradient id="paint17_linear_701_37" x1="39.8359" y1="50.6155" x2="36.9448" y2="45.8386" gradientUnits="userSpaceOnUse">
<stop stop-color="#FF0000"/>
<stop offset="1" stop-color="#00B9FF"/>
</linearGradient>
</defs>
</svg>
