<svg width="37" height="43" viewBox="0 0 37 43" fill="none" xmlns="http://www.w3.org/2000/svg">
<path d="M19.4097 0.528634C18.8473 0.201798 18.1527 0.201798 17.5903 0.528634L0.900989 10.2265C0.343215 10.5506 5.05679e-08 11.147 5.05679e-08 11.7921V31.2079C5.05679e-08 31.853 0.343214 32.4494 0.900988 32.7735L17.5903 42.4714C18.1527 42.7982 18.8473 42.7982 19.4097 42.4714L36.099 32.7735C36.6568 32.4494 37 31.853 37 31.2079V11.7921C37 11.147 36.6568 10.5506 36.099 10.2265L19.4097 0.528634Z" fill="black"/>
<path d="M18.3439 1.82557L1.65461 11.5234C1.5589 11.579 1.5 11.6814 1.5 11.7921V31.2079C1.5 31.3186 1.5589 31.421 1.65461 31.4766L18.3439 41.1744C18.4404 41.2305 18.5596 41.2305 18.6561 41.1744L35.3454 31.4766C35.4411 31.421 35.5 31.3186 35.5 31.2079V11.7921C35.5 11.6814 35.4411 11.579 35.3454 11.5234L18.6561 1.82557C18.5596 1.76949 18.4404 1.76949 18.3439 1.82557Z" stroke="url(#paint0_linear_703_43)" stroke-opacity="0.45" stroke-width="3"/>
<defs>
<linearGradient id="paint0_linear_703_43" x1="8.75258" y1="37.3625" x2="27.9606" y2="5.83005" gradientUnits="userSpaceOnUse">
<stop stop-color="#FF0000"/>
<stop offset="1" stop-color="#00B9FF"/>
</linearGradient>
</defs>
</svg>
