<svg width="50" height="400" viewBox="0 0 50 400" fill="none" xmlns="http://www.w3.org/2000/svg">
<path d="M50 394.974C50 397.736 47.6936 400.076 45.1073 399.109C33.4317 394.74 24.366 374.455 15.5801 341.421C5.60432 303.914 2.15862e-06 253.043 4.76837e-07 200C-1.20495e-06 146.957 5.60431 96.0859 15.58 58.5787C24.366 25.5448 33.4317 5.26009 45.1073 0.891352C47.6936 -0.0763823 50 2.26414 50 5.02557V5.02557C50 7.78699 47.6852 9.97314 45.1181 10.9908C34.1767 15.3283 25.7539 34.5408 17.4703 65.6859C7.99594 101.308 2.67328 149.622 2.67328 200C2.67328 250.378 7.99595 298.692 17.4703 334.314C25.7539 365.459 34.1767 384.672 45.1182 389.009C47.6852 390.027 50 392.213 50 394.974V394.974Z" fill="url(#paint0_linear_239_4)"/>
<defs>
<linearGradient id="paint0_linear_239_4" x1="50" y1="0" x2="50" y2="400" gradientUnits="userSpaceOnUse">
<stop stop-color="#00B8FF" stop-opacity="0"/>
<stop offset="0.5625" stop-color="#FE0000"/>
<stop offset="1" stop-color="#00B8FF" stop-opacity="0"/>
</linearGradient>
</defs>
</svg>
