<svg width="2257" height="415" viewBox="0 0 2257 415" fill="none" xmlns="http://www.w3.org/2000/svg">
<path d="M271.361 160.144C271.361 164.563 274.943 168.144 279.361 168.144C283.78 168.144 287.361 164.563 287.361 160.144C287.361 155.726 283.78 152.144 279.361 152.144C274.943 152.144 271.361 155.726 271.361 160.144ZM120.605 137.54C120.605 141.958 124.187 145.54 128.605 145.54C133.023 145.54 136.605 141.958 136.605 137.54C136.605 133.122 133.023 129.54 128.605 129.54C124.187 129.54 120.605 133.122 120.605 137.54ZM330.79 247.519C330.79 251.937 334.372 255.519 338.79 255.519C343.208 255.519 346.79 251.937 346.79 247.519C346.79 243.1 343.208 239.519 338.79 239.519C334.372 239.519 330.79 243.1 330.79 247.519ZM60.3025 226.218C60.3025 230.637 63.8842 234.218 68.3025 234.218C72.7208 234.218 76.3025 230.637 76.3025 226.218C76.3025 221.8 72.7208 218.218 68.3025 218.218C63.8842 218.218 60.3025 221.8 60.3025 226.218ZM152.067 184.922C152.067 189.34 155.649 192.922 160.067 192.922C164.486 192.922 168.067 189.34 168.067 184.922C168.067 180.504 164.486 176.922 160.067 176.922C155.649 176.922 152.067 180.504 152.067 184.922ZM34.521 203.614C34.521 208.032 38.1027 211.614 42.521 211.614C46.9393 211.614 50.521 208.032 50.521 203.614C50.521 199.196 46.9393 195.614 42.521 195.614C38.1027 195.614 34.521 199.196 34.521 203.614ZM394.588 196.659C394.588 201.077 398.17 204.659 402.588 204.659C407.007 204.659 410.588 201.077 410.588 196.659C410.588 192.241 407.007 188.659 402.588 188.659C398.17 188.659 394.588 192.241 394.588 196.659ZM289.714 196.659C289.714 201.077 293.296 204.659 297.714 204.659C302.133 204.659 305.714 201.077 305.714 196.659C305.714 192.241 302.133 188.659 297.714 188.659C293.296 188.659 289.714 192.241 289.714 196.659ZM394.588 260.994C394.588 265.412 398.17 268.994 402.588 268.994C407.007 268.994 410.588 265.412 410.588 260.994C410.588 256.576 407.007 252.994 402.588 252.994C398.17 252.994 394.588 256.576 394.588 260.994ZM296.269 268.819C296.269 273.237 299.851 276.819 304.269 276.819C308.687 276.819 312.269 273.237 312.269 268.819C312.269 264.4 308.687 260.819 304.269 260.819C299.851 260.819 296.269 264.4 296.269 268.819ZM263.933 294.466C263.933 298.884 267.514 302.466 271.933 302.466C276.351 302.466 279.933 298.884 279.933 294.466C279.933 290.048 276.351 286.466 271.933 286.466C267.514 286.466 263.933 290.048 263.933 294.466ZM65.9832 357.932C65.9832 362.35 69.5649 365.932 73.9832 365.932C78.4015 365.932 81.9832 362.35 81.9832 357.932C81.9832 353.514 78.4015 349.932 73.9832 349.932C69.5649 349.932 65.9832 353.514 65.9832 357.932ZM166.05 286.641C166.05 291.06 169.632 294.641 174.05 294.641C178.469 294.641 182.05 291.06 182.05 286.641C182.05 282.223 178.469 278.641 174.05 278.641C169.632 278.641 166.05 282.223 166.05 286.641ZM0 320.982C0 325.401 3.58172 328.982 8 328.982C12.4183 328.982 16 325.401 16 320.982C16 316.564 12.4183 312.982 8 312.982C3.58172 312.982 0 316.564 0 320.982ZM1672.5 154.058C1672.5 158.477 1676.08 162.058 1680.5 162.058C1684.91 162.058 1688.5 158.477 1688.5 154.058C1688.5 149.64 1684.91 146.058 1680.5 146.058C1676.08 146.058 1672.5 149.64 1672.5 154.058ZM1647.59 184.487C1647.59 188.906 1651.17 192.487 1655.59 192.487C1660.01 192.487 1663.59 188.906 1663.59 184.487C1663.59 180.069 1660.01 176.487 1655.59 176.487C1651.17 176.487 1647.59 180.069 1647.59 184.487ZM1610.01 226.218C1610.01 230.637 1613.59 234.218 1618.01 234.218C1622.43 234.218 1626.01 230.637 1626.01 226.218C1626.01 221.8 1622.43 218.218 1618.01 218.218C1613.59 218.218 1610.01 221.8 1610.01 226.218ZM1549.27 292.292C1549.27 296.711 1552.85 300.292 1557.27 300.292C1561.69 300.292 1565.27 296.711 1565.27 292.292C1565.27 287.874 1561.69 284.292 1557.27 284.292C1552.85 284.292 1549.27 287.874 1549.27 292.292ZM1540.09 356.628C1540.09 361.046 1543.67 364.628 1548.09 364.628C1552.51 364.628 1556.09 361.046 1556.09 356.628C1556.09 352.209 1552.51 348.628 1548.09 348.628C1543.67 348.628 1540.09 352.209 1540.09 356.628ZM1889.24 375.754C1889.24 380.173 1892.82 383.754 1897.24 383.754C1901.65 383.754 1905.24 380.173 1905.24 375.754C1905.24 371.336 1901.65 367.754 1897.24 367.754C1892.82 367.754 1889.24 371.336 1889.24 375.754ZM2109.47 300.986C2109.47 305.405 2113.05 308.986 2117.47 308.986C2121.89 308.986 2125.47 305.405 2125.47 300.986C2125.47 296.568 2121.89 292.986 2117.47 292.986C2113.05 292.986 2109.47 296.568 2109.47 300.986ZM1417.09 407C1417.09 411.418 1420.67 415 1425.09 415C1429.51 415 1433.09 411.418 1433.09 407C1433.09 402.582 1429.51 399 1425.09 399C1420.67 399 1417.09 402.582 1417.09 407ZM799.731 405.314C799.731 409.732 803.313 413.314 807.731 413.314C812.149 413.314 815.731 409.732 815.731 405.314C815.731 400.896 812.149 397.314 807.731 397.314C803.313 397.314 799.731 400.896 799.731 405.314ZM654.151 341.848C654.151 346.266 657.733 349.848 662.151 349.848C666.57 349.848 670.151 346.266 670.151 341.848C670.151 337.43 666.57 333.848 662.151 333.848C657.733 333.848 654.151 337.43 654.151 341.848ZM683.866 348.803C683.866 353.221 687.447 356.803 691.866 356.803C696.284 356.803 699.866 353.221 699.866 348.803C699.866 344.385 696.284 340.803 691.866 340.803C687.447 340.803 683.866 344.385 683.866 348.803ZM279.664 300.986C279.664 305.405 283.246 308.986 287.664 308.986C292.082 308.986 295.664 305.405 295.664 300.986C295.664 296.568 292.082 292.986 287.664 292.986C283.246 292.986 279.664 296.568 279.664 300.986ZM320.303 231C320.303 235.418 323.884 239 328.303 239C332.721 239 336.303 235.418 336.303 231C336.303 226.582 332.721 223 328.303 223C323.884 223 320.303 226.582 320.303 231ZM699.597 204.483C699.597 208.902 703.178 212.483 707.597 212.483C712.015 212.483 715.597 208.902 715.597 204.483C715.597 200.065 712.015 196.483 707.597 196.483C703.178 196.483 699.597 200.065 699.597 204.483ZM730.622 213.177C730.622 217.596 734.204 221.177 738.622 221.177C743.04 221.177 746.622 217.596 746.622 213.177C746.622 208.759 743.04 205.177 738.622 205.177C734.204 205.177 730.622 208.759 730.622 213.177ZM549.277 284.468C549.277 288.886 552.859 292.468 557.277 292.468C561.696 292.468 565.277 288.886 565.277 284.468C565.277 280.05 561.696 276.468 557.277 276.468C552.859 276.468 549.277 280.05 549.277 284.468ZM759.025 262.298C759.025 266.717 762.607 270.298 767.025 270.298C771.443 270.298 775.025 266.717 775.025 262.298C775.025 257.88 771.443 254.298 767.025 254.298C762.607 254.298 759.025 257.88 759.025 262.298ZM398.958 99.7213C398.958 104.14 402.54 107.721 406.958 107.721C411.376 107.721 414.958 104.14 414.958 99.7213C414.958 95.303 411.376 91.7213 406.958 91.7213C402.54 91.7213 398.958 95.303 398.958 99.7213ZM409.008 167.969C409.008 172.387 412.59 175.969 417.008 175.969C421.427 175.969 425.008 172.387 425.008 167.969C425.008 163.551 421.427 159.969 417.008 159.969C412.59 159.969 409.008 163.551 409.008 167.969ZM203.63 167.969C203.63 172.387 207.212 175.969 211.63 175.969C216.049 175.969 219.63 172.387 219.63 167.969C219.63 163.551 216.049 159.969 211.63 159.969C207.212 159.969 203.63 163.551 203.63 167.969ZM450.958 167.969C450.958 172.387 454.54 175.969 458.958 175.969C463.376 175.969 466.958 172.387 466.958 167.969C466.958 163.551 463.376 159.969 458.958 159.969C454.54 159.969 450.958 163.551 450.958 167.969ZM593.412 274.47C593.412 278.888 596.993 282.47 601.412 282.47C605.83 282.47 609.412 278.888 609.412 274.47C609.412 270.052 605.83 266.47 601.412 266.47C596.993 266.47 593.412 270.052 593.412 274.47ZM652.538 270.796L653.656 271.796L653.656 271.796L652.538 270.796ZM518.252 8C518.252 12.4183 521.834 16 526.252 16C530.67 16 534.252 12.4183 534.252 8C534.252 3.58172 530.67 0 526.252 0C521.834 0 518.252 3.58172 518.252 8ZM468.437 262.298C468.437 266.717 472.019 270.298 476.437 270.298C480.855 270.298 484.437 266.717 484.437 262.298C484.437 257.88 480.855 254.298 476.437 254.298C472.019 254.298 468.437 257.88 468.437 262.298ZM58.5546 341.848C58.5546 346.266 62.1363 349.848 66.5546 349.848C70.9729 349.848 74.5546 346.266 74.5546 341.848C74.5546 337.43 70.9729 333.848 66.5546 333.848C62.1363 333.848 58.5546 337.43 58.5546 341.848ZM155.563 325.764C155.563 330.182 159.145 333.764 163.563 333.764C167.981 333.764 171.563 330.182 171.563 325.764C171.563 321.346 167.981 317.764 163.563 317.764C159.145 317.764 155.563 321.346 155.563 325.764ZM478.924 294.466C478.924 298.884 482.506 302.466 486.924 302.466C491.343 302.466 494.924 298.884 494.924 294.466C494.924 290.048 491.343 286.466 486.924 286.466C482.506 286.466 478.924 290.048 478.924 294.466ZM442.219 365.322C442.219 369.74 445.8 373.322 450.219 373.322C454.637 373.322 458.219 369.74 458.219 365.322C458.219 360.903 454.637 357.322 450.219 357.322C445.8 357.322 442.219 360.903 442.219 365.322ZM593.412 319.244C593.412 323.662 596.993 327.244 601.412 327.244C605.83 327.244 609.412 323.662 609.412 319.244C609.412 314.825 605.83 311.244 601.412 311.244C596.993 311.244 593.412 314.825 593.412 319.244ZM665.977 255.778L667.095 256.778L667.095 256.778L665.977 255.778ZM485.916 255.778C485.916 260.196 489.498 263.778 493.916 263.778C498.334 263.778 501.916 260.196 501.916 255.778C501.916 251.36 498.334 247.778 493.916 247.778C489.498 247.778 485.916 251.36 485.916 255.778ZM1911.08 77.5517C1911.08 81.9699 1914.67 85.5517 1919.08 85.5517C1923.5 85.5517 1927.08 81.9699 1927.08 77.5517C1927.08 73.1334 1923.5 69.5517 1919.08 69.5517C1914.67 69.5517 1911.08 73.1334 1911.08 77.5517ZM1463.18 248.388C1463.18 252.806 1466.77 256.388 1471.18 256.388C1475.6 256.388 1479.18 252.806 1479.18 248.388C1479.18 243.97 1475.6 240.388 1471.18 240.388C1466.77 240.388 1463.18 243.97 1463.18 248.388ZM1547.08 236.216C1547.08 240.635 1550.67 244.216 1555.08 244.216C1559.5 244.216 1563.08 240.635 1563.08 236.216C1563.08 231.798 1559.5 228.216 1555.08 228.216C1550.67 228.216 1547.08 231.798 1547.08 236.216ZM1689.1 77.5517C1689.1 81.9699 1692.68 85.5517 1697.1 85.5517C1701.52 85.5517 1705.1 81.9699 1705.1 77.5517C1705.1 73.1334 1701.52 69.5517 1697.1 69.5517C1692.68 69.5517 1689.1 73.1334 1689.1 77.5517ZM1678.61 66.2495C1678.61 70.6678 1682.2 74.2495 1686.61 74.2495C1691.03 74.2495 1694.61 70.6678 1694.61 66.2495C1694.61 61.8312 1691.03 58.2495 1686.61 58.2495C1682.2 58.2495 1678.61 61.8312 1678.61 66.2495ZM1620.5 131.889C1620.5 136.307 1624.08 139.889 1628.5 139.889C1632.91 139.889 1636.5 136.307 1636.5 131.889C1636.5 127.471 1632.91 123.889 1628.5 123.889C1624.08 123.889 1620.5 127.471 1620.5 131.889ZM1592.09 159.71C1592.09 164.128 1595.67 167.71 1600.09 167.71C1604.51 167.71 1608.09 164.128 1608.09 159.71C1608.09 155.291 1604.51 151.71 1600.09 151.71C1595.67 151.71 1592.09 155.291 1592.09 159.71ZM1498.58 224.914C1498.58 229.333 1502.16 232.914 1506.58 232.914C1511 232.914 1514.58 229.333 1514.58 224.914C1514.58 220.496 1511 216.914 1506.58 216.914C1502.16 216.914 1498.58 220.496 1498.58 224.914ZM1446.14 186.661C1446.14 191.079 1449.72 194.661 1454.14 194.661C1458.56 194.661 1462.14 191.079 1462.14 186.661C1462.14 182.243 1458.56 178.661 1454.14 178.661C1449.72 178.661 1446.14 182.243 1446.14 186.661ZM2040.43 254.474C2040.43 258.892 2044.01 262.474 2048.43 262.474C2052.85 262.474 2056.43 258.892 2056.43 254.474C2056.43 250.055 2052.85 246.474 2048.43 246.474C2044.01 246.474 2040.43 250.055 2040.43 254.474ZM1970.95 201.006C1970.95 205.424 1974.53 209.006 1978.95 209.006C1983.37 209.006 1986.95 205.424 1986.95 201.006C1986.95 196.588 1983.37 193.006 1978.95 193.006C1974.53 193.006 1970.95 196.588 1970.95 201.006ZM1455.76 346.63C1455.76 351.048 1459.34 354.63 1463.76 354.63C1468.17 354.63 1471.76 351.048 1471.76 346.63C1471.76 342.211 1468.17 338.63 1463.76 338.63C1459.34 338.63 1455.76 342.211 1455.76 346.63ZM1516.5 326.199C1516.5 330.617 1520.08 334.199 1524.5 334.199C1528.91 334.199 1532.5 330.617 1532.5 326.199C1532.5 321.781 1528.91 318.199 1524.5 318.199C1520.08 318.199 1516.5 321.781 1516.5 326.199ZM1765.13 171.881C1765.13 176.299 1768.72 179.881 1773.13 179.881C1777.55 179.881 1781.13 176.299 1781.13 171.881C1781.13 167.463 1777.55 163.881 1773.13 163.881C1768.72 163.881 1765.13 167.463 1765.13 171.881ZM1818.45 131.889C1818.45 136.307 1822.03 139.889 1826.45 139.889C1830.86 139.889 1834.45 136.307 1834.45 131.889C1834.45 127.471 1830.86 123.889 1826.45 123.889C1822.03 123.889 1818.45 127.471 1818.45 131.889ZM1970.95 94.9396C1970.95 99.3578 1974.53 102.94 1978.95 102.94C1983.37 102.94 1986.95 99.3578 1986.95 94.9396C1986.95 90.5213 1983.37 86.9396 1978.95 86.9396C1974.53 86.9396 1970.95 90.5213 1970.95 94.9396ZM2133.07 66.2495C2133.07 70.6678 2136.65 74.2495 2141.07 74.2495C2145.49 74.2495 2149.07 70.6678 2149.07 66.2495C2149.07 61.8312 2145.49 58.2495 2141.07 58.2495C2136.65 58.2495 2133.07 61.8312 2133.07 66.2495ZM1800.75 167.969C1800.75 172.387 1804.33 175.969 1808.75 175.969C1813.17 175.969 1816.75 172.387 1816.75 167.969C1816.75 163.551 1813.17 159.969 1808.75 159.969C1804.33 159.969 1800.75 163.551 1800.75 167.969ZM1734.55 205.788C1734.55 210.206 1738.13 213.788 1742.55 213.788C1746.96 213.788 1750.55 210.206 1750.55 205.788C1750.55 201.369 1746.96 197.788 1742.55 197.788C1738.13 197.788 1734.55 201.369 1734.55 205.788ZM1809.27 214.481C1809.27 218.9 1812.85 222.481 1817.27 222.481C1821.69 222.481 1825.27 218.9 1825.27 214.481C1825.27 210.063 1821.69 206.481 1817.27 206.481C1812.85 206.481 1809.27 210.063 1809.27 214.481ZM1911.08 184.487C1911.08 188.906 1914.67 192.487 1919.08 192.487C1923.5 192.487 1927.08 188.906 1927.08 184.487C1927.08 180.069 1923.5 176.487 1919.08 176.487C1914.67 176.487 1911.08 180.069 1911.08 184.487ZM2012.03 154.058C2012.03 158.477 2015.61 162.058 2020.03 162.058C2024.44 162.058 2028.03 158.477 2028.03 154.058C2028.03 149.64 2024.44 146.058 2020.03 146.058C2015.61 146.058 2012.03 149.64 2012.03 154.058ZM2100.29 131.889C2100.29 136.307 2103.88 139.889 2108.29 139.889C2112.71 139.889 2116.29 136.307 2116.29 131.889C2116.29 127.471 2112.71 123.889 2108.29 123.889C2103.88 123.889 2100.29 127.471 2100.29 131.889ZM2241 131.889C2241 136.307 2244.58 139.889 2249 139.889C2253.42 139.889 2257 136.307 2257 131.889C2257 127.471 2253.42 123.889 2249 123.889C2244.58 123.889 2241 127.471 2241 131.889ZM2133.07 222.707C2133.07 227.125 2136.65 230.707 2141.07 230.707C2145.49 230.707 2149.07 227.125 2149.07 222.707C2149.07 218.289 2145.49 214.707 2141.07 214.707C2136.65 214.707 2133.07 218.289 2133.07 222.707ZM1860.4 227.088C1860.4 231.506 1863.98 235.088 1868.4 235.088C1872.81 235.088 1876.4 231.506 1876.4 227.088C1876.4 222.669 1872.81 219.088 1868.4 219.088C1863.98 219.088 1860.4 222.669 1860.4 227.088ZM2012.03 267.515C2012.03 271.933 2015.61 275.515 2020.03 275.515C2024.44 275.515 2028.03 271.933 2028.03 267.515C2028.03 263.096 2024.44 259.515 2020.03 259.515C2015.61 259.515 2012.03 263.096 2012.03 267.515ZM2235.76 326.199C2235.76 330.617 2239.34 334.199 2243.76 334.199C2248.17 334.199 2251.76 330.617 2251.76 326.199C2251.76 321.781 2248.17 318.199 2243.76 318.199C2239.34 318.199 2235.76 321.781 2235.76 326.199ZM2156.94 324.161L2157.99 323.098L2156.94 324.161ZM2126.95 294.33L2125.89 295.393L2126.95 294.33ZM2042.88 290.255L2041.83 291.319L2042.88 290.255ZM1998.44 234.179L1997.38 233.116L1998.44 234.179ZM2007.93 224.744L2008.98 225.808L2007.93 224.744ZM1786.89 212.776L1785.91 213.91L1786.89 212.776ZM2028.24 110.001L2027.05 109.093L2028.24 110.001ZM116.036 289.727L117.28 290.566L116.036 289.727ZM1906.06 97.5528L1907.23 98.4928L1906.06 97.5528ZM1880.55 129.276L1879.38 128.336L1880.55 129.276ZM210.404 297.007L209.248 296.052L210.404 297.007ZM1561.97 323.939L1563.07 324.955L1561.97 323.939ZM1847.96 203.314L1849.07 204.319L1847.96 203.314ZM152.776 205.651L151.718 204.588L152.776 205.651ZM1541.87 222.667L1542.97 223.685L1541.87 222.667ZM539.659 267.697L538.553 266.684L539.659 267.697ZM549.776 267.482L548.714 268.541L549.776 267.482ZM402.471 339.685L401.387 338.648L402.471 339.685ZM2059.44 69.0105L2060.63 69.9189L2059.44 69.0105ZM528.065 133.455L529.177 132.448L528.065 133.455ZM344.607 263.031L343.55 261.968L344.607 263.031ZM1720.6 344.322L1719.48 343.316L1720.6 344.322ZM559.356 101.969L558.254 102.987L559.356 101.969ZM111.7 186.959L110.642 185.896L111.7 186.959ZM1594.52 252.217L1595.62 251.201L1594.52 252.217ZM642.389 282.136L641.272 281.136L642.389 282.136ZM1536.19 188.917L1537.29 187.901L1536.19 188.917ZM702.014 215.509L700.896 214.509L702.014 215.509ZM1710.74 79.8859L1709.63 78.8861L1710.74 79.8859ZM1926.21 234.179L1925.15 235.242L1926.21 234.179ZM561.759 346.601L562.851 345.573L561.759 346.601ZM720.384 403.136L721.471 402.102L720.384 403.136ZM1982.97 156.579L1984.12 157.539L1982.97 156.579ZM1786.11 401.205L1784.99 400.208L1786.11 401.205ZM1780.95 403.552L1780.96 405.052L1780.95 403.552ZM461.045 323.428L459.927 322.429L461.045 323.428ZM1961.82 181.967L1960.67 181.007L1961.82 181.967ZM1876.37 303.213L1877.47 304.236L1876.37 303.213ZM1916.99 115.612L1918.19 116.502L1916.99 115.612ZM1682.45 358.272L1683.42 357.125L1682.45 358.272ZM506.048 170.244L507.154 169.231L506.048 170.244ZM97.0392 317.896L95.7956 317.058L97.0392 317.896ZM162.167 355.39L163.323 356.346L162.167 355.39ZM1880.54 165.119L1879.34 164.229L1880.54 165.119ZM1780.79 207.493L1781.77 206.359L1780.79 207.493ZM1701.26 374.11L1700.3 375.257L1701.26 374.11ZM484.851 206.691L483.758 205.664L484.851 206.691ZM134.149 224.181L135.207 225.244L134.149 224.181ZM245.414 245.481L244.356 246.545L245.414 245.481ZM705.518 260.05L704.417 261.069L705.518 260.05ZM340.838 266.781L341.896 267.845L340.838 266.781ZM205.376 205.651L206.434 204.588L205.376 205.651ZM464.09 228.793L465.184 229.82L464.09 228.793ZM214.552 139.577L213.494 140.641L214.552 139.577ZM97.006 201.577L98.0639 202.64L97.006 201.577ZM1921.13 229.125L1922.19 228.062L1921.13 229.125ZM520.896 303.189L521.989 302.16L520.896 303.189ZM1561.97 246.086L1560.86 245.08L1561.97 246.086ZM233.179 158.107L234.237 157.043L233.179 158.107ZM279.361 158.644H238.116V161.644H279.361V158.644ZM234.237 157.043L215.61 138.514L213.494 140.641L232.121 159.17L234.237 157.043ZM209.615 136.04H128.605V139.04H209.615V136.04ZM338.79 246.019H250.351V249.019H338.79V246.019ZM246.472 244.418L206.434 204.588L204.318 206.715L244.356 246.545L246.472 244.418ZM200.439 202.114H157.712V205.114H200.439V202.114ZM151.718 204.588L133.091 223.118L135.207 225.244L153.833 206.715L151.718 204.588ZM129.212 224.718H68.3025V227.718H129.212V224.718ZM160.067 183.422H116.637V186.422H160.067V183.422ZM110.642 185.896L95.9481 200.513L98.0639 202.64L112.758 188.023L110.642 185.896ZM92.0692 202.114H42.521V205.114H92.0692V202.114ZM402.588 195.159H297.714V198.159H402.588V195.159ZM402.588 259.494H349.544V262.494H402.588V259.494ZM343.55 261.968L339.78 265.718L341.896 267.845L345.665 264.095L343.55 261.968ZM335.901 267.319H304.269V270.319H335.901V267.319ZM271.933 292.966H215.801V295.966H271.933V292.966ZM209.248 296.052L161.011 354.435L163.323 356.346L211.561 297.963L209.248 296.052ZM156.771 356.432H73.9832V359.432H156.771V356.432ZM174.05 285.141H121.84V288.141H174.05V285.141ZM114.793 288.889L95.7956 317.058L98.2829 318.735L117.28 290.566L114.793 288.889ZM91.2357 319.482H8V322.482H91.2357V319.482ZM1679.33 153.108L1654.43 183.537L1656.75 185.437L1681.66 155.009L1679.33 153.108ZM1616.9 225.203L1556.16 291.277L1558.37 293.308L1619.11 227.233L1616.9 225.203ZM1548.09 358.128H1677.94V355.128H1548.09V358.128ZM1681.48 359.42L1700.3 375.257L1702.23 372.962L1683.42 357.125L1681.48 359.42ZM1705.77 377.254H1808.75V374.254H1705.77V377.254ZM1808.75 377.254H1897.24V374.254H1808.75V377.254ZM2117.47 299.486H1881.49V302.486H2117.47V299.486ZM1875.27 302.19L1807.65 374.732L1809.85 376.777L1877.47 304.236L1875.27 302.19ZM1807.63 374.758L1784.99 400.208L1787.23 402.202L1809.87 376.751L1807.63 374.758ZM1780.93 402.053L1425.08 405.5L1425.11 408.5L1780.96 405.052L1780.93 402.053ZM807.731 403.814H725.459V406.814H807.731V403.814ZM721.471 402.102L669.847 347.77L667.672 349.836L719.297 404.169L721.471 402.102ZM669.847 347.77L663.239 340.815L661.064 342.881L667.672 349.836L669.847 347.77ZM691.866 347.303H668.76V350.303H691.866V347.303ZM668.76 347.303H566.856V350.303H668.76V347.303ZM562.851 345.573L521.989 302.16L519.804 304.217L560.667 347.629L562.851 345.573ZM515.799 299.486H509.16V302.486H515.799V299.486ZM509.16 299.486H481.098V302.486H509.16V299.486ZM481.098 299.486H439.459V302.486H481.098V299.486ZM439.459 299.486H287.664V302.486H439.459V299.486ZM328.303 232.5H458.988V229.5H328.303V232.5ZM465.184 229.82L485.944 207.718L483.758 205.664L462.997 227.766L465.184 229.82ZM489.953 205.983H537.376V202.983H489.953V205.983ZM537.376 205.983H592.439V202.983H537.376V205.983ZM592.439 205.983H654.141V202.983H592.439V205.983ZM654.141 205.983H707.597V202.983H654.141V205.983ZM738.622 211.677H707.23V214.677H738.622V211.677ZM637.173 282.968H566.721V285.968H637.173V282.968ZM566.721 282.968H557.277V285.968H566.721V282.968ZM767.025 260.798H710.658V263.798H767.025V260.798ZM706.62 259.032L684.584 235.199L682.381 237.236L704.417 261.069L706.62 259.032ZM684.584 235.199L655.242 203.465L653.04 205.502L682.381 237.236L684.584 235.199ZM655.242 203.465L560.457 100.951L558.254 102.987L653.04 205.502L655.242 203.465ZM554.216 98.2213H526.252V101.221H554.216V98.2213ZM526.252 98.2213H406.958V101.221H526.252V98.2213ZM417.008 166.469H211.63V169.469H417.008V166.469ZM458.958 169.469H500.883V166.469H458.958V169.469ZM504.941 171.256L536.27 205.496L538.483 203.471L507.154 169.231L504.941 171.256ZM536.27 205.496L583.202 256.79L585.416 254.765L538.483 203.471L536.27 205.496ZM583.202 256.79L600.305 275.482L602.518 273.457L585.416 254.765L583.202 256.79ZM651.42 269.795L641.272 281.136L643.507 283.136L653.656 271.796L651.42 269.795ZM653.649 269.788L640.038 254.77L637.816 256.785L651.426 271.803L653.649 269.788ZM640.038 254.77L593.55 203.476L591.327 205.491L637.816 256.785L640.038 254.77ZM593.55 203.476L529.177 132.448L526.954 134.462L591.327 205.491L593.55 203.476ZM527.752 128.754V99.7213H524.752V128.754H527.752ZM527.752 99.7213V8H524.752V99.7213H527.752ZM475.353 261.262L438.375 299.95L440.543 302.023L477.521 263.335L475.353 261.262ZM438.375 299.95L414.692 324.728L416.861 326.801L440.543 302.023L438.375 299.95ZM414.692 324.728L401.387 338.648L403.555 340.721L416.861 326.801L414.692 324.728ZM397.411 340.348H66.5546V343.348H397.411V340.348ZM163.563 327.264H415.776V324.264H163.563V327.264ZM415.776 327.264H455.825V324.264H415.776V327.264ZM462.164 324.428L482.217 301.986L479.98 299.987L459.927 322.429L462.164 324.428ZM482.217 301.986L488.043 295.465L485.806 293.466L479.98 299.987L482.217 301.986ZM451.325 366.335L510.266 302L508.054 299.973L449.112 364.308L451.325 366.335ZM510.266 302L540.765 268.71L538.553 266.684L508.054 299.973L510.266 302ZM548.714 268.541L565.659 285.527L567.783 283.408L550.838 266.423L548.714 268.541ZM565.659 285.527L600.35 320.303L602.474 318.184L567.783 283.408L565.659 285.527ZM700.896 214.509L682.364 235.217L684.6 237.218L703.132 216.51L700.896 214.509ZM682.364 235.217L664.86 254.777L667.095 256.778L684.6 237.218L682.364 235.217ZM664.86 254.777L651.42 269.795L653.656 271.796L667.095 256.778L664.86 254.777ZM493.916 257.278H584.309V254.278H493.916V257.278ZM584.309 257.278H638.927V254.278H584.309V257.278ZM638.927 257.278H665.977V254.278H638.927V257.278ZM1919.08 76.0517H1715.96V79.0517H1919.08V76.0517ZM1709.63 78.8861L1574.19 230.366L1576.42 232.366L1711.86 80.8857L1709.63 78.8861ZM1574.19 230.359L1560.86 245.08L1563.09 247.093L1576.42 232.373L1574.19 230.359ZM1556.79 246.888H1471.18V249.888H1556.79V246.888ZM1556.2 237.224L1568.44 223.714L1566.21 221.7L1553.97 235.209L1556.2 237.224ZM1568.44 223.707L1698.22 78.5514L1695.98 76.5519L1566.21 221.707L1568.44 223.707ZM1685.49 65.2552L1627.37 130.895L1629.62 132.883L1687.74 67.2439L1685.49 65.2552ZM1598.99 158.691L1553.5 207.881L1555.7 209.918L1601.19 160.728L1598.99 158.691ZM1553.5 207.881L1540.77 221.649L1542.97 223.685L1555.7 209.918L1553.5 207.881ZM1536.73 223.414H1506.58V226.414H1536.73V223.414ZM1454.14 188.161H1531.04V185.161H1454.14V188.161ZM1535.09 189.934L1553.5 209.916L1555.7 207.883L1537.29 187.901L1535.09 189.934ZM1553.5 209.916L1566.22 223.724L1568.43 221.691L1555.7 207.883L1553.5 209.916ZM1566.22 223.724L1574.2 232.383L1576.41 230.35L1568.43 221.691L1566.22 223.724ZM1574.2 232.383L1593.41 253.234L1595.62 251.201L1576.41 230.35L1574.2 232.383ZM1599.67 255.974H1625.9V252.974H1599.67V255.974ZM1625.9 255.974H1801.75V252.974H1625.9V255.974ZM1801.75 255.974H2048.43V252.974H1801.75V255.974ZM1978.95 199.506H1853.15V202.506H1978.95V199.506ZM1846.84 202.308L1800.64 253.468L1802.86 255.479L1849.07 204.319L1846.84 202.308ZM1800.64 253.468L1719.48 343.316L1721.71 345.327L1802.86 255.479L1800.64 253.468ZM1715.4 345.13H1463.76V348.13H1715.4V345.13ZM1524.5 327.699H1556.82V324.699H1524.5V327.699ZM1563.07 324.955L1627 255.489L1624.79 253.458L1560.87 322.923L1563.07 324.955ZM1627.01 255.477L1699.19 175.204L1696.96 173.198L1624.78 253.471L1627.01 255.477ZM1703.28 173.381H1773.13V170.381H1703.28V173.381ZM1826.45 133.389H1875.09V130.389H1826.45V133.389ZM1881.72 130.216L1907.23 98.4928L1904.89 96.6128L1879.38 128.336L1881.72 130.216ZM1911.51 96.4396H1978.95V93.4396H1911.51V96.4396ZM2141.07 64.7495H2065.01V67.7495H2141.07V64.7495ZM2058.24 68.1021L2027.05 109.093L2029.44 110.91L2060.63 69.9189L2058.24 68.1021ZM2022.67 111.262H1922.62V114.262H2022.67V111.262ZM1915.78 114.723L1879.34 164.229L1881.75 166.008L1918.19 116.502L1915.78 114.723ZM1874.91 166.469H1808.75V169.469H1874.91V166.469ZM1742.55 207.288H1776.21V204.288H1742.55V207.288ZM1779.81 208.628L1785.91 213.91L1787.87 211.641L1781.77 206.359L1779.81 208.628ZM1791.47 215.981H1817.27V212.981H1791.47V215.981ZM1919.08 185.987H1956.44V182.987H1919.08V185.987ZM1962.97 182.927L1984.12 157.539L1981.82 155.619L1960.67 181.007L1962.97 182.927ZM1988.35 155.558H2020.03V152.558H1988.35V155.558ZM2108.29 133.389H2249V130.389H2108.29V133.389ZM2141.07 221.207H2012.86V224.207H2141.07V221.207ZM2006.87 223.681L1997.38 233.116L1999.5 235.242L2008.98 225.808L2006.87 223.681ZM1993.51 234.716H1931.15V237.716H1993.51V234.716ZM1927.27 233.116L1922.19 228.062L1920.07 230.189L1925.15 235.242L1927.27 233.116ZM1916.2 225.588H1868.4V228.588H1916.2V225.588ZM2018.97 268.578L2041.83 291.319L2043.94 289.192L2021.08 266.451L2018.97 268.578ZM2047.82 293.792H2122.01V290.792H2047.82V293.792ZM2125.89 295.393L2155.88 325.225L2157.99 323.098L2128.01 293.266L2125.89 295.393ZM2161.87 327.699H2243.76V324.699H2161.87V327.699ZM2155.88 325.225C2157.47 326.809 2159.63 327.699 2161.87 327.699V324.699C2160.42 324.699 2159.02 324.123 2157.99 323.098L2155.88 325.225ZM2122.01 293.792C2123.46 293.792 2124.86 294.368 2125.89 295.393L2128.01 293.266C2126.41 291.682 2124.26 290.792 2122.01 290.792V293.792ZM2041.83 291.319C2043.42 292.903 2045.57 293.792 2047.82 293.792V290.792C2046.37 290.792 2044.97 290.217 2043.94 289.192L2041.83 291.319ZM1997.38 233.116C1996.35 234.141 1994.96 234.716 1993.51 234.716V237.716C1995.75 237.716 1997.91 236.827 1999.5 235.242L1997.38 233.116ZM2012.86 221.207C2010.62 221.207 2008.46 222.097 2006.87 223.681L2008.98 225.808C2010.02 224.783 2011.41 224.207 2012.86 224.207V221.207ZM1785.91 213.91C1787.46 215.246 1789.43 215.981 1791.47 215.981V212.981C1790.15 212.981 1788.87 212.506 1787.87 211.641L1785.91 213.91ZM2027.05 109.093C2026.01 110.46 2024.39 111.262 2022.67 111.262V114.262C2025.33 114.262 2027.83 113.022 2029.44 110.91L2027.05 109.093ZM121.84 285.141C119.014 285.141 116.373 286.546 114.793 288.889L117.28 290.566C118.302 289.05 120.011 288.141 121.84 288.141V285.141ZM1907.23 98.4928C1908.27 97.1946 1909.85 96.4396 1911.51 96.4396V93.4396C1908.94 93.4396 1906.5 94.6065 1904.89 96.6128L1907.23 98.4928ZM1875.09 133.389C1877.67 133.389 1880.1 132.222 1881.72 130.216L1879.38 128.336C1878.33 129.634 1876.76 130.389 1875.09 130.389V133.389ZM215.801 292.966C213.266 292.966 210.863 294.097 209.248 296.052L211.561 297.963C212.606 296.698 214.16 295.966 215.801 295.966V292.966ZM1699.19 175.204C1700.23 174.044 1701.72 173.381 1703.28 173.381V170.381C1700.87 170.381 1698.57 171.405 1696.96 173.198L1699.19 175.204ZM1556.82 327.699C1559.2 327.699 1561.46 326.704 1563.07 324.955L1560.87 322.923C1559.83 324.055 1558.36 324.699 1556.82 324.699V327.699ZM1853.15 199.506C1850.75 199.506 1848.46 200.524 1846.84 202.308L1849.07 204.319C1850.11 203.165 1851.6 202.506 1853.15 202.506V199.506ZM157.712 202.114C155.466 202.114 153.31 203.003 151.718 204.588L153.833 206.715C154.864 205.69 156.259 205.114 157.712 205.114V202.114ZM1540.77 221.649C1539.73 222.774 1538.26 223.414 1536.73 223.414V226.414C1539.1 226.414 1541.36 225.425 1542.97 223.685L1540.77 221.649ZM540.765 268.71C542.882 266.399 546.5 266.322 548.714 268.541L550.838 266.423C547.417 262.993 541.825 263.112 538.553 266.684L540.765 268.71ZM401.387 338.648C400.349 339.734 398.913 340.348 397.411 340.348V343.348C399.732 343.348 401.952 342.399 403.555 340.721L401.387 338.648ZM2065.01 64.7495C2062.35 64.7495 2059.85 65.9897 2058.24 68.1021L2060.63 69.9189C2061.67 68.552 2063.29 67.7495 2065.01 67.7495V64.7495ZM529.177 132.448C528.26 131.436 527.752 130.119 527.752 128.754H524.752C524.752 130.864 525.537 132.899 526.954 134.462L529.177 132.448ZM349.544 259.494C347.298 259.494 345.142 260.384 343.55 261.968L345.665 264.095C346.696 263.07 348.091 262.494 349.544 262.494V259.494ZM1719.48 343.316C1718.44 344.471 1716.96 345.13 1715.4 345.13V348.13C1717.81 348.13 1720.1 347.111 1721.71 345.327L1719.48 343.316ZM560.457 100.951C558.848 99.2107 556.586 98.2213 554.216 98.2213V101.221C555.749 101.221 557.213 101.861 558.254 102.987L560.457 100.951ZM116.637 183.422C114.39 183.422 112.235 184.311 110.642 185.896L112.758 188.023C113.788 186.998 115.183 186.422 116.637 186.422V183.422ZM1593.41 253.234C1595.02 254.98 1597.29 255.974 1599.67 255.974V252.974C1598.13 252.974 1596.66 252.331 1595.62 251.201L1593.41 253.234ZM637.173 285.968C639.591 285.968 641.895 284.938 643.507 283.136L641.272 281.136C640.228 282.301 638.738 282.968 637.173 282.968V285.968ZM1531.04 188.161C1532.58 188.161 1534.04 188.804 1535.09 189.934L1537.29 187.901C1535.68 186.154 1533.42 185.161 1531.04 185.161V188.161ZM707.23 211.677C704.812 211.677 702.509 212.707 700.896 214.509L703.132 216.51C704.175 215.344 705.666 214.677 707.23 214.677V211.677ZM1715.96 76.0517C1713.54 76.0517 1711.24 77.0826 1709.63 78.8861L1711.86 80.8857C1712.91 79.7187 1714.4 79.0517 1715.96 79.0517V76.0517ZM1931.15 234.716C1929.7 234.716 1928.3 234.141 1927.27 233.116L1925.15 235.242C1926.75 236.827 1928.9 237.716 1931.15 237.716V234.716ZM566.856 347.303C565.34 347.303 563.891 346.677 562.851 345.573L560.667 347.629C562.273 349.336 564.513 350.303 566.856 350.303V347.303ZM725.459 403.814C723.951 403.814 722.51 403.195 721.471 402.102L719.297 404.169C720.901 405.858 723.129 406.814 725.459 406.814V403.814ZM1984.12 157.539C1985.17 156.284 1986.71 155.558 1988.35 155.558V152.558C1985.82 152.558 1983.43 153.68 1981.82 155.619L1984.12 157.539ZM1784.99 400.208C1783.96 401.368 1782.49 402.038 1780.93 402.053L1780.96 405.052C1783.36 405.029 1785.64 403.994 1787.23 402.202L1784.99 400.208ZM455.825 327.264C458.246 327.264 460.551 326.232 462.164 324.428L459.927 322.429C458.883 323.597 457.391 324.264 455.825 324.264V327.264ZM1956.44 185.987C1958.97 185.987 1961.36 184.866 1962.97 182.927L1960.67 181.007C1959.62 182.262 1958.08 182.987 1956.44 182.987V185.987ZM1881.49 299.486C1879.13 299.486 1876.88 300.466 1875.27 302.19L1877.47 304.236C1878.51 303.12 1879.96 302.486 1881.49 302.486V299.486ZM1922.62 111.262C1919.92 111.262 1917.38 112.547 1915.78 114.723L1918.19 116.502C1919.23 115.094 1920.87 114.262 1922.62 114.262V111.262ZM1677.94 358.128C1679.24 358.128 1680.49 358.585 1681.48 359.42L1683.42 357.125C1681.88 355.835 1679.94 355.128 1677.94 355.128V358.128ZM500.883 169.469C502.427 169.469 503.899 170.117 504.941 171.256L507.154 169.231C505.544 167.471 503.269 166.469 500.883 166.469V169.469ZM95.7956 317.058C94.7732 318.574 93.0642 319.482 91.2357 319.482V322.482C94.0616 322.482 96.7028 321.078 98.2829 318.735L95.7956 317.058ZM161.011 354.435C159.966 355.7 158.411 356.432 156.771 356.432V359.432C159.306 359.432 161.709 358.3 163.323 356.346L161.011 354.435ZM1879.34 164.229C1878.3 165.637 1876.65 166.469 1874.91 166.469V169.469C1877.61 169.469 1880.15 168.184 1881.75 166.008L1879.34 164.229ZM1776.21 207.288C1777.53 207.288 1778.81 207.763 1779.81 208.628L1781.77 206.359C1780.22 205.023 1778.25 204.288 1776.21 204.288V207.288ZM1700.3 375.257C1701.83 376.547 1703.77 377.254 1705.77 377.254V374.254C1704.48 374.254 1703.22 373.797 1702.23 372.962L1700.3 375.257ZM485.944 207.718C486.984 206.611 488.435 205.983 489.953 205.983V202.983C487.606 202.983 485.364 203.954 483.758 205.664L485.944 207.718ZM133.091 223.118C132.06 224.143 130.666 224.718 129.212 224.718V227.718C131.459 227.718 133.614 226.829 135.207 225.244L133.091 223.118ZM250.351 246.019C248.897 246.019 247.503 245.443 246.472 244.418L244.356 246.545C245.949 248.129 248.104 249.019 250.351 249.019V246.019ZM710.658 260.798C709.125 260.798 707.661 260.158 706.62 259.032L704.417 261.069C706.026 262.809 708.288 263.798 710.658 263.798V260.798ZM339.78 265.718C338.749 266.743 337.355 267.319 335.901 267.319V270.319C338.148 270.319 340.303 269.429 341.896 267.845L339.78 265.718ZM206.434 204.588C204.841 203.003 202.686 202.114 200.439 202.114V205.114C201.893 205.114 203.287 205.69 204.318 206.715L206.434 204.588ZM458.988 232.5C461.335 232.5 463.577 231.53 465.184 229.82L462.997 227.766C461.957 228.872 460.507 229.5 458.988 229.5V232.5ZM215.61 138.514C214.017 136.929 211.862 136.04 209.615 136.04V139.04C211.069 139.04 212.464 139.615 213.494 140.641L215.61 138.514ZM95.9481 200.513C94.9175 201.539 93.5229 202.114 92.0692 202.114V205.114C94.3158 205.114 96.4711 204.225 98.0639 202.64L95.9481 200.513ZM1922.19 228.062C1920.6 226.477 1918.44 225.588 1916.2 225.588V228.588C1917.65 228.588 1919.04 229.163 1920.07 230.189L1922.19 228.062ZM521.989 302.16C520.382 300.454 518.143 299.486 515.799 299.486V302.486C517.316 302.486 518.765 303.112 519.804 304.217L521.989 302.16ZM1560.86 245.08C1559.82 246.231 1558.34 246.888 1556.79 246.888V249.888C1559.19 249.888 1561.48 248.873 1563.09 247.093L1560.86 245.08ZM238.116 158.644C236.662 158.644 235.267 158.069 234.237 157.043L232.121 159.17C233.714 160.755 235.869 161.644 238.116 161.644V158.644Z" fill="url(#paint0_linear_481_16)"/>
<defs>
<linearGradient id="paint0_linear_481_16" x1="8" y1="8" x2="1828" y2="454.001" gradientUnits="userSpaceOnUse">
<stop stop-color="#0AB2F6"/>
<stop offset="1" stop-color="#F90506"/>
</linearGradient>
</defs>
</svg>
