<svg width="50" height="400" viewBox="0 0 50 400" fill="none" xmlns="http://www.w3.org/2000/svg">
<path d="M0 394.974C0 397.736 2.30638 400.076 4.89268 399.109C16.5683 394.74 25.634 374.455 34.4199 341.421C44.3957 303.914 50 253.043 50 200C50 146.957 44.3957 96.0859 34.42 58.5787C25.634 25.5448 16.5683 5.26009 4.89269 0.891352C2.30639 -0.0763823 1.21827e-05 2.26414 1.21827e-05 5.02557V5.02557C1.21827e-05 7.78699 2.31479 9.97314 4.88186 10.9908C15.8233 15.3283 24.2461 34.5408 32.5297 65.6859C42.0041 101.308 47.3267 149.622 47.3267 200C47.3267 250.378 42.0041 298.692 32.5297 334.314C24.2461 365.459 15.8233 384.672 4.88184 389.009C2.31477 390.027 0 392.213 0 394.974V394.974Z" fill="url(#paint0_linear_239_5)"/>
<defs>
<linearGradient id="paint0_linear_239_5" x1="0" y1="0" x2="-3.0459e-05" y2="400" gradientUnits="userSpaceOnUse">
<stop stop-color="#00B8FF" stop-opacity="0"/>
<stop offset="0.5625" stop-color="#FE0000"/>
<stop offset="1" stop-color="#00B8FF" stop-opacity="0"/>
</linearGradient>
</defs>
</svg>
