<svg width="674" height="778" viewBox="0 0 674 778" fill="none" xmlns="http://www.w3.org/2000/svg">
<path d="M307.634 19.7742C325.734 9.32423 348.034 9.32423 366.134 19.7742L642.018 179.056C660.118 189.506 671.268 208.818 671.268 229.718V548.282C671.268 569.182 660.118 588.494 642.018 598.944L366.134 758.226C348.034 768.676 325.734 768.676 307.634 758.226L31.75 598.944C13.65 588.494 2.5 569.182 2.5 548.282V229.718C2.5 208.818 13.65 189.506 31.75 179.056L307.634 19.7742Z" stroke="url(#paint0_linear_249_2)" stroke-width="5"/>
<path d="M155.862 256.529C155.259 256.636 154.68 256.854 154.155 257.171L139.761 265.862C138.677 266.516 138.401 267.968 139.169 268.975C139.673 269.636 140.515 269.943 141.326 269.761L144.98 268.945L149.12 267.403C149.679 267.195 150.27 267.088 150.865 267.088H152.207C153.112 267.088 154 266.843 154.776 266.378L164.858 260.341C165.199 260.137 165.563 259.974 165.943 259.856L178.016 256.103C178.346 256.001 178.685 255.933 179.029 255.9L188.632 254.992C189.711 254.89 190.727 254.441 191.528 253.712L193.551 251.87C194.092 251.377 194.734 251.01 195.433 250.792L206.722 247.283C207.246 247.121 207.739 246.873 208.182 246.55L210.275 245.026C211.131 244.403 212.161 244.067 213.219 244.067H218.252C218.94 244.067 219.62 243.925 220.251 243.65L245.271 232.738C246.607 232.155 248.138 232.223 249.417 232.922C250.709 233.628 252.256 233.689 253.601 233.088L255.478 232.249C256.12 231.962 256.815 231.814 257.518 231.814H258.937C260.248 231.814 261.507 231.299 262.442 230.379L263.087 229.745C263.195 229.64 263.315 229.549 263.446 229.474C264.989 228.599 264.368 226.245 262.594 226.245H259.166C258.869 226.245 258.574 226.295 258.294 226.393L250.006 229.304C249.474 229.491 248.913 229.586 248.349 229.586H242.135C241.712 229.586 241.291 229.64 240.882 229.746L233.505 231.655C233.096 231.761 232.675 231.814 232.252 231.814H228.839C228.221 231.814 227.609 231.929 227.033 232.152L203.546 241.249C203.171 241.395 202.78 241.494 202.381 241.546L195.048 242.495C194.599 242.553 194.161 242.671 193.744 242.847L165.888 254.617C165.544 254.762 165.186 254.868 164.819 254.933L155.862 256.529Z" fill="url(#paint1_linear_249_2)" fill-opacity="0.7"/>
<path d="M226.833 249.887C225.308 250.137 223.956 248.883 224.091 247.344C224.197 246.12 225.222 245.181 226.45 245.181H230.197C231.07 245.181 231.928 244.953 232.685 244.518L234.905 243.245C235.662 242.811 236.52 242.582 237.393 242.582H240.309C241.091 242.582 241.862 242.399 242.56 242.047L246.327 240.147C247.025 239.795 247.796 239.612 248.578 239.612H252.827L260.983 238.498L268.263 236.841C268.834 236.711 269.43 236.76 269.971 236.982C272.324 237.946 272.324 241.277 269.971 242.241L269.681 242.36C269.324 242.507 268.941 242.582 268.555 242.582H259.388C258.943 242.582 258.5 242.641 258.071 242.759L249.849 245.004C249.419 245.122 248.976 245.181 248.531 245.181H242.531C241.85 245.181 241.176 245.32 240.55 245.59L233.453 248.651C233.078 248.812 232.685 248.928 232.282 248.994L226.833 249.887Z" fill="url(#paint2_linear_249_2)" fill-opacity="0.7"/>
<path d="M285.625 235.566C285.231 235.308 284.739 235.251 284.297 235.412C283.049 235.866 282.972 237.601 284.175 238.164L286.498 239.252C286.996 239.486 287.556 239.552 288.095 239.442L292.206 238.599C292.536 238.532 292.873 238.498 293.21 238.498H296.781L305.272 239.446C306.236 239.554 307.212 239.379 308.078 238.942L311.002 237.467C312.06 236.934 313.273 236.793 314.425 237.071L318.742 238.111C319.697 238.342 320.691 237.929 321.203 237.09C322.068 235.673 321.163 233.839 319.512 233.662L313.184 232.986C312.823 232.948 312.459 232.948 312.098 232.989L293.09 235.113C292.832 235.141 292.577 235.19 292.327 235.258L288.502 236.303C287.716 236.518 286.875 236.385 286.193 235.938L285.625 235.566Z" fill="url(#paint3_linear_249_2)" fill-opacity="0.7"/>
<path d="M249.137 206.725C248.149 206.005 247.879 204.648 248.516 203.605C248.942 202.907 249.701 202.481 250.519 202.481H280.123C280.652 202.481 281.177 202.397 281.68 202.232L288.519 199.991C289.465 199.681 290.49 199.718 291.411 200.095C292.249 200.439 293.177 200.501 294.054 200.272L300.848 198.501C302.02 198.195 303.263 198.348 304.326 198.929C305.025 199.31 305.808 199.51 306.604 199.51H312.063C312.447 199.51 312.83 199.466 313.203 199.379L317.534 198.365C318.481 198.143 319.471 198.202 320.385 198.535L322.47 199.294C322.864 199.438 323.274 199.531 323.691 199.572L333.956 200.582C334.246 200.61 334.538 200.613 334.828 200.591L347.666 199.605C348.471 199.543 349.28 199.677 350.021 199.995L357.832 203.348C358.215 203.512 358.616 203.628 359.026 203.692L369.803 205.39C370.06 205.431 370.32 205.451 370.581 205.451H383.684C384.908 205.451 386.082 205.938 386.947 206.805L388.251 208.11C389.075 208.935 389.189 210.232 388.522 211.189C388.104 211.787 387.438 212.164 386.711 212.213L377.854 212.818C377.28 212.857 376.703 212.797 376.149 212.64L365.205 209.536L344.361 206.565L317.656 203.648C317.334 203.613 317.01 203.609 316.688 203.636L295.422 205.451H279.932C279.095 205.451 278.27 205.662 277.535 206.063L274.547 207.696C273.68 208.169 272.693 208.375 271.709 208.288L257.404 207.021C256.775 206.965 256.141 207.029 255.535 207.21L253.157 207.918C252.092 208.236 250.94 208.038 250.042 207.384L249.137 206.725Z" fill="url(#paint4_linear_249_2)" fill-opacity="0.7"/>
<path d="M141.337 299.399C139.224 300.265 136.793 299.561 135.469 297.701L134.771 296.72C134.632 296.526 134.558 296.293 134.558 296.055C134.558 295.6 134.826 295.189 135.241 295.005L157.215 285.282L169.946 277.632C170.515 277.29 171.148 277.064 171.805 276.969L178.044 276.067C178.355 276.022 178.662 275.948 178.959 275.845L186.693 273.177C186.978 273.079 187.254 272.955 187.517 272.807L193.229 269.588C193.978 269.166 194.824 268.945 195.683 268.945H199.657C200.059 268.945 200.46 268.896 200.851 268.8L217.926 264.603C218.233 264.527 218.547 264.481 218.864 264.465L232.434 263.77C232.736 263.754 233.037 263.711 233.332 263.641L249.438 259.821C249.882 259.716 250.34 259.672 250.796 259.69L262.619 260.175C264.393 260.247 265.041 262.545 263.566 263.534C263.357 263.674 263.121 263.77 262.873 263.815L255.092 265.232L249.803 266.565C249.404 266.666 248.993 266.717 248.581 266.717H238.033C237.33 266.717 236.635 266.865 235.993 267.152L227.787 270.82C227.265 271.053 226.706 271.195 226.136 271.24L217.862 271.886C217.609 271.905 217.358 271.944 217.111 272.002L195.706 277.013C195.421 277.08 195.131 277.122 194.839 277.137L189.561 277.426C188.849 277.465 188.154 277.655 187.522 277.985L174.614 284.716C173.9 285.088 173.107 285.282 172.302 285.282H167.988C167.163 285.282 166.35 285.487 165.623 285.877L154.823 291.675C154.023 292.105 153.385 292.784 153.007 293.61C152.513 294.69 151.581 295.507 150.445 295.856L148.605 296.421L141.337 299.399Z" fill="url(#paint5_linear_249_2)" fill-opacity="0.7"/>
<path d="M281.83 255.492C281.233 255.548 280.657 255.745 280.15 256.066L276.729 258.232C274.817 259.443 275.499 262.387 277.749 262.633L283.774 263.558C284.579 263.682 285.402 263.607 286.171 263.34L296.781 259.662L308.25 256.877C308.758 256.754 309.281 256.711 309.801 256.75L314 257.063H319.403C319.995 257.063 320.551 256.781 320.901 256.303C321.799 255.077 320.923 253.35 319.403 253.35H317.172L308.11 254.464H292.703L281.83 255.492Z" fill="url(#paint6_linear_249_2)" fill-opacity="0.7"/>
<path d="M294.611 273.336C292.473 273.709 290.681 271.715 291.28 269.629C291.595 268.532 292.517 267.716 293.644 267.537L308.11 265.232L326.688 262.633H349.436C349.976 262.633 350.513 262.72 351.025 262.892L359.617 265.772C360.018 265.906 360.434 265.989 360.856 266.019L375.374 267.039C375.843 267.072 376.304 267.17 376.745 267.332L393.299 273.4L403.741 276.138C404.327 276.292 404.881 276.551 405.374 276.903L414.65 283.512C414.916 283.702 415.2 283.865 415.497 283.999L423.451 287.583C423.89 287.781 424.298 288.041 424.662 288.355L432.388 295.019C432.611 295.211 432.816 295.422 433.001 295.65L442.978 307.913C443.387 308.416 443.89 308.834 444.459 309.145L445.759 309.855C446.129 310.057 446.472 310.306 446.78 310.594L452.66 316.101L458.398 321.683C459.365 322.624 459.911 323.917 459.911 325.267V328.13C459.911 329.006 460.141 329.867 460.579 330.627L467.411 342.483C467.546 342.717 467.662 342.962 467.757 343.215L474.484 361.048C474.999 362.413 474.739 363.949 473.804 365.069C471.834 367.429 468.055 366.815 466.932 363.953L457.577 340.103C457.323 339.456 456.937 338.869 456.443 338.379L449.308 331.301C448.829 330.826 448.451 330.26 448.197 329.635L444.845 321.395C444.62 320.84 444.296 320.331 443.891 319.891L427.738 302.362L415.919 289.911C415.349 289.31 414.638 288.86 413.85 288.602L409.239 287.091C408.589 286.877 407.989 286.533 407.477 286.079L404.236 283.201C403.321 282.389 402.14 281.94 400.916 281.94H398.405C397.727 281.94 397.056 281.803 396.433 281.535L388.223 278.011C387.983 277.908 387.751 277.786 387.529 277.646L382.975 274.776C382.315 274.36 381.566 274.104 380.789 274.029L374.79 273.451C374.443 273.417 374.1 273.348 373.767 273.243L363.036 269.861C362.671 269.745 362.293 269.673 361.911 269.644L338.448 267.864C338.161 267.842 337.873 267.845 337.586 267.873L311.281 270.43L294.611 273.336Z" fill="url(#paint7_linear_249_2)" fill-opacity="0.7"/>
<path d="M400.57 212.238C400.258 212.17 399.934 212.164 399.619 212.222C397.911 212.533 397.075 214.486 398.028 215.936L398.638 216.865C398.997 217.411 399.517 217.833 400.126 218.071L409.612 221.789L424.566 225.873L431.293 228.323C432.17 228.642 433.152 228.442 433.832 227.804C434.925 226.781 434.867 225.031 433.709 224.083L433.221 223.683C432.892 223.413 432.51 223.216 432.1 223.104L428.889 222.227C427.873 221.949 427.031 221.235 426.592 220.276C426.168 219.349 425.367 218.649 424.391 218.353L413.691 215.105L400.57 212.238Z" fill="url(#paint8_linear_249_2)" fill-opacity="0.7"/>
<path d="M438.777 230.84C438.123 230.528 437.707 229.868 437.707 229.143C437.707 228.003 438.713 227.125 439.843 227.279L449.035 228.534C450.397 228.72 451.499 229.735 451.797 231.077C452.051 232.222 452.897 233.145 454.016 233.498L458.098 234.785L467.614 238.869L481.147 245.589C482.07 246.048 482.825 246.787 483.303 247.701C483.711 248.482 484.323 249.138 485.074 249.599L492.208 253.983C492.72 254.298 493.137 254.745 493.415 255.277C493.989 256.375 495.126 257.063 496.365 257.063H497.026C498.472 257.063 499.826 257.77 500.653 258.955L500.724 259.057C501.004 259.458 501.345 259.812 501.735 260.107L506.738 263.891C506.937 264.042 507.125 264.208 507.299 264.386L511.513 268.702C512.086 269.29 512.217 270.18 511.836 270.908C511.417 271.709 510.49 272.104 509.622 271.849L506.215 270.853C505.274 270.577 504.434 270.03 503.8 269.281L497.784 262.16C497.029 261.266 495.983 260.665 494.83 260.463L491.143 259.815C490.566 259.714 490.011 259.512 489.504 259.219L482.992 255.452C482.71 255.289 482.412 255.153 482.104 255.048L478.34 253.763C477.546 253.492 476.833 253.026 476.267 252.407L472.191 247.954C471.862 247.594 471.61 247.172 471.449 246.712C471.037 245.531 470.04 244.649 468.817 244.385L463.046 243.141C462.471 243.017 461.922 242.792 461.425 242.478L453.157 237.242C452.532 236.846 451.826 236.594 451.092 236.504L444.651 235.712C443.791 235.607 443.145 234.876 443.145 234.01C443.145 233.349 442.765 232.747 442.169 232.462L438.777 230.84Z" fill="url(#paint9_linear_249_2)" fill-opacity="0.7"/>
<path d="M463.138 265.374C462.546 265.058 462.176 264.441 462.176 263.771C462.176 262.612 463.245 261.749 464.378 261.993L469.85 263.173C470.469 263.307 471.056 263.556 471.581 263.908L475.771 266.717L481.661 270.43L485.882 273.888C486.674 274.537 487.248 275.414 487.526 276.4L487.754 277.211C488.196 278.779 489.373 280.034 490.91 280.574L495.523 282.193C497.059 282.733 498.237 283.988 498.679 285.556L499.105 287.069C499.256 287.607 499.497 288.115 499.816 288.574L500.563 289.645C500.948 290.196 501.44 290.665 502.01 291.022L506.815 294.032C508.081 294.826 508.85 296.215 508.85 297.709C508.85 299.009 509.433 300.241 510.438 301.065L516.767 306.25C517.225 306.626 517.612 307.08 517.912 307.591L522.578 315.556C522.79 315.918 523.046 316.251 523.341 316.549L528.307 321.557C528.626 321.879 528.9 322.242 529.121 322.637L533.379 330.25C533.639 330.716 533.973 331.136 534.366 331.497L539.852 336.521C540.887 337.468 541.475 338.806 541.475 340.209V341.09C541.475 342.657 542.21 344.133 543.459 345.078L546.222 347.167C546.97 347.733 547.543 348.498 547.878 349.374L549.368 353.283C549.543 353.741 549.784 354.171 550.084 354.559L557.254 363.836C557.878 364.643 558.101 365.69 557.859 366.682C557.541 367.983 558.028 369.349 559.098 370.155L567.117 376.2C568.112 376.95 568.791 378.045 569.021 379.27L569.336 380.945C569.49 381.764 569.845 382.532 570.371 383.178L576.82 391.105L581.738 397.485C582.081 397.929 582.323 398.443 582.448 398.989L582.745 400.286C583.179 402.184 585.323 403.122 587.011 402.153C587.734 401.739 588.601 401.655 589.39 401.925L592.315 402.924C593.148 403.208 593.891 403.707 594.469 404.37L598.118 408.556L602.718 413.696C602.973 413.981 603.195 414.295 603.379 414.631L608.725 424.403C608.901 424.725 608.993 425.086 608.993 425.453C608.993 426.252 608.556 426.988 607.854 427.372L607.641 427.489C606.8 427.948 605.773 427.907 604.972 427.381L604.008 426.75L601.038 424.316C600.337 423.741 599.93 422.883 599.93 421.977V421.428C599.93 420.061 598.822 418.952 597.455 418.952C596.726 418.952 596.034 418.631 595.563 418.075L592.227 414.126L590.833 412.857C590.024 412.12 588.75 412.876 589.01 413.939C589.04 414.063 589.091 414.18 589.16 414.286L591.909 418.469C592.12 418.79 592.294 419.135 592.426 419.496L593.138 421.44C593.432 422.244 593.927 422.958 594.576 423.515L597.541 426.06C600.012 428.182 599.26 432.184 596.187 433.263C594.606 433.818 592.847 433.388 591.7 432.167L590.374 430.754C589.526 429.851 589.055 428.66 589.055 427.423C589.055 425.837 588.283 424.351 586.985 423.44L586.547 423.132C586.107 422.823 585.72 422.445 585.401 422.013L577.174 410.891C576.939 410.573 576.742 410.228 576.589 409.864L573.002 401.374C572.829 400.965 572.603 400.582 572.33 400.233L560.507 385.164L551.273 372.913C551.086 372.664 550.922 372.399 550.784 372.12L544.523 359.465C544.305 359.025 544.023 358.619 543.687 358.26L540.116 354.457C539.815 354.136 539.558 353.777 539.351 353.39L537.289 349.527C536.771 348.558 535.949 347.786 534.95 347.331L533.998 346.898C532.972 346.431 532.133 345.63 531.619 344.626L526.522 334.666L514.965 314.634C514.816 314.374 514.643 314.129 514.45 313.901L499.334 296.05L494.349 291.594L484.303 280.858C484.053 280.59 483.774 280.351 483.472 280.145L476.507 275.389C476.02 275.056 475.595 274.64 475.253 274.159L473.28 271.387C472.832 270.757 472.244 270.241 471.563 269.877L463.138 265.374Z" fill="url(#paint10_linear_249_2)" fill-opacity="0.7"/>
<path d="M369.536 377.873C369.97 378.03 370.379 378.245 370.754 378.513L384.69 388.505L391.593 392.182C392.922 392.89 393.753 394.273 393.753 395.779C393.753 396.127 393.708 396.473 393.62 396.81L393.013 399.13C392.622 400.626 391.561 401.856 390.139 402.463L387.896 403.421C387.275 403.685 386.608 403.822 385.933 403.822H379.13C378.034 403.822 376.967 403.461 376.096 402.796L372.853 400.32C372.588 400.118 372.304 399.943 372.005 399.797L368.279 397.985C367.195 397.458 366.407 396.468 366.138 395.293C365.855 394.06 365.003 393.035 363.843 392.53L359.535 390.655C359.126 390.477 358.861 390.073 358.861 389.627C358.861 389.007 359.363 388.505 359.982 388.505H362.483C362.786 388.505 363.088 388.543 363.381 388.619L369.215 390.112C369.858 390.277 370.462 390.568 370.991 390.968L375.488 394.369C375.88 394.667 376.315 394.904 376.778 395.074L382.033 397.007C382.292 397.102 382.565 397.151 382.841 397.151H383.025C384.76 397.151 385.835 395.263 384.95 393.771C384.779 393.482 384.545 393.236 384.265 393.05L378.218 389.024C377.703 388.681 377.13 388.437 376.527 388.303L365.688 385.906L360.212 384.841C357.852 384.382 355.499 385.668 354.611 387.903L350.604 397.989C350.09 399.281 350.138 400.729 350.736 401.985L351.421 403.423C351.547 403.688 351.65 403.964 351.728 404.247L352.957 408.717C353.259 409.814 353.926 410.776 354.848 411.443L361.127 415.982L369.06 421.833C369.799 422.378 370.673 422.708 371.587 422.789L384.631 423.945C386.104 424.075 387.444 424.852 388.291 426.065L390.901 429.808C391.836 431.149 393.367 431.948 395.002 431.948H401.527C401.781 431.948 402.035 431.929 402.286 431.89L406.861 431.187C408.318 430.963 409.602 430.108 410.37 428.85L410.689 428.328C410.877 428.019 411.098 427.732 411.348 427.472L414.565 424.116C415.458 423.185 415.956 421.945 415.956 420.656V418.741C415.956 417.024 416.838 415.427 418.29 414.511L420.988 412.811C421.549 412.457 422.199 412.269 422.863 412.269C424.804 412.269 426.379 413.843 426.379 415.785V416.731C426.379 417.219 426.299 417.703 426.142 418.164L424.33 423.51C424.186 423.935 423.985 424.339 423.733 424.711L419.581 430.834L417.198 433.764C416.4 434.745 415.26 435.387 414.007 435.561L390.739 438.792C389.75 438.93 388.742 438.767 387.846 438.327L386.246 437.54C385.238 437.045 384.093 436.903 382.994 437.138L375.942 438.645C374.857 438.877 373.725 438.742 372.726 438.26L366.564 435.29L358.173 432.599C356.876 432.183 355.804 431.256 355.207 430.032L350.041 419.45C349.88 419.119 349.682 418.808 349.453 418.52L343.22 410.725C341.985 409.18 341.776 407.053 342.688 405.298L342.892 404.905C343.261 404.193 343.454 403.403 343.454 402.601V384.749C343.454 383.727 342.267 383.166 341.478 383.813C341.289 383.967 341.152 384.175 341.084 384.408L338.671 392.644C338.538 393.101 338.47 393.574 338.47 394.05V399.755C338.47 400.884 338.081 401.979 337.368 402.856C335.898 404.662 335.898 407.252 337.368 409.058L337.676 409.437C338.197 410.077 338.552 410.837 338.708 411.647L339.46 415.553C339.697 416.782 340.396 417.874 341.413 418.603L341.886 418.942C342.87 419.648 343.454 420.785 343.454 421.996C343.454 423.331 344.162 424.565 345.314 425.239L348.112 426.877C349.196 427.511 350.002 428.531 350.368 429.733L350.853 431.321C351.328 432.878 352.531 434.106 354.078 434.613L355.367 435.036C355.88 435.204 356.363 435.455 356.796 435.777L359.797 438.013C360.66 438.656 361.708 439.003 362.784 439.003H364.458C365.805 439.003 367.095 439.546 368.036 440.51L368.179 440.657C369.424 441.932 371.252 442.448 372.979 442.013L373.791 441.808C375.24 441.443 376.777 441.745 377.981 442.632L379.17 443.51C380.102 444.197 381.244 444.539 382.4 444.479L414.028 442.817C415.269 442.752 416.441 442.227 417.316 441.345L426.288 432.296C427.217 431.36 427.738 430.094 427.738 428.776V425.829C427.738 425.454 427.78 425.08 427.864 424.714L430.045 415.181C430.311 414.02 430.154 412.803 429.602 411.748L428.565 409.766C428.03 408.743 427.865 407.567 428.099 406.437L432.427 385.479C432.62 384.546 432.542 383.577 432.202 382.686L431.003 379.541C430.647 378.608 430.579 377.589 430.807 376.617L432.352 370.035C432.593 369.008 432.503 367.931 432.095 366.958L427.907 356.975C427.794 356.708 427.706 356.431 427.641 356.148L424.464 342.153C424.235 341.147 423.702 340.236 422.935 339.546L420.755 337.581C419.991 336.892 419.458 335.985 419.229 334.982L418.865 333.393C418.489 331.748 417.025 330.582 415.338 330.582C413.807 330.582 412.442 329.618 411.928 328.176L410.512 324.196C409.95 322.618 408.636 321.427 407.011 321.021L400.5 319.398C399.642 319.184 398.856 318.746 398.223 318.13L392.52 312.58C392.136 312.207 391.694 311.897 391.212 311.664L383.003 307.689C382.324 307.36 381.579 307.189 380.824 307.189H371.603C370.679 307.189 369.773 306.933 368.985 306.449L365.572 304.351C365.03 304.019 364.43 303.792 363.804 303.684L359.533 302.947C357.906 302.667 357.075 300.834 357.934 299.425C358.482 298.528 359.561 298.106 360.572 298.394L379.705 303.848L407.259 311.732C407.915 311.919 408.525 312.239 409.053 312.671L425.351 326.026C426.001 326.559 426.379 327.356 426.379 328.197C426.379 329.005 426.726 329.773 427.333 330.306L431.579 334.033C432.324 334.688 432.858 335.549 433.113 336.508L437.087 351.487C437.198 351.906 437.254 352.337 437.254 352.769V365.952C437.254 366.624 437.389 367.288 437.651 367.906L440.385 374.347C440.709 375.11 440.838 375.942 440.761 376.768L439.066 394.818L437.283 419.659C437.264 419.93 437.222 420.199 437.159 420.464L433.128 437.31C432.865 438.406 432.24 439.382 431.353 440.078L423.207 446.475C422.326 447.167 421.238 447.543 420.119 447.543H410.322C409.557 447.543 408.802 447.719 408.116 448.056L405.671 449.258C404.985 449.595 404.23 449.771 403.465 449.771H401.399C400.271 449.771 399.185 450.2 398.362 450.971C397.193 452.065 395.527 452.447 393.999 451.97L387.363 449.898C387.092 449.813 386.814 449.752 386.532 449.715L370.684 447.609C370.355 447.565 370.031 447.489 369.718 447.381L357.154 443.064C356.487 442.835 355.876 442.467 355.361 441.985L350.967 437.869C350.216 437.166 349.226 436.775 348.198 436.775C346.677 436.775 345.284 435.923 344.591 434.57L340.755 427.074C340.162 425.914 339.138 425.031 337.903 424.615L334.682 423.528C333.087 422.99 331.869 421.685 331.443 420.055L330.926 418.077C330.82 417.672 330.664 417.282 330.461 416.916L329.128 414.514C328.717 413.772 328.501 412.938 328.501 412.089V409.031C328.501 408.471 328.406 407.914 328.222 407.385L327.156 404.328C326.85 403.451 326.795 402.506 326.996 401.599L328.501 394.818L330.622 386.473C330.718 386.096 330.857 385.732 331.038 385.388L334.372 379.013C334.684 378.416 335.113 377.889 335.634 377.462L337.881 375.621C339.106 374.617 340.735 374.253 342.272 374.64L344.874 375.296C345.403 375.43 345.832 375.816 346.02 376.329C346.473 377.566 348.122 377.799 348.9 376.736L349.31 376.176C349.623 375.749 350.091 375.462 350.614 375.376L357.579 374.235C358.42 374.097 359.282 374.176 360.083 374.465L369.536 377.873Z" fill="url(#paint11_linear_249_2)" fill-opacity="0.7"/>
<path d="M343.828 438.785C343.599 437.097 342.439 435.682 340.828 435.127L339.197 434.564C337.066 433.828 334.845 435.412 334.845 437.667C334.845 438.523 335.18 439.346 335.778 439.959L338.47 442.716L354.76 456.064C355.654 456.797 356.774 457.197 357.929 457.197H367.068C367.616 457.197 368.143 456.981 368.534 456.597C369.419 455.727 369.356 454.282 368.398 453.492L366.418 451.859C365.937 451.462 365.376 451.171 364.773 451.007L357.291 448.97C356.536 448.764 355.839 448.384 355.257 447.86L352.525 445.397C351.925 444.855 351.202 444.468 350.418 444.267L347.622 443.551C345.651 443.046 344.182 441.397 343.908 439.379L343.828 438.785Z" fill="url(#paint12_linear_249_2)" fill-opacity="0.7"/>
<path d="M367.601 461.106C366.932 460.98 366.241 461.099 365.654 461.443C363.552 462.673 363.895 465.809 366.212 466.557L375.174 469.45L392.684 475.399C393.388 475.638 394.136 475.717 394.874 475.631L403.268 474.648H413.129C413.502 474.648 413.874 474.69 414.238 474.773L420.233 476.138C421.281 476.376 422.378 476.271 423.361 475.837L427.156 474.163C427.542 473.992 427.949 473.871 428.366 473.803L438.226 472.187C438.782 472.096 439.319 471.911 439.814 471.641L447.234 467.587C448.113 467.108 448.827 466.375 449.284 465.485L455.832 452.741L463.305 440.495C463.459 440.243 463.59 439.979 463.696 439.705L469.508 424.783C470.032 423.438 469.949 421.931 469.279 420.652L468.826 419.785C468.067 418.333 468.067 416.602 468.826 415.15L470.543 411.867C471.267 410.483 471.302 408.839 470.639 407.425L469.9 405.852C469.588 405.187 469.427 404.462 469.427 403.728V391.496C469.427 391.235 469.406 390.975 469.366 390.718L467.614 379.594L462.176 361.4L457.547 348.295C457.313 347.633 456.942 347.027 456.459 346.518L451.878 341.692C451.206 340.984 450.756 340.095 450.583 339.134L450.31 337.612C450.074 336.3 449.324 335.136 448.227 334.379L446.171 332.963C445.668 332.616 445.233 332.18 444.887 331.676L437.511 320.932C437.34 320.682 437.146 320.448 436.933 320.234L424.278 307.523C423.58 306.821 422.688 306.343 421.717 306.148L406.418 303.084C404.905 302.781 403.68 304.31 404.306 305.72C404.512 306.185 404.896 306.548 405.371 306.728L409.833 308.415C410.288 308.587 410.715 308.825 411.101 309.12L417.316 313.873L424.956 319.507C425.876 320.186 426.536 321.16 426.826 322.266L427.294 324.058C427.581 325.156 428.234 326.124 429.145 326.802L431.604 328.634C432.336 329.179 432.904 329.915 433.248 330.76L434.58 334.033C434.849 334.695 435.257 335.291 435.776 335.782L438.941 338.774C440.152 339.92 440.713 341.593 440.436 343.237L439.221 350.459C439.119 351.064 439.129 351.683 439.252 352.285L440.879 360.286L443.145 371.054L445.41 379.594L448.11 395.082C448.404 396.767 447.816 398.486 446.551 399.638L446.349 399.821C445.187 400.879 444.59 402.421 444.737 403.986L445.355 410.564C445.392 410.957 445.382 411.352 445.326 411.742L444.504 417.467L443.221 427.277C443.17 427.667 443.074 428.049 442.933 428.417L436.202 445.996C435.999 446.528 435.705 447.022 435.335 447.456L433.96 449.065C433.163 449.998 432.051 450.605 430.835 450.771L408.253 453.855L396.218 456.576C395.49 456.74 394.734 456.74 394.006 456.574L388.338 455.284C387.434 455.078 386.491 455.128 385.613 455.427L383.427 456.174C382.202 456.592 380.863 456.519 379.691 455.97L375.854 454.174C375.42 453.971 374.922 453.958 374.479 454.14C373.45 454.561 373.091 455.837 373.747 456.734L374.59 457.885C374.968 458.401 375.51 458.774 376.127 458.942L379.551 459.878C380.216 460.059 380.929 459.908 381.462 459.47C382.057 458.983 382.867 458.854 383.583 459.132L390.378 461.77C390.813 461.938 391.269 462.045 391.734 462.088L402.512 463.069C403.014 463.115 403.519 463.084 404.011 462.979L424.113 458.682L433.935 457.135C435.159 456.942 436.204 456.148 436.72 455.022C437.066 454.266 437.656 453.649 438.396 453.27L439.288 452.813C440.317 452.287 441.131 451.42 441.593 450.361L442.663 447.906C442.979 447.179 443.464 446.538 444.077 446.036L447.46 443.265C448.47 442.437 449.116 441.247 449.26 439.949L450.336 430.246C450.375 429.897 450.451 429.552 450.562 429.218L455.423 414.612C455.692 413.806 455.75 412.945 455.593 412.11L453.385 400.347C453.208 399.404 453.306 398.429 453.668 397.54L455.337 393.436C455.662 392.638 455.775 391.769 455.665 390.915L454.02 378.109L453.203 371.079C453.144 370.57 453.007 370.074 452.797 369.606L450.249 363.94C450.053 363.505 450.052 363.008 450.245 362.572L450.429 362.158C450.944 360.999 452.586 360.989 453.114 362.143L455.425 367.508C455.694 368.133 455.832 368.806 455.832 369.486V371.212C455.832 372.287 456.314 373.306 457.146 373.987C458.27 374.908 458.727 376.417 458.303 377.808L457.83 379.359C457.423 380.693 457.591 382.135 458.294 383.339L461.115 388.172C461.794 389.335 461.975 390.723 461.617 392.021L459.383 400.127C459.136 401.025 459.144 401.975 459.407 402.868L461.825 411.077C462.056 411.86 462.091 412.687 461.929 413.487L459.004 427.864L452.161 448.543C451.894 449.348 451.427 450.073 450.803 450.648L438.943 461.581C437.871 462.569 436.421 463.04 434.972 462.871L428.953 462.166C428.155 462.073 427.346 462.173 426.594 462.459L415.909 466.524C415.341 466.74 414.739 466.851 414.131 466.851H400.55L392.431 467.801C391.517 467.908 390.592 467.761 389.756 467.376L384.78 465.082C384.123 464.78 383.409 464.623 382.687 464.623H378.665C377.86 464.623 377.067 464.429 376.353 464.057L373.111 462.366C372.676 462.139 372.21 461.978 371.728 461.887L367.601 461.106Z" fill="url(#paint13_linear_249_2)" fill-opacity="0.7"/>
<path d="M242.289 295.409C241.765 295.588 241.275 295.852 240.838 296.191L235.199 300.569C234.143 301.389 234.326 303.035 235.537 303.602C235.878 303.762 236.259 303.81 236.628 303.74L247.067 301.766C247.581 301.669 248.076 301.492 248.535 301.241L258.187 295.969C258.539 295.776 258.914 295.627 259.302 295.524L274.124 291.594L292.398 283.933C293.192 283.601 294.058 283.478 294.913 283.578L295.437 283.64C296.317 283.743 297.209 283.61 298.021 283.255L302.254 281.405C303.119 281.027 304.073 280.902 305.007 281.043L314.11 282.425C315.213 282.592 316.341 282.385 317.314 281.838L321.338 279.57C322.446 278.946 323.751 278.768 324.986 279.071L331.538 280.682C331.928 280.778 332.329 280.827 332.731 280.827H356.795C357.264 280.827 357.73 280.892 358.18 281.022L381.971 287.881L394.16 290.137C395.358 290.358 396.433 291.009 397.185 291.967L399.239 294.586C399.8 295.301 400.545 295.85 401.395 296.173L412.784 300.506L418.799 303.463C419.296 303.707 419.875 303.727 420.389 303.517C421.701 302.979 422.01 301.26 420.967 300.298L419.751 299.177C419.638 299.073 419.517 298.978 419.39 298.892L405.553 289.615C404.944 289.207 404.252 288.938 403.528 288.826L398.214 288.01C397.66 287.925 397.125 287.747 396.631 287.485L390.773 284.38C390.052 283.997 389.247 283.797 388.431 283.797H386.155C385.198 283.797 384.262 283.522 383.456 283.006L375.077 277.632C374.542 277.29 373.947 277.052 373.324 276.932L359.236 274.215C358.986 274.167 358.733 274.138 358.479 274.129L330.572 273.073C329.806 273.044 329.043 273.192 328.343 273.505L325.129 274.941C324.661 275.15 324.163 275.286 323.654 275.344L308.617 277.056C308.279 277.094 307.947 277.167 307.625 277.272L304.872 278.175C304.025 278.452 303.119 278.498 302.248 278.308L298.796 277.554C297.506 277.272 296.156 277.512 295.042 278.222L293.61 279.135C293.012 279.516 292.34 279.765 291.638 279.867L285.46 280.76C285.154 280.804 284.852 280.877 284.56 280.977L242.289 295.409Z" fill="url(#paint14_linear_249_2)" fill-opacity="0.7"/>
<path d="M418.204 536.657C417.915 536.657 417.625 536.631 417.34 536.581L392.305 532.185C390.145 531.806 388.674 534.313 390.058 536.014C390.396 536.43 390.866 536.719 391.39 536.833L417.241 542.482C417.592 542.559 417.95 542.597 418.309 542.597H437.237C437.55 542.597 437.861 542.568 438.169 542.51L466.994 537.044C469.084 536.648 469.971 534.147 468.599 532.522C467.974 531.782 467.009 531.421 466.052 531.569L433.556 536.598C433.303 536.637 433.047 536.657 432.791 536.657H418.204Z" fill="url(#paint15_linear_249_2)" fill-opacity="0.7"/>
<path d="M414.705 545.979C414.633 545.952 414.559 545.932 414.484 545.917L402.014 543.424C400.065 543.035 398.73 545.337 400.036 546.835C400.367 547.215 400.825 547.462 401.324 547.53L408.706 548.538H415.31C415.438 548.538 415.565 548.517 415.685 548.474C416.69 548.122 416.698 546.704 415.698 546.34L414.705 545.979Z" fill="url(#paint16_linear_249_2)" fill-opacity="0.7"/>
<path d="M424.119 546.008C423.819 545.963 423.513 546.008 423.239 546.136C422.097 546.671 422.047 548.277 423.154 548.881L423.977 549.33C424.359 549.539 424.799 549.619 425.231 549.556L431.454 548.656C431.994 548.578 432.543 548.589 433.079 548.688L445.585 551.002C446.07 551.092 446.566 551.109 447.056 551.054L458.725 549.735C459.211 549.68 459.702 549.697 460.183 549.784L466.497 550.934C467.232 551.068 467.988 551.035 468.71 550.838L479.872 547.789C482.33 547.118 482.72 543.795 480.483 542.573C480.067 542.345 479.6 542.226 479.126 542.226H464.088C463.721 542.226 463.355 542.267 462.997 542.347L445.263 546.31C444.183 546.551 443.054 546.427 442.052 545.958L441.761 545.822C440.89 545.414 439.918 545.266 438.965 545.396L434.988 545.939L429.305 546.605C428.866 546.656 428.423 546.649 427.986 546.584L424.119 546.008Z" fill="url(#paint17_linear_249_2)" fill-opacity="0.7"/>
<path d="M420.672 562.782C419.402 562.697 418.231 562.07 417.456 561.061C415.056 557.938 417.621 553.47 421.529 553.968L451.167 557.746C451.557 557.796 451.952 557.799 452.342 557.757L464.498 556.429C465.061 556.367 465.63 556.402 466.181 556.531L470.488 557.539C471.279 557.724 472.103 557.714 472.889 557.509L490.254 552.982C491.133 552.752 492.068 552.892 492.842 553.368L493.985 554.07C495.935 555.268 495.609 558.195 493.443 558.935L477.218 563.247C476.858 563.342 476.489 563.398 476.117 563.411L446.317 564.505L420.672 562.782Z" fill="url(#paint18_linear_249_2)" fill-opacity="0.7"/>
<path d="M442.066 575.644C441.294 575.644 440.541 575.403 439.912 574.955C436.968 572.857 438.452 568.218 442.066 568.218H445.288C445.966 568.218 446.636 568.363 447.253 568.644L449.079 569.475C449.939 569.866 450.891 570.006 451.827 569.879L458.551 568.96L470.832 568.266C471.401 568.234 471.972 568.299 472.519 568.46L476.71 569.686C477.578 569.94 478.498 569.954 479.373 569.726L505.368 562.964C506.151 562.761 506.982 562.852 507.702 563.221L509.261 564.019C511.706 565.271 511.035 568.935 508.305 569.24C507.773 569.3 507.27 569.512 506.856 569.851L499.362 575.992C498.197 576.946 496.665 577.325 495.19 577.023L489.245 575.805C488.724 575.698 488.189 575.675 487.661 575.737L478.942 576.758H468.599C467.948 576.758 467.305 576.631 466.703 576.384L463.831 575.208C462.761 574.769 461.572 574.715 460.467 575.055L459.269 575.423C458.793 575.569 458.298 575.644 457.8 575.644H442.066Z" fill="url(#paint19_linear_249_2)" fill-opacity="0.7"/>
<path d="M489.365 581.46L472.458 580.898C468.469 580.766 467.073 586.135 470.62 587.963C471.317 588.322 472.109 588.453 472.885 588.337L476.183 587.846C476.511 587.797 476.844 587.781 477.175 587.798L490.571 588.484C490.974 588.504 491.377 588.476 491.773 588.4L497.206 587.352C498.292 587.143 499.416 587.3 500.404 587.798L503.318 589.267C504.262 589.743 505.334 589.908 506.378 589.737L508.901 589.323C509.168 589.279 509.439 589.257 509.71 589.257H520.706C522.095 589.257 523.412 588.643 524.305 587.579C526.175 585.35 525.59 581.975 523.08 580.505L516.918 576.897C515.57 576.107 513.93 575.994 512.485 576.589L499.203 582.067C498.398 582.399 497.52 582.515 496.656 582.403L489.365 581.46Z" fill="url(#paint20_linear_249_2)" fill-opacity="0.7"/>
<path d="M367.196 524.992C366.496 524.852 365.87 524.465 365.432 523.901C363.662 521.621 365.855 518.41 368.623 519.231L380.674 522.802C380.934 522.879 381.2 522.935 381.469 522.969L409.964 526.561C410.333 526.608 410.705 526.613 411.075 526.577L448.121 522.963C448.428 522.933 448.731 522.875 449.027 522.789L484.328 512.559C485.25 512.292 486.075 511.766 486.705 511.043L505.516 489.463C505.922 488.997 506.239 488.46 506.449 487.878L509.516 479.396C509.675 478.956 509.772 478.496 509.803 478.029L511.511 452.487C511.549 451.918 511.489 451.347 511.335 450.798L506.239 432.705C506.167 432.448 506.115 432.186 506.085 431.922L503.928 413.191C503.886 412.825 503.804 412.465 503.682 412.117L498.564 397.437C498.474 397.178 498.427 396.905 498.427 396.631C498.427 394.354 501.261 393.308 502.74 395.039L507.045 400.078C507.632 400.766 508.018 401.603 508.158 402.496L509.685 412.191C509.732 412.49 509.806 412.784 509.906 413.069L519.108 439.28C519.217 439.59 519.295 439.909 519.341 440.234L521.419 454.874C521.497 455.429 521.482 455.992 521.374 456.542L517.235 477.571C517.084 478.335 517.114 479.123 517.322 479.873L518.685 484.786C519.059 486.134 518.851 487.577 518.111 488.765L508.456 504.273C508.118 504.815 507.666 505.276 507.131 505.624L500.505 509.929C498.823 511.023 499.597 513.636 501.604 513.636C501.899 513.636 502.191 513.571 502.459 513.445L510.659 509.606C511.259 509.325 511.796 508.925 512.237 508.431L515.982 504.238C518.391 501.54 522.807 503.847 521.969 507.365C521.7 508.499 520.881 509.423 519.788 509.826L499.266 517.41C498.711 517.615 498.125 517.72 497.533 517.72H488.08C487.729 517.72 487.379 517.757 487.035 517.83L477.678 519.831C477.314 519.909 476.959 520.027 476.622 520.183L467.295 524.503C466.905 524.683 466.494 524.813 466.071 524.888L445.863 528.488L418.255 531.407C417.932 531.441 417.606 531.444 417.282 531.415L384.69 528.488L367.196 524.992Z" fill="url(#paint21_linear_249_2)" fill-opacity="0.7"/>
<path d="M538.514 492.9C538.942 494.69 538.336 496.568 536.945 497.772C534.208 500.139 529.939 498.848 528.971 495.362L524.541 479.39C524.354 478.713 524.319 478.002 524.44 477.31C525.18 473.061 530.752 471.933 533.087 475.559L534.67 478.016C534.975 478.49 535.199 479.013 535.33 479.562L538.514 492.9Z" fill="url(#paint22_linear_249_2)" fill-opacity="0.7"/>
<path d="M548.807 480.788C549.84 482.664 549.553 484.991 548.095 486.559C545.755 489.075 541.628 488.508 540.053 485.454L529.694 465.366L524.471 452.169C524.328 451.809 524.228 451.434 524.172 451.051L519.552 419.385C519.372 418.151 518.737 417.029 517.773 416.239L515.212 414.141C514.053 413.191 513.381 411.772 513.381 410.273V404.921C513.381 404.377 513.292 403.835 513.116 403.321C509.667 393.288 506.424 387.77 498.034 380.748C496.865 379.769 496.162 378.334 496.162 376.809V375.336C496.162 374.476 495.94 373.631 495.518 372.882L491.368 365.513C490.946 364.764 490.724 363.919 490.724 363.059V360.259C490.724 358.857 490.135 357.519 489.101 356.572L484.265 352.143C483.62 351.553 482.597 351.698 482.142 352.444C481.851 352.921 481.874 353.526 482.201 353.979L486.608 360.09C487.222 360.942 487.552 361.965 487.552 363.015V369.078C487.552 370.122 487.878 371.139 488.486 371.988L494.087 379.818C494.837 380.866 495.153 382.162 494.97 383.438L493.698 392.295C493.533 393.446 493.774 394.618 494.38 395.61L495.711 397.792C496.006 398.275 496.162 398.83 496.162 399.396C496.162 401.615 493.884 403.105 491.851 402.216L491.151 401.91C490.037 401.424 489.247 400.405 489.052 399.206L487.552 389.991L484.063 373.553C483.973 373.127 483.827 372.714 483.629 372.325L473.078 351.574C472.763 350.955 472.599 350.27 472.599 349.575V345.844C472.599 344.88 473.503 344.171 474.439 344.401C476.017 344.789 476.983 342.726 475.676 341.762L473.056 339.83C472.756 339.609 472.52 339.314 472.369 338.973L461.388 314.054C461.015 313.207 460.414 312.481 459.652 311.955L452.207 306.818L445.58 302.293C444.623 301.639 444.051 300.555 444.051 299.397C444.051 297.851 443.038 296.487 441.558 296.04L437.003 294.665C435.988 294.359 435.097 293.738 434.458 292.892L430.152 287.193C429.755 286.667 429.258 286.225 428.689 285.892L401.899 270.212C401.313 269.869 400.836 269.368 400.521 268.767C399.972 267.716 398.941 267.001 397.763 266.855L385.128 265.286C384.836 265.25 384.549 265.188 384.268 265.101L357.77 256.914C357.292 256.767 356.794 256.692 356.294 256.692H335.897C335.219 256.692 334.565 256.443 334.057 255.993C332.264 254.4 333.202 251.436 335.586 251.166L342.047 250.436C342.38 250.398 342.716 250.394 343.051 250.424L378.831 253.603C379.701 253.681 380.535 253.984 381.251 254.484L391.702 261.779C392.16 262.098 392.667 262.339 393.204 262.49L417.745 269.425C418.359 269.598 418.935 269.888 419.44 270.278L456.66 299.003C457.307 299.502 457.821 300.152 458.159 300.897L463.173 311.959C463.413 312.488 463.743 312.972 464.149 313.387L474.411 323.898L492.083 346.176L501.146 361.4L516.1 387.763L523.819 403.224C524.108 403.803 524.282 404.432 524.331 405.077L525.163 415.982L528.266 437.413C528.311 437.73 528.388 438.041 528.493 438.343L533.634 453.087C533.726 453.351 533.84 453.607 533.975 453.852L548.807 480.788Z" fill="url(#paint23_linear_249_2)" fill-opacity="0.7"/>
<path d="M559.752 471.205C560.733 473.237 560.23 475.675 558.525 477.154L557.784 477.797C555.586 479.705 552.229 479.339 550.494 477.002L548.383 474.16C547.756 473.316 547.638 472.198 548.076 471.242C548.481 470.356 548.411 469.325 547.89 468.501L536.499 450.5C536.194 450.018 535.973 449.486 535.848 448.929L534.033 440.901C533.867 440.164 533.402 439.529 532.75 439.148C531.533 438.435 531.059 436.911 531.659 435.634L531.996 434.915C532.535 433.766 532.429 432.418 531.717 431.368L530.86 430.104C530.687 429.849 530.538 429.578 530.415 429.296L529.762 427.797C528.966 425.97 529.76 423.841 531.557 422.982L532.265 422.643C533.178 422.207 534.264 422.36 535.022 423.032L536.233 424.108C537.387 425.132 539.21 424.313 539.21 422.77C539.21 422.234 538.969 421.726 538.555 421.386L531.215 415.372C530.237 414.571 529.599 413.429 529.43 412.176L528.472 405.117C528.381 404.446 528.155 403.801 527.807 403.22L516.1 383.678L504.771 363.999L495.822 343.745C495.451 342.907 494.858 342.186 494.106 341.663L487.102 336.784C486.503 336.367 486.003 335.824 485.636 335.194L473.085 313.597C472.764 313.043 472.339 312.557 471.834 312.164L465.464 307.205C464.247 306.258 463.536 304.802 463.536 303.26V302.59C463.536 301.711 463.304 300.848 462.865 300.087L459.794 294.775C459.571 294.389 459.297 294.035 458.979 293.721L445.162 280.068C444.438 279.353 443.514 278.876 442.512 278.7L439.239 278.125C438.241 277.95 437.32 277.476 436.598 276.766L429.234 269.525C428.843 269.141 428.393 268.823 427.899 268.586L422.019 265.752C421.31 265.41 420.692 264.906 420.215 264.28L419.928 263.903C419.126 262.852 417.939 262.161 416.629 261.982L407.073 260.677C405.795 260.502 404.633 259.841 403.832 258.83L400.26 254.327C399.567 253.453 398.601 252.836 397.518 252.574L371.549 246.295L352.513 244.119C352.214 244.084 351.913 244.077 351.613 244.097L318.532 246.295L308.563 248.152L270.046 254.092L242.954 255.912C242.589 255.937 242.222 255.921 241.86 255.865L236.93 255.108C235.782 254.932 234.609 255.16 233.611 255.755L231.154 257.219C230.571 257.566 229.829 257.486 229.334 257.022C228.398 256.146 228.898 254.576 230.168 254.402L232.046 254.146C232.304 254.11 232.555 254.034 232.788 253.919L235.924 252.378C236.61 252.04 237.365 251.865 238.13 251.865H246.106C246.656 251.865 247.201 251.774 247.721 251.596L257.026 248.42C257.546 248.242 258.092 248.152 258.641 248.152H273.334C274.15 248.152 274.955 247.952 275.676 247.569L281.397 244.536C281.98 244.227 282.619 244.036 283.277 243.975L306.297 241.839H318.072C318.378 241.839 318.683 241.811 318.984 241.755L341.83 237.517C342.306 237.429 342.792 237.41 343.274 237.461L373.278 240.668C373.635 240.706 373.986 240.783 374.326 240.896L402.815 250.379L423.797 259.664C424.877 260.142 425.749 260.993 426.25 262.063C427.14 263.958 429.136 265.079 431.218 264.851L432.973 264.66C433.99 264.549 435.016 264.752 435.914 265.242L443.681 269.485C443.927 269.62 444.161 269.775 444.381 269.948L467.204 287.957C468.058 288.631 468.669 289.565 468.944 290.617L469.258 291.815C469.65 293.315 470.716 294.548 472.144 295.153L481.599 299.161C482.525 299.553 483.311 300.216 483.855 301.062L492.083 313.873L509.756 337.636L529.241 365.113L544.871 393.657C545.024 393.935 545.149 394.227 545.246 394.529L547.04 400.115C547.255 400.784 547.609 401.4 548.078 401.924L563.12 418.7C563.49 419.113 563.789 419.585 564.005 420.096L571.889 438.798C572.151 439.419 572.242 440.098 572.154 440.765C571.66 444.508 566.594 445.305 564.976 441.894L558.269 427.763C557.953 427.096 557.492 426.507 556.921 426.039L550.339 420.646C549.318 419.809 548.726 418.558 548.726 417.238C548.726 416.417 548.496 415.612 548.063 414.915L522.18 373.215C522.054 373.012 521.943 372.801 521.847 372.582L513.531 353.575C513.431 353.346 513.314 353.125 513.181 352.914L506.131 341.721L490.967 319.794C490.805 319.56 490.624 319.34 490.425 319.137L472.255 300.602C471.212 299.539 469.432 300.529 469.785 301.975C469.847 302.229 469.975 302.461 470.157 302.648L483.927 316.843L494.504 330.364C494.998 330.995 495.333 331.735 495.48 332.522L495.927 334.903C496.081 335.722 496.437 336.49 496.963 337.136L505.659 347.825C505.972 348.209 506.226 348.637 506.412 349.096L515.907 372.436C516.035 372.752 516.195 373.053 516.385 373.336L551.444 425.636L567.511 453.063C567.675 453.343 567.811 453.638 567.918 453.944L569.679 458.994C570.182 460.438 569.997 462.034 569.175 463.325L568.68 464.102C566.872 466.943 562.83 467.22 560.651 464.653L558.252 461.828C557.945 461.465 557.69 461.061 557.497 460.627L547.53 438.257C547.422 438.014 547.265 437.797 547.069 437.618C545.487 436.178 543.089 438.013 544.067 439.916L553.71 458.682L559.752 471.205Z" fill="url(#paint24_linear_249_2)" fill-opacity="0.7"/>
<path d="M583.913 431.163C585.665 433.419 584.46 436.73 581.668 437.332C580.11 437.668 578.505 437.017 577.622 435.69L573.648 429.72L570.741 425.976C570.565 425.75 570.37 425.539 570.158 425.346L567.476 422.904C566.772 422.263 566.266 421.435 566.017 420.516L564.863 416.263C564.68 415.588 564.357 414.959 563.916 414.417L559.148 408.556L549.632 393.704L545.37 386.719C545.191 386.425 544.982 386.151 544.747 385.901L541.405 382.341C540.856 381.756 540.456 381.047 540.238 380.275L539.396 377.286C539.273 376.846 539.089 376.426 538.852 376.037L527.428 357.316L506.131 323.898L496.772 306.818C496.372 306.087 495.795 305.468 495.094 305.017L490.317 301.941C489.985 301.728 489.68 301.476 489.408 301.19L482.161 293.603C481.83 293.256 481.45 292.958 481.033 292.719L473.011 288.118C472.737 287.961 472.478 287.777 472.238 287.571L463.536 280.084L446.21 265.523C445.98 265.329 445.732 265.157 445.47 265.007L435.441 259.291L416.863 248.152L405.013 242.757C404.757 242.641 404.491 242.546 404.219 242.474L390.581 238.869L376.986 235.898L351.364 231.917C350.926 231.849 350.481 231.839 350.041 231.888L341.32 232.863C340.932 232.906 340.54 232.904 340.152 232.856L307.656 228.844H286.251C285.722 228.844 285.197 228.928 284.694 229.092L280.001 230.631C279.141 230.912 278.204 230.833 277.403 230.412L275.971 229.657C274.34 228.798 274.245 226.498 275.799 225.507C276.185 225.261 276.633 225.131 277.09 225.131H285.453L294.969 224.017L306.364 223.016C307.211 222.942 308.064 223.085 308.841 223.432L311.285 224.524C312.17 224.92 313.151 225.05 314.108 224.898L325.951 223.02C326.44 222.942 326.937 222.938 327.428 223.006L360.761 227.678C361.004 227.713 361.245 227.765 361.481 227.834L371.922 230.914C372.276 231.019 372.641 231.084 373.01 231.108L382.715 231.744C383.419 231.79 384.106 231.985 384.73 232.316L390.852 235.562C391.273 235.785 391.724 235.947 392.191 236.043L401.433 237.936C402.019 238.056 402.516 238.441 402.778 238.978C403.081 239.6 403.693 240.011 404.383 240.056C408.387 240.316 414.844 240.725 415.503 240.725C415.958 240.725 416.793 242.186 417.538 243.733C418.295 245.302 419.723 246.467 421.442 246.748L424.753 247.291C425.23 247.369 425.693 247.516 426.128 247.727L449.222 258.941C449.699 259.173 450.136 259.479 450.516 259.847L464.165 273.064C464.647 273.531 465.218 273.896 465.844 274.138L471.327 276.252C472.16 276.573 472.891 277.111 473.445 277.81L478.076 283.647C478.35 283.993 478.67 284.301 479.025 284.563L491.324 293.633C491.826 294.004 492.254 294.465 492.587 294.992L498.775 304.816C499.143 305.402 499.629 305.904 500.202 306.292L507.792 311.43C509.02 312.261 509.756 313.647 509.756 315.13C509.756 316.233 510.164 317.297 510.902 318.117L514.819 322.474C515.644 323.391 516.1 324.58 516.1 325.813C516.1 327.41 516.863 328.91 518.153 329.85L522.728 333.182C523.713 333.899 524.402 334.951 524.666 336.14L525.694 340.775C525.937 341.869 526.54 342.849 527.406 343.559L532.178 347.47C532.923 348.08 533.476 348.892 533.77 349.808L535.35 354.727C535.505 355.212 535.735 355.671 536.029 356.087L548.726 374.024L566.398 401.13L577.06 417.146C577.202 417.36 577.36 417.562 577.534 417.752L580.04 420.49C580.884 421.412 581.352 422.616 581.352 423.866V426.15C581.352 427.261 581.721 428.34 582.403 429.217L583.913 431.163Z" fill="url(#paint25_linear_249_2)" fill-opacity="0.7"/>
<path d="M232.436 427.493C231.481 402.591 237.09 386.977 246.448 381.873C248.067 380.99 250.378 381.568 250.234 383.407C250.106 385.038 249.027 387.265 246.936 390.733C243.307 398.034 241.644 402.955 239.74 413.817C239.704 414.02 239.684 414.281 239.682 414.487C239.645 418.65 243.783 418.21 244.293 414.078C245.067 407.821 246.307 401.755 248.755 393.985C249.042 393.073 249.595 392.268 250.335 391.661L253.918 388.725C255.618 387.332 255.997 384.883 254.799 383.041C253.874 381.621 253.884 379.8 254.741 378.337C256.114 375.991 256.917 374.181 257.569 372.092C258.058 370.527 259.193 369.25 260.681 368.562C263.929 367.06 265.713 365.488 267.991 362.802C268.153 362.611 268.299 362.405 268.431 362.193C272.363 355.849 276.677 352.329 284.999 346.177C295.539 339.046 302.067 335.879 314.447 331.845C314.75 331.746 315.066 331.676 315.382 331.637L333.032 329.468C342.821 328.647 347.813 328.7 356.142 329.468C368.033 330.374 372.785 332.399 378.487 337.334C378.995 337.773 379.399 338.321 379.685 338.929L380.905 341.529C381.305 342.382 381.941 343.105 382.732 343.618C388.601 347.426 391.642 349.761 394.133 352.737C394.792 353.524 395.635 354.145 396.611 354.465L404.795 357.148C405.861 357.497 406.778 358.195 407.4 359.128L410.947 364.457C411.551 365.365 411.842 366.445 411.776 367.533L410.972 380.708L408.819 398.703C408.744 399.325 408.554 399.928 408.257 400.479L402.668 410.859C402.174 411.776 401.407 412.516 400.472 412.976L387.885 419.164C386.708 419.742 385.352 419.836 384.108 419.424L363.653 412.655C362.886 412.402 362.19 411.966 361.633 411.382C354.477 403.882 352.341 400.162 353.974 397.533C354.936 395.984 357.129 396.116 358.717 397.011L377.433 407.554C377.739 407.726 378.062 407.866 378.397 407.971L385.213 410.098C386.607 410.533 388.121 410.338 389.358 409.562L393.244 407.127C394.434 406.382 395.243 405.166 395.538 403.793C396.432 399.622 397.541 396.865 400.002 393.915C401.12 392.573 401.618 390.816 401.344 389.091C401.001 386.932 401.02 385.237 401.333 383.352C401.61 381.686 401.222 379.957 400.082 378.711L396.207 374.479C395.495 373.701 394.556 373.168 393.523 372.956L387.187 371.658C386.439 371.505 385.735 371.182 385.131 370.714L377.893 365.113C373.719 361.23 370.509 360.249 365.844 359.795C363.818 359.598 362.165 358.184 360.882 356.604C359.028 354.322 356.043 352.814 351.881 350.863C350.561 350.244 349.033 350.234 347.704 350.833L341.073 353.822C340.848 353.923 340.616 354.008 340.379 354.075L333.606 355.988C331.407 356.61 331.071 359.586 333.077 360.682C333.888 361.125 334.879 361.09 335.667 360.605C344.863 354.943 349.648 353.586 352.972 358.749C353.966 360.293 355.472 361.502 357.293 361.735C365.605 362.796 370.28 364.601 376.533 369.569C381.762 373.218 384.88 375.379 392.025 379.903C392.835 380.416 393.397 381.245 393.567 382.188C394.119 385.241 390.643 387.39 388.159 385.531L384.69 382.936C378.887 377.489 374.251 374.894 362.486 371.425C353.776 368.62 349.106 368.164 341.579 369.423C341.021 369.516 340.481 369.711 339.991 369.996C331.052 375.196 328.865 379.054 326.359 385.936C326.277 386.162 326.178 386.384 326.065 386.596L320.48 397.056C320.094 397.78 319.891 398.589 319.891 399.411V409.122C319.891 409.486 319.931 409.849 320.01 410.205L324.345 429.743C324.397 429.975 324.465 430.204 324.549 430.426L330.065 445.03C330.23 445.466 330.454 445.878 330.735 446.249C333.807 450.323 336.082 452.62 341.944 453.868C343.197 454.135 344.34 454.798 345.143 455.796C350.156 462.027 354.278 465.387 361.987 470.25C362.316 470.458 362.673 470.627 363.042 470.752L382.931 477.484C383.197 477.574 383.47 477.641 383.747 477.685L415.201 482.697C415.702 482.777 416.218 482.779 416.719 482.705C432.035 480.426 439.309 478.364 449.035 473.163C458.397 466.895 461.772 461.953 465.348 451.256L475.94 418.71C476.128 418.134 476.209 417.525 476.179 416.919C475.523 403.373 474.978 395.386 472.271 381.355C472.189 380.929 472.159 380.488 472.193 380.055C472.28 378.919 472.387 377.91 472.518 376.998C473.103 372.898 478.082 373.389 479.371 377.324L481.208 382.936C483.17 391.883 483.93 396.691 483.927 404.472C486.122 420.741 484.473 428.752 478.422 441.187C478.169 441.706 478.004 442.268 477.933 442.84C476.974 450.546 475.321 454.822 472.33 461.955C472.208 462.246 472.057 462.528 471.882 462.791L459.46 481.452C458.87 482.339 458.008 483.018 457.003 483.372C446.42 487.098 440.467 487.709 431.655 486.352C430.868 486.231 430.059 486.287 429.3 486.525C415.283 490.922 406.487 492.249 386.502 484.674L345.149 472.057C344.335 471.808 343.598 471.356 343.007 470.744L330.868 458.144C330.5 457.763 330.072 457.444 329.609 457.187C323.645 453.874 320.869 450.142 318.079 439.003C316.622 433.529 315.375 430.058 312.136 424.188C311.59 423.2 311.375 422.055 311.552 420.941C313.01 411.755 314.164 405.777 312.129 396.929C311.676 394.962 312.337 392.909 313.793 391.512C316.698 388.725 317.823 386.439 318.064 383.43C318.2 381.738 318.92 380.119 320.265 379.083C321.525 378.112 322.52 377.267 323.273 376.508C325.426 374.336 322.452 373.348 320.262 375.484L314.907 380.708C310.337 385.632 308.381 389.147 307.277 397.575C307.227 397.961 307.132 398.35 306.998 398.715C301.288 414.236 300.627 422.873 309.14 434.116C310.382 435.755 310.437 437.936 310.139 439.971C309.626 443.469 311.996 446.326 317.217 450.565C317.781 451.022 318.247 451.592 318.573 452.24L323.421 461.887C324.058 463.156 325.211 464.079 326.564 464.508C332.435 466.365 334.766 468.41 337.122 471.815C337.72 472.68 338.543 473.37 339.522 473.754L370.584 485.958C370.924 486.092 371.285 486.189 371.647 486.246C386.56 488.6 392.262 490.417 396.892 493.66C397.813 494.305 398.896 494.699 400.022 494.699H412.784L443.757 491.839C444.546 491.767 445.304 491.502 445.984 491.095C450.126 488.614 453.235 487.744 457.593 488.125C460.003 488.336 462.3 487.084 463.438 484.949C464.882 482.242 466.596 480.388 469.638 478.776C471.157 477.971 472.313 476.589 472.672 474.909C474.203 467.749 476.193 464.326 479.744 460.551C480.661 459.576 481.201 458.292 481.217 456.952C481.301 449.819 481.942 445.524 483.286 442.659C484.794 439.444 488.877 441.38 489.26 444.91L490.207 453.638C490.249 454.029 490.246 454.424 490.195 454.814L488.668 466.702C488.532 467.764 488.048 468.745 487.345 469.552C484.386 472.95 483.018 476.065 481.551 481.51C481.321 482.364 480.878 483.148 480.265 483.786C476.884 487.308 475.244 489.599 473.413 492.588C472.602 493.911 471.24 494.802 469.703 495.017C462.176 496.074 457.461 497.514 450.68 500.617C449.615 501.104 448.415 501.214 447.274 500.95C437.016 498.578 427.271 498.941 407.578 501.3C407.129 501.354 406.663 501.348 406.216 501.279C394.477 499.486 387.488 498.125 374.593 493.145C374.08 492.947 373.533 492.833 372.984 492.8C368.945 492.56 366.535 491.853 363.482 489.547C362.817 489.045 362.056 488.678 361.241 488.504C357.026 487.598 354.008 486.445 348.198 482.945C348.058 482.861 347.906 482.794 347.75 482.748C345.582 482.11 343.579 486.387 344.896 488.225C345.169 488.604 345.52 488.819 345.972 488.935C351.178 490.265 353.433 491.444 355.3 493.276C356.184 494.144 357.278 494.794 358.504 494.973C375.339 497.429 382.686 499.699 394.315 503.707C394.841 503.888 395.396 503.982 395.951 503.982H412.784C427.035 503.617 435.245 503.672 439.661 504.617C442.161 505.153 442.188 507.985 439.877 509.079C435.131 511.325 428.515 511.358 415.956 509.923H389.372C388.971 509.923 388.563 509.872 388.174 509.777C361.901 503.307 350.393 498.482 333.488 489.014C333.187 488.845 332.901 488.644 332.642 488.417L327.374 483.813C326.631 483.164 326.097 482.309 325.839 481.357L324.88 477.821C324.584 476.729 323.921 475.77 323.017 475.09C315.121 469.151 310.874 464.538 305.684 454.079C305.49 453.687 305.244 453.317 304.96 452.986C300.363 447.629 298.631 444.167 297.687 437.518C297.66 429.997 297.445 425.163 293.867 410.704C293.699 410.026 293.67 409.311 293.794 408.623C296.008 396.331 298.256 391.617 301.992 383.433C302.142 383.104 302.328 382.79 302.545 382.501L309.469 373.282L316.082 366.45C316.782 365.727 315.927 364.581 315.034 365.047C314.95 365.091 314.873 365.148 314.807 365.217L298.246 382.358C297.876 382.741 297.567 383.186 297.336 383.665C290.158 398.568 286.348 407.235 288.128 415.888C288.389 417.153 288.275 418.472 287.762 419.657C286.069 423.574 286.066 426.469 288.302 431.274C288.511 431.722 288.664 432.198 288.746 432.685C290.214 441.328 292.406 445.861 297.403 453.075C297.591 453.346 297.755 453.639 297.886 453.941C301.405 462.062 302.593 466.385 318.079 479.847C325.938 485.661 330.117 489.29 334.274 495.131C335.226 496.468 336.737 497.266 338.365 497.477C340.709 497.78 342.382 498.525 344.236 500.308C344.936 500.981 345.769 501.517 346.706 501.77C362.13 505.939 369.674 508.365 376.075 511.993C376.68 512.335 377.343 512.565 378.033 512.649L400.831 515.416C401.246 515.467 401.672 515.464 402.087 515.41C416.263 513.577 423.488 513.259 431.153 515.09C432.178 515.334 433.253 515.293 434.239 514.923L443.202 511.556C443.465 511.458 443.723 511.335 443.966 511.194C455.245 504.648 462.787 501.646 475.993 497.555C477.294 497.152 478.381 496.235 479.009 495.025C482.257 488.77 484.674 485.147 488.898 481.392C489.77 480.617 490.391 479.591 490.609 478.444L492.537 468.336C494.468 459.579 495.308 453.959 494.349 442.716C494.532 438.084 493.828 435.418 491.618 432.019C490.806 430.771 490.495 429.257 490.781 427.796C492.29 420.081 491.368 413.983 489.84 403.873C489.829 403.803 489.892 403.743 489.962 403.757C493.706 404.498 495.566 405.785 497.543 409.857C497.838 410.463 497.979 411.133 497.994 411.807C498.167 419.737 498.742 424.463 500.603 432.314C500.662 432.563 500.743 432.813 500.839 433.05C503.734 440.211 504.364 444.523 503.389 450.733C503.152 452.241 503.533 453.792 504.518 454.958L505.529 456.155C506.485 457.286 506.89 458.788 506.632 460.246C503.442 478.233 500.967 487.892 493.052 495.338C492.714 495.656 492.412 496.015 492.161 496.405C487.425 503.742 482.863 506.356 474.037 509.721C473.685 509.855 473.317 509.948 472.945 509.999L462.629 511.408C458.307 512.536 456.453 513.651 454.425 515.415C453.561 516.167 452.486 516.648 451.343 516.731C439.076 517.622 431.742 518.64 419.876 521.267C419.383 521.376 418.868 521.411 418.365 521.37C405.507 520.319 397.79 520.013 384.66 520.29C383.789 520.308 382.926 520.098 382.156 519.691C373.755 515.255 367.732 513.426 354.783 512.522C344.867 510.966 339.831 509.157 335.104 501.795C334.625 501.049 333.982 500.412 333.204 499.985C322.871 494.316 316.65 491.636 306.096 480.591C305.632 480.105 305.07 479.713 304.465 479.421C300.913 477.71 299.542 476.014 299.16 473.247C298.93 471.585 298.208 469.998 296.873 468.981C291.043 464.538 288.624 460.876 285.313 454.804C285.105 454.422 284.949 454.011 284.844 453.588C283.461 448.025 281.881 444.472 278.465 438.714C278 437.93 277.749 437.036 277.749 436.125V410.427C277.749 409.925 277.825 409.426 277.973 408.947L284.738 387.121C284.911 386.563 285.18 386.04 285.534 385.575L301.579 364.469C302.001 363.914 302.534 363.454 303.144 363.117L320.742 353.406C322.141 352.634 321.947 350.563 320.427 350.065C320.078 349.951 319.699 349.945 319.347 350.049C310.896 352.544 306.61 355.062 300.406 361.4C292.176 368.093 288.174 372.317 282.27 380.121C281.977 380.509 281.74 380.944 281.572 381.4C277.044 393.69 274.618 400.484 270.621 411.92C270.541 412.15 270.475 412.392 270.43 412.632C268.988 420.29 269.111 424.859 271.645 432.775C271.784 433.211 271.868 433.669 271.892 434.127C272.415 444.148 274.731 450.106 279.246 460.205C279.454 460.671 279.734 461.104 280.073 461.485L299.047 482.817L304.939 488.335C305.239 488.616 305.573 488.859 305.932 489.058L320.456 497.109C320.683 497.235 320.894 497.386 321.086 497.561C323.771 500.006 321.22 504.264 317.839 502.938C305.623 498.145 296.597 493.301 284.999 484.674C277.744 478.061 274.827 474.479 273.936 470.219C273.685 469.019 273.177 467.868 272.306 467.006C260.862 455.683 257.866 448.045 256.966 434.428C256.923 433.774 257.018 433.114 257.226 432.493C259.917 424.488 260.416 419.421 259.749 411.12C259.673 410.174 259.86 409.224 260.27 408.369C263.076 402.513 263.829 397.937 263.754 390.357C263.738 388.731 264.487 387.194 265.758 386.178C270.272 382.566 272.867 379.416 275.299 373.151C275.728 372.045 276.502 371.102 277.519 370.491C282.38 367.574 285.548 365.148 290.623 359.825C290.8 359.639 290.995 359.463 291.198 359.306C298.011 354.042 301.407 351.647 307.203 347.662C312.829 344.342 319.08 343.103 332.048 341.472C332.695 341.391 333.356 341.438 333.985 341.61L337.059 342.449C337.98 342.701 338.954 342.684 339.866 342.399L346.048 340.469C347.291 340.081 348.637 340.197 349.802 340.777C359.443 345.575 365.694 347.929 375.753 349.561C377.116 349.783 378.339 350.535 379.143 351.658C384.193 358.703 387.741 362.455 392.961 367.502C394.163 368.665 396.067 368.674 397.287 367.532C397.923 366.936 398.284 366.104 398.284 365.233V364.637C398.284 363.292 397.686 362.016 396.65 361.159C388.656 354.544 383.369 350.373 374.828 343.634L374.662 343.504C374.104 343.063 373.457 342.746 372.766 342.575L351.035 337.2C350.223 336.999 349.375 337.005 348.566 337.217L340.391 339.36C339.157 339.684 337.846 339.524 336.726 338.912L335.366 338.169C333.907 337.372 332.147 337.352 330.671 338.116L325.875 340.598C324.931 341.086 323.856 341.261 322.806 341.097L316.228 340.071C315.362 339.935 314.476 340.03 313.658 340.346L307.203 342.835C296.988 348.049 292.354 351.57 287.678 358.269C287.103 359.092 286.316 359.747 285.387 360.127L280.459 362.147C279.866 362.389 279.323 362.745 278.867 363.194C270.219 371.695 266.267 377.272 260.255 386.763C259.84 387.42 259.585 388.17 259.503 388.942C257.82 404.914 254.629 414.469 249.673 430.427C249.366 431.416 249.378 432.477 249.69 433.465C251.298 438.554 251.973 441.981 251.18 447.582C251.08 448.29 251.109 449.017 251.302 449.706C254.083 459.639 256.695 463.229 261.172 465.428C262.704 466.18 263.9 467.498 264.413 469.126C265.839 473.652 268.018 476.757 271.213 479.71C274.154 482.427 273.143 487.474 269.22 488.277C267.751 488.579 266.222 488.138 265.144 487.095C244.721 467.329 236.378 454.336 232.436 427.493Z" fill="url(#paint26_linear_249_2)" fill-opacity="0.7"/>
<path d="M70.9534 388.705C68.579 390.253 65.3855 389.026 64.6587 386.286C64.1891 384.516 64.9317 382.648 66.4878 381.683L80.6344 372.911L132.292 342.092L163.559 320.556L222.141 290.647C222.358 290.536 222.582 290.441 222.813 290.363L281.177 270.632C283.627 269.804 285.945 272.18 285.056 274.608C284.734 275.488 284.029 276.173 283.141 276.47L252.374 286.767L209.445 300.325C209.065 300.445 208.7 300.61 208.359 300.817L178.141 319.134C177.081 319.776 177.093 321.317 178.162 321.943C178.66 322.234 179.275 322.242 179.78 321.962L213.071 303.54C213.591 303.252 214.158 303.06 214.745 302.971L223.865 301.594C226.186 301.244 227.621 304.045 225.982 305.724C225.755 305.956 225.485 306.141 225.186 306.267L188.24 321.939C187.562 322.226 187.122 322.891 187.122 323.627C187.122 324.967 188.511 325.854 189.726 325.292L219.652 311.445C221.678 310.507 223.768 312.617 222.81 314.634C222.587 315.104 222.217 315.488 221.755 315.728L163.838 345.831C162.663 346.443 162.165 347.863 162.703 349.074C163.197 350.189 162.818 351.499 161.805 352.177L119.151 380.708L99.0862 394.592C98.869 394.742 98.6403 394.875 98.4021 394.989L77.7311 404.896C76.0245 405.714 73.976 405.133 72.9532 403.541C71.5903 401.419 72.6672 398.584 75.095 397.901L85.4006 395.006C85.8461 394.881 86.272 394.695 86.6662 394.452L125.948 370.311C128.16 368.566 125.848 365.151 123.406 366.557L116.885 370.311L88.622 389.852C88.1418 390.184 87.5719 390.362 86.9881 390.362C84.2271 390.362 83.0555 386.847 85.2643 385.19L105.104 370.311L150.418 344.32L171.557 333.322C174.284 331.903 173.928 327.895 170.994 326.979C170.016 326.674 168.952 326.82 168.092 327.378L145.433 342.092L108.276 364.37L70.9534 388.705Z" fill="url(#paint27_linear_249_2)" fill-opacity="0.7"/>
<path d="M88.5495 415.91C87.0485 416.838 85.1329 416.788 83.7025 415.754C81.1867 413.935 81.3665 410.128 84.04 408.55C97.1824 400.793 105.99 395.693 115.94 392.175C116.563 391.955 117.146 391.617 117.641 391.18C134.134 376.646 143.89 369.261 161.253 358.728C161.578 358.531 161.887 358.292 162.16 358.028C173.756 346.796 181.17 341.857 195.125 336.895C195.82 336.648 196.471 336.239 197.003 335.729C211.953 321.377 213.157 328.595 227.573 313.789C228.647 312.686 230.164 312.152 231.701 312.056C235.926 311.791 239.885 309.71 246.652 305.095C247.14 304.762 247.689 304.514 248.261 304.368C268.928 299.087 280.114 295.748 297.416 289.267C297.893 289.088 298.403 288.981 298.911 288.952C310.287 288.306 316.787 287.367 327.013 284.465C327.695 284.271 328.412 284.221 329.114 284.32C340.387 285.912 347.239 286.482 359.813 286.75C360.38 286.762 360.946 286.87 361.477 287.067C370.265 290.313 375.81 291.464 384.935 292.53C385.953 292.649 386.912 293.077 387.696 293.738C390.84 296.388 393.384 297.965 398.377 299.835C398.892 300.028 399.309 300.425 399.516 300.935C400.123 302.428 398.751 303.966 397.202 303.521C386.932 300.572 382.309 298.677 378.366 295.967C377.749 295.543 377.053 295.233 376.317 295.096C359.266 291.905 349.401 291.26 332.126 291.223C304.312 294.038 294.589 297.488 280.249 304.265C279.796 304.479 279.302 304.627 278.806 304.7C254.043 308.339 240.424 313.793 220.746 329.044C220.387 329.322 219.984 329.557 219.565 329.731C206.575 335.126 199.438 339.559 187.968 348.832C187.411 349.282 186.762 349.61 186.072 349.799C177.064 352.266 171.909 355.297 164.109 365.154C163.745 365.614 163.297 366.019 162.8 366.33C139.66 380.823 127.268 390.549 105.848 407.593C105.36 407.981 104.796 408.278 104.203 408.468C98.333 410.346 94.403 412.288 88.5495 415.91Z" fill="url(#paint28_linear_249_2)" fill-opacity="0.7"/>
<path d="M103.066 426.563C101.326 427.989 98.8463 428.077 97.0091 426.777L96.3706 426.325C93.4325 424.246 93.6516 419.807 97.1812 419.102C97.5178 419.035 97.8646 418.972 98.2245 418.913C99.7049 418.668 101.007 417.822 101.908 416.622C103.833 414.061 105.93 412.495 110.052 410.791C110.671 410.535 111.25 410.162 111.732 409.697C130.819 391.281 140.649 389.375 164.949 368.813C165.225 368.58 165.532 368.369 165.851 368.2L172.275 364.794C172.804 364.514 173.279 364.138 173.68 363.693C181.799 354.667 187.476 351.191 198.137 348.35C198.935 348.137 199.676 347.739 200.288 347.184C211.591 336.939 219.483 331.666 233.205 322.794C233.593 322.543 234.025 322.343 234.467 322.206C247.639 318.143 253.163 315.305 260.942 310.119C261.269 309.901 261.626 309.717 261.996 309.584C266.092 308.104 268.48 307.696 269.83 308.403C271.951 309.514 269.687 312.351 267.489 313.302C265.478 314.173 263.88 315.32 262.072 317.164C261.347 317.904 260.438 318.446 259.432 318.697C253.002 320.297 248.674 322.352 241.39 326.31C241.162 326.433 240.941 326.577 240.735 326.735C236.898 329.658 234.241 331.292 229.05 332.676C227.746 333.024 226.601 333.831 225.898 334.983L223.256 339.312C222.741 340.156 221.983 340.825 221.095 341.26C212.366 345.535 207.099 350.417 198.818 357.97C197.724 358.968 197.189 360.404 197.063 361.879C196.816 364.774 195.592 366.482 191.971 367.796C190.637 368.281 189.495 369.191 188.78 370.417C187.209 373.109 185.571 374.837 182.384 376.559C181.363 377.111 180.512 377.945 179.993 378.983C177.056 384.854 174.303 388.248 168.09 393.332C161.838 397.631 159.146 400.814 156.226 406.522C155.682 407.587 154.783 408.417 153.73 408.984C151.698 410.078 150.373 411.402 148.876 414.326C148.693 414.683 148.475 415.024 148.218 415.333L142.829 421.81C142.165 422.608 141.766 423.593 141.687 424.628L141.49 427.21C141.402 428.354 140.915 429.426 140.159 430.288C137.238 433.62 135.818 436.348 134.903 440.038C134.375 442.166 132.181 443.501 130.121 442.751C128.001 441.978 127.284 439.438 127.931 437.276C128.374 435.797 128.482 434.266 128.372 432.336C128.302 431.127 128.598 429.917 129.295 428.927L154.906 392.552C155.234 392.086 155.64 391.679 156.106 391.349L164.581 385.352C165.103 384.982 165.549 384.513 165.9 383.978C172.307 374.206 177.309 369.79 186.671 363.202C186.966 362.994 187.219 362.726 187.407 362.418L188.64 360.397C189.166 359.535 188.546 358.43 187.536 358.43C187.267 358.43 187.004 358.514 186.785 358.67L173.386 368.232C173.179 368.381 172.983 368.544 172.8 368.722L147.225 393.653C146.938 393.933 146.618 394.178 146.272 394.381L132.625 402.419C132.403 402.549 132.192 402.697 131.993 402.86L103.066 426.563Z" fill="url(#paint29_linear_249_2)" fill-opacity="0.7"/>
<path d="M120.502 419.517C120.208 419.879 119.864 420.202 119.482 420.471L109.713 427.332C107.202 429.095 107.459 432.893 110.184 434.303C111.749 435.114 113.658 434.826 114.923 433.597C120.647 428.037 124.544 424.536 130.575 420.828C131.395 420.324 132.065 419.605 132.511 418.752C135.968 412.15 139.435 407.9 144.525 402.116C146.294 400.107 145.739 396.115 143.483 397.556C143.103 397.798 142.702 398.124 142.261 398.531C132.951 405.627 128.034 410.239 120.502 419.517Z" fill="url(#paint30_linear_249_2)" fill-opacity="0.7"/>
<path d="M150.772 441.828C150.561 444.756 148.113 447.15 145.207 446.736C142.616 446.367 140.844 443.903 141.433 441.353C143.29 433.312 145.636 427.679 150.233 418.932C150.355 418.701 150.496 418.476 150.653 418.266L159.027 407.071C159.879 406.076 160.601 405.369 161.38 404.977C163.523 403.898 166.302 403.748 167.695 401.794C171.512 396.439 174.694 393.412 179.751 389.636C180.421 389.135 180.963 388.479 181.326 387.725C186.887 376.191 191.652 370.771 201.215 364.212C201.78 363.825 202.265 363.328 202.639 362.754C208.788 353.317 214.009 348.427 224.846 340.844C225.069 340.688 225.313 340.546 225.559 340.428C235.738 335.544 240.163 332.479 245.742 327.204C246.232 326.741 246.813 326.372 247.443 326.132C262.476 320.39 270.754 316.29 283.678 307.764C284.249 307.387 284.901 307.129 285.572 306.995C298.828 304.353 299.487 298.859 317.144 299.36C317.753 299.378 318.385 299.287 318.964 299.099C332.717 294.655 334.537 298.821 348.169 297.151C349.499 296.988 350.704 298.006 350.704 299.345C350.704 300.435 349.898 301.361 348.816 301.491C343.034 302.187 339.146 302.187 333.692 301.468C332.673 301.333 331.635 301.505 330.701 301.937C325.466 304.36 321.55 304.91 315.052 304.659C314.07 304.622 313.1 304.864 312.237 305.331C308.146 307.543 304.577 308.493 298.141 309.788C291.977 311.567 288.567 313.278 283.401 317.417C282.665 318.006 281.78 318.373 280.861 318.584C273.941 320.173 268.162 326.448 262.264 328.739C260.678 329.355 258.881 331.127 258.595 332.805C258.089 335.781 261.765 335.84 264.143 333.98C269.848 329.517 274.48 326.585 281.741 322.701C282.098 322.51 282.48 322.364 282.871 322.26C287.385 321.057 289.543 319.67 292.133 317.134C292.811 316.47 293.646 315.982 294.568 315.757C308.656 312.321 314.655 310.505 324.908 307.45C325.485 307.278 326.093 307.211 326.693 307.253C339.821 308.158 347.354 308.204 359.426 307.286C360.245 307.224 361.069 307.363 361.823 307.687C371.268 311.75 377.256 313.627 387.505 315.502C388.332 315.653 389.113 316.008 389.771 316.532C395.783 321.319 399.923 324.132 407.542 327.47C408.852 328.043 409.863 329.135 410.399 330.46C414.559 340.739 421.028 344.736 422.753 353.603C425.29 366.672 426.113 374.947 426.795 390.278C426.819 390.822 426.753 391.376 426.6 391.899C423.219 403.433 420.794 409.126 415.984 411.802C414.85 412.433 413.835 413.301 413.238 414.453C409.55 421.559 406.238 424.578 400.572 428.128C399.711 428.668 398.637 428.734 397.708 428.324C395.64 427.411 395.206 424.67 396.87 423.14C403.536 417.006 408.171 412.068 414.685 402.316C415.497 401.099 415.685 399.587 415.355 398.162C414.7 395.332 414.774 393.091 416.634 389.679C417.059 388.9 417.327 388.035 417.344 387.148C417.5 379.063 417.388 374.349 416.075 368.253C415.998 367.894 415.956 367.527 415.956 367.159V355.083C415.956 354.117 415.679 353.168 415.147 352.363C413.289 349.551 411.726 347.559 408.094 345.284C406.409 344.228 403.99 344.883 403.328 346.758C402.288 349.703 399.518 352.209 396.763 350.739C394.531 349.548 392.578 348.179 390.398 346.221C389.34 345.272 388.943 343.846 388.565 342.476C388.283 341.449 387.705 340.559 386.752 339.416C386.587 339.219 386.403 339.036 386.208 338.87C379.994 333.588 375.249 331.066 365.633 327.403C365.351 327.295 365.052 327.212 364.754 327.158C351.654 324.781 343.34 324.208 328.457 324.263C327.596 324.266 326.751 324.501 325.99 324.905C321.863 327.093 318.55 327.832 312.777 328.278C312.091 328.331 311.42 328.517 310.81 328.835L288.171 340.607L266.874 355.83C258.965 363.239 254.759 367.69 249.352 376.053C248.953 376.671 248.424 377.198 247.808 377.6C237.521 384.307 233.524 390.128 230.1 402.329C229.844 403.241 229.337 404.063 228.675 404.74C222.922 410.622 222.518 416.564 223.317 427.489C223.353 427.981 223.466 428.468 223.637 428.931C224.602 431.541 224.963 433.389 225.103 435.611C225.206 437.266 226.073 438.746 227.28 439.883C229.114 441.612 229.58 443.28 229.687 445.599C229.735 446.621 230.044 447.615 230.588 448.482C232.599 451.686 233.044 453.922 232.695 456.959C232.567 458.08 232.724 459.225 233.266 460.215C237.135 467.275 240.122 471.49 247.114 477.745C247.295 477.907 247.468 478.087 247.622 478.275C248.092 478.848 248.546 479.39 248.988 479.904C251.707 483.067 249.155 488.875 245.028 488.268C243.933 488.107 242.951 487.495 242.319 486.586C235.944 477.417 231.8 471.887 224.915 464.121C223.941 463.023 223.547 461.557 223.549 460.089C223.552 457.766 222.884 456.164 221.223 454.819C218.997 453.016 218.328 449.967 217.322 447.284C217.14 446.796 216.855 446.356 216.476 445.943C214.532 443.824 213.777 440.946 213.508 438.083C213.44 437.361 213.233 436.644 212.901 435.872C212.418 434.747 212.191 433.516 212.436 432.316C214.155 423.918 214.539 418.481 214.357 410.039C214.332 408.843 214.733 407.676 215.465 406.729C219.238 401.847 220.763 398.433 220.538 393.715C220.45 391.87 221.129 390.041 222.55 388.86C226.67 385.437 228.896 382.692 231.284 378.313C231.749 377.459 232.437 376.743 233.276 376.25C240.006 372.295 243.162 369.111 246.782 363.159C247.186 362.495 247.731 361.923 248.379 361.495C256.829 355.92 260.873 351.972 266.147 344.928C266.627 344.288 267.25 343.764 267.965 343.407C277.599 338.613 283.072 335.357 289.345 328.467C290.062 327.679 291 327.116 292.038 326.876C298.63 325.346 302.686 324.007 308.152 320.941C309.015 320.457 309.998 320.219 310.987 320.268C319.405 320.685 324.216 320.183 331.678 318.434C331.974 318.365 332.285 318.32 332.589 318.305C355.366 317.17 366.755 318.021 380.612 325.755C387.018 329.434 390.741 331.699 395.916 337.888C396.507 338.595 397.514 338.8 398.322 338.358C399.557 337.684 399.651 335.945 398.503 335.132C389.972 329.095 384.72 325.056 378.827 318.732C377.929 317.769 376.7 317.174 375.386 317.082C368.137 316.574 363.397 315.757 356.013 313.51C355.207 313.265 354.349 313.222 353.52 313.376C348.788 314.258 345.677 314.331 340.899 313.359C340.193 313.215 339.463 313.21 338.757 313.356C331.968 314.752 327.337 315.091 318.725 314.65C318.298 314.628 317.864 314.659 317.444 314.746C307.974 316.696 302.39 318.08 292.826 322.166C292.445 322.328 292.081 322.543 291.752 322.795C281.423 330.725 275.07 335.333 262.796 343.577C257.571 346.773 255.037 349.108 251.894 354.038C251.609 354.485 251.261 354.89 250.855 355.231L234.108 369.306C233.9 369.481 233.705 369.674 233.528 369.881C228.182 376.123 224.78 380.331 218.757 388.384C218.513 388.709 218.307 389.071 218.149 389.445C212.454 402.985 209.095 410.691 202.799 423.101C202.33 424.025 202.155 425.076 202.307 426.101C203.718 435.644 204.86 441.499 208.769 448.722C209.395 449.88 209.548 451.222 209.354 452.524C209.14 453.955 209.21 455.164 209.7 456.554C210.194 457.957 211.53 458.842 212.992 459.118L213.701 459.253C215.477 459.588 216.912 460.865 217.587 462.542C219.803 468.051 222.869 472.639 228.682 480.418C228.766 480.53 228.867 480.632 228.978 480.717C230.297 481.721 229.267 483.808 227.668 483.372L219.027 481.011C218.053 480.745 217.29 480.022 216.785 479.148C215.807 477.456 214.469 476.34 212.138 475.045C211.205 474.528 210.435 473.758 209.927 472.819C208.297 469.807 206.675 467.681 203.404 464.692C202.555 463.917 201.985 462.886 201.729 461.765C201.089 458.959 200.162 456.924 198.477 454.367C197.632 453.086 197.338 451.509 197.762 450.034L198.313 448.115C198.69 446.801 198.562 445.348 197.675 444.308C197.075 443.607 196.387 442.986 195.509 442.313C194.256 441.354 193.419 439.928 193.37 438.351C193.079 429.031 193.69 423.044 195.604 413.287C195.688 412.86 195.828 412.442 196.022 412.052C198.507 407.054 200.415 403.979 204.139 400.606C205.593 399.288 206.053 397.284 206.318 395.338C206.447 394.391 206.807 393.601 207.296 392.64C207.439 392.359 207.611 392.094 207.805 391.845C210.345 388.589 211.747 386.543 213.37 383.809C213.794 383.093 213.273 382.193 212.441 382.193C212.185 382.193 211.936 382.284 211.743 382.451C209.321 384.544 207.947 386.299 206.781 389.131C206.024 390.968 204.215 392.045 202.646 393.263C201.746 393.963 201.032 395.111 200.263 397.045C196.918 404.953 194.021 408.97 187.737 415.022C187.331 415.413 186.987 415.867 186.74 416.374C185.83 418.245 185.329 419.695 185.19 421.331C185.025 423.274 184.091 425.062 182.907 426.612C180.81 429.36 181.711 432.883 183.784 438.55C183.893 438.85 184.035 439.143 184.199 439.416C187.009 444.091 188.733 447.586 189.984 451.302C191.22 454.971 187.505 458.137 183.863 456.824L183.425 456.666C181.781 456.074 180.574 454.662 180.198 452.956C179.032 447.677 177.855 444.096 175.591 440.556C174.273 438.495 174.399 435.851 175.448 433.641C178.502 427.206 172.849 423.292 180.778 409.299C192.17 389.193 198.901 390.611 209.575 373.944C210.297 372.817 211.419 371.997 212.721 371.689C218.283 370.372 221.889 369.39 224.704 367.074C225.344 366.548 226.054 366.103 226.847 365.867L227.869 365.562C229.574 365.054 230.89 363.598 231.346 361.879C231.746 360.373 232.839 359.217 234.257 358.574C238.4 356.693 240.013 355.2 242.052 352.891C242.287 352.625 242.549 352.382 242.832 352.168C245.63 350.059 247.395 348.501 248.73 346.358C249.479 345.157 248.425 343.75 247.017 343.894C246.668 343.93 246.334 344.062 246.059 344.281C243.581 346.252 242.413 347.772 241.388 349.917C240.835 351.072 239.937 352.036 238.782 352.59C232.849 355.436 229.325 357.984 224.336 362.707C223.703 363.307 222.931 363.76 222.074 363.916C220.815 364.145 219.721 364.163 218.56 363.831C215.932 363.082 212.929 363.11 211.206 365.23C200.535 378.36 193.361 386.634 179.759 397.538C178.952 398.185 178.342 399.061 178.094 400.066C177.468 402.598 177.367 404.517 177.874 406.924C178.194 408.441 177.991 410.043 177.107 411.316C171.026 420.067 167.335 426.078 169.123 440.906C169.463 443.727 167.557 446.378 164.741 446.763L161.845 447.158C160.098 447.397 158.301 446.73 157.369 445.233C156.279 443.483 155.853 442.081 155.58 440.337C155.444 439.466 155.588 438.576 155.935 437.766C158.171 432.532 159.822 428.175 161.498 422.571C162.747 418.392 158.764 415.951 157.363 420.082C156.66 422.157 156.079 424.737 155.55 428.032C155.45 428.655 155.236 429.258 154.925 429.808C152.157 434.7 151.041 438.089 150.772 441.828Z" fill="url(#paint31_linear_249_2)" fill-opacity="0.7"/>
<path d="M80.8745 283.92C78.5409 284.694 76.5084 281.847 78.1237 279.994C78.286 279.808 78.4746 279.65 78.6893 279.528C80.6931 278.389 91.7887 272.333 103.472 270.95C104.437 270.836 105.355 270.476 106.149 269.917C114.482 264.052 126.527 261.402 133.221 260.32C135.399 259.968 136.951 262.186 135.983 264.168C135.651 264.849 135.061 265.368 134.343 265.611L114.62 272.287L93.8824 281.491C93.2153 281.787 92.4902 281.925 91.7603 281.929C88.2347 281.951 85.0293 282.544 80.8745 283.92Z" fill="url(#paint32_linear_249_2)" fill-opacity="0.7"/>
<path d="M130.791 271.08C130.298 270.9 129.755 270.905 129.259 271.078C120.601 274.087 116.712 271.697 95.1348 285.163C74.3219 298.153 65.7208 298.895 64.1011 299.921C63.9225 300.034 63.8282 300.233 63.7486 300.429C62.885 302.552 64.2308 304.924 66.4962 305.272L68.71 305.613C69.1059 305.673 69.5062 305.687 69.9023 305.628C72.6178 305.223 84.4016 302.871 101.026 290.998C112.465 282.829 123.577 278.256 130.623 275.908C132.739 275.203 132.887 271.843 130.791 271.08Z" fill="url(#paint33_linear_249_2)" fill-opacity="0.7"/>
<path d="M219.184 257.242C220.181 254.205 217.326 251.312 214.274 252.264C153.683 271.169 118.442 285.897 60.3581 317.887C59.4576 318.383 58.8838 319.338 58.8838 320.366C58.8838 322.483 61.1339 323.857 63.0509 322.958C75.5652 317.089 88.8089 313.338 99.213 308.303C138.361 282.712 187.33 263.769 215.863 259.965C217.4 259.76 218.7 258.715 219.184 257.242Z" fill="url(#paint34_linear_249_2)" fill-opacity="0.7"/>
<path d="M130.868 300.922C130.351 300.439 129.608 300.285 128.942 300.525L111.907 306.653C111.602 306.763 111.307 306.902 111.029 307.069L93.2148 317.75C92.9847 317.888 92.7418 318.008 92.4927 318.107C82.6563 322.041 75.5236 325.422 61.9833 332.637C60.2209 333.576 59.4545 335.698 60.207 337.547C61.1531 339.873 64.0161 340.715 66.0708 339.272L71.0009 335.809C71.3796 335.543 71.803 335.328 72.2394 335.175C99.9199 325.424 108.399 315.505 121.283 308.303C123.984 306.794 126.879 305.403 130.184 304.159C131.527 303.654 131.915 301.903 130.868 300.922Z" fill="url(#paint35_linear_249_2)" fill-opacity="0.7"/>
<path d="M72.1037 353.326C69.6219 354.874 66.3468 353.97 65.0099 351.369L64.8673 351.091C64.2304 349.852 64.1527 348.37 65.2023 347.453C70.473 342.85 89.2064 336.282 104.806 325.224C105.005 325.083 105.2 324.919 105.376 324.751C115.49 315.122 113.647 322.575 157.215 299.021C172.181 289.672 181.401 285.209 198.505 278.911C199.064 278.705 199.665 278.598 200.26 278.611C203.65 278.682 205.539 279.059 206.948 279.775C208.59 280.609 210.424 281.211 212.178 280.65C233.675 273.772 246.367 270.867 267.429 268.3C267.957 268.235 268.504 268.243 269.017 268.388C269.651 268.567 270.108 268.784 270.408 269.071C271.748 270.352 269.347 272.091 267.516 272.384C248.715 275.391 237.27 278.287 217.947 285.48C217.641 285.594 217.338 285.742 217.06 285.914C205.437 293.076 198.704 296.516 186.669 301.62C175.766 306.645 169.276 311.217 157.73 320.513C157.39 320.786 157.009 321.019 156.611 321.196C140 328.606 130.327 334.358 113.26 344.32C97.0836 355.96 86.4079 362.335 68.7458 371.797C66.5388 372.979 63.8683 371.379 63.8683 368.876C63.8683 367.902 64.2946 366.976 65.0407 366.35C76.9685 356.349 86.7004 350.55 107.37 340.607L148.166 318.933C148.458 318.778 148.734 318.594 148.989 318.385L172.24 299.333C172.493 299.126 172.771 298.95 173.067 298.81C177.272 296.825 176.324 294.127 172.353 296.548C170.6 297.616 168.738 298.806 166.731 300.134L107.37 331.324L72.1037 353.326Z" fill="url(#paint36_linear_249_2)" fill-opacity="0.7"/>
<path d="M377.44 220.675C291.302 202.81 235.943 209.944 129.211 252.438C127.026 253.308 127.269 255.763 129.692 255.893C133.32 256.087 137.514 255.711 143.701 254.885C143.946 254.852 144.192 254.79 144.417 254.704C223.959 224.344 270.197 209.186 375.174 224.388C386.502 226.028 379.252 221.051 377.44 220.675Z" fill="url(#paint37_linear_249_2)" fill-opacity="0.7"/>
<path d="M149.504 238.069C146.739 238.923 144.475 235.77 146.168 233.423C146.572 232.863 147.156 232.458 147.823 232.277L229.999 209.941C231.721 209.473 232.755 211.791 231.257 212.76C231.137 212.838 231.007 212.899 230.87 212.941L149.504 238.069Z" fill="url(#paint38_linear_249_2)" fill-opacity="0.7"/>
<path d="M309.934 188.082C309.628 188.028 309.314 188.044 309.015 188.129L303.258 189.758C301.39 190.287 301.939 193.066 303.867 192.846C303.976 192.833 304.086 192.832 304.195 192.843L315.039 193.868C315.542 193.915 316.048 193.803 316.484 193.548C318.422 192.414 317.894 189.479 315.683 189.091L309.934 188.082Z" fill="url(#paint39_linear_249_2)" fill-opacity="0.7"/>
<path d="M334.52 189.108C334.436 189.112 334.351 189.125 334.27 189.147C333.16 189.45 333.159 191.011 334.271 191.304C345.443 194.246 356.389 196.303 378.066 199.765C378.542 199.841 379.038 199.803 379.496 199.653C382.235 198.755 382.277 194.94 379.528 194.072C365.44 189.626 354.23 188.233 334.52 189.108Z" fill="url(#paint40_linear_249_2)" fill-opacity="0.7"/>
<path d="M545.075 291.594C548.822 291.594 550.707 287.093 548.064 284.436C504.765 240.921 471.262 221.339 407.426 203.051C405.884 202.61 405.026 204.695 406.44 205.451C472.673 232.402 503.222 250.917 542.027 290.309C542.829 291.124 543.932 291.594 545.075 291.594Z" fill="url(#paint41_linear_249_2)" fill-opacity="0.7"/>
<path d="M440.466 200.249C440.146 200.011 439.757 199.882 439.357 199.882H436.575C434.383 199.882 434.001 203.012 436.127 203.54C436.274 203.576 436.424 203.595 436.575 203.595H439.357C441.144 203.595 441.899 201.317 440.466 200.249Z" fill="url(#paint42_linear_249_2)" fill-opacity="0.7"/>
<path d="M457.797 205.845C457.402 205.588 456.941 205.451 456.47 205.451C454.073 205.451 453.117 208.548 455.096 209.899L533.27 263.28C535.952 265.111 539.469 262.633 538.647 259.492C538.426 258.646 537.897 257.913 537.164 257.436L457.797 205.845Z" fill="url(#paint43_linear_249_2)" fill-opacity="0.7"/>
<path d="M561.682 277.876C560.929 277.149 559.922 276.742 558.874 276.742C555.219 276.742 553.44 281.207 556.094 283.721L587.566 313.532C590.427 316.243 595.027 313.395 593.876 309.625C593.686 309.002 593.34 308.437 592.871 307.984L561.682 277.876Z" fill="url(#paint44_linear_249_2)" fill-opacity="0.7"/>
<path d="M399.182 229.593C401.003 228.101 400.533 225.198 398.334 224.358L389.197 220.864C386.699 219.908 384.224 222.31 385.105 224.836C385.416 225.727 386.111 226.432 386.998 226.755L396.189 230.102C397.207 230.473 398.344 230.279 399.182 229.593Z" fill="url(#paint45_linear_249_2)" fill-opacity="0.7"/>
<path d="M452.367 249.921C453.034 248.938 452.789 247.599 451.812 246.922C439.254 238.223 430.503 234.419 414.685 231.44C412.816 231.088 411.284 232.895 411.91 234.69C412.174 235.449 412.79 236.034 413.559 236.266C427.412 240.443 435.779 243.895 449.593 250.654C450.571 251.133 451.756 250.822 452.367 249.921Z" fill="url(#paint46_linear_249_2)" fill-opacity="0.7"/>
<path d="M459.292 255.627C457.83 254.955 457.068 253.317 457.512 251.77C458.059 249.865 460.181 248.896 461.977 249.735C484.921 260.457 497.205 268.776 513.089 286.401C514.012 287.425 513.93 289 512.917 289.934C511.912 290.86 510.354 290.821 509.387 289.855C493.321 273.817 481.613 265.89 459.292 255.627Z" fill="url(#paint47_linear_249_2)" fill-opacity="0.7"/>
<path d="M515.19 299.155C513.812 297.572 514.188 295.078 516.014 294.042C517.382 293.266 519.153 293.61 520.183 294.799C569.555 351.756 550.95 343.74 610.09 405.022C611.048 406.014 611.376 407.524 610.857 408.802C609.949 411.033 607.086 411.674 605.309 410.047C561.588 370.009 565.714 357.243 515.19 299.155Z" fill="url(#paint48_linear_249_2)" fill-opacity="0.7"/>
<path d="M579.267 352.366C577.696 350.51 574.731 350.896 573.688 353.094C573.114 354.303 573.316 355.739 574.202 356.743L609.279 396.515C610.504 397.904 612.714 397.748 613.731 396.2C614.415 395.16 614.332 393.794 613.528 392.844L579.267 352.366Z" fill="url(#paint49_linear_249_2)" fill-opacity="0.7"/>
<path d="M513.157 276.18C513.915 274.314 516.323 273.809 517.767 275.213C541.171 297.972 553.421 313.045 566.594 336.95C568.273 339.996 565.429 343.495 562.084 342.541C561.074 342.254 560.217 341.57 559.702 340.655C546.426 317.062 535.726 303.124 513.709 279.195C512.961 278.383 512.74 277.203 513.157 276.18Z" fill="url(#paint50_linear_249_2)" fill-opacity="0.7"/>
<path d="M564.673 297.39C563.752 296.534 562.528 296.05 561.271 296.05H553.94C550.052 296.05 547.654 300.295 549.723 303.587C558.498 317.547 566.948 328.71 585.43 349.518L609.304 378.11C611.195 380.375 614.884 379.037 614.884 376.086C614.884 375.468 614.686 374.838 614.344 374.322C603.159 357.463 597.859 352.22 591.416 345.459C587.631 341.489 591.772 338.073 595.504 342.092C598.857 345.702 603.763 342.412 601.151 338.235C593.547 326.079 582.94 314.353 564.673 297.39Z" fill="url(#paint51_linear_249_2)" fill-opacity="0.7"/>
<defs>
<linearGradient id="paint0_linear_249_2" x1="514.384" y1="676" x2="167.884" y2="103.5" gradientUnits="userSpaceOnUse">
<stop stop-color="#FF0000"/>
<stop offset="1" stop-color="#00B9FF"/>
</linearGradient>
<linearGradient id="paint1_linear_249_2" x1="272.097" y1="210.117" x2="496.371" y2="589.431" gradientUnits="userSpaceOnUse">
<stop stop-color="#00CBFF"/>
<stop offset="1" stop-color="#B90C0C"/>
</linearGradient>
<linearGradient id="paint2_linear_249_2" x1="272.097" y1="210.117" x2="496.371" y2="589.431" gradientUnits="userSpaceOnUse">
<stop stop-color="#00CBFF"/>
<stop offset="1" stop-color="#B90C0C"/>
</linearGradient>
<linearGradient id="paint3_linear_249_2" x1="272.097" y1="210.117" x2="496.371" y2="589.431" gradientUnits="userSpaceOnUse">
<stop stop-color="#00CBFF"/>
<stop offset="1" stop-color="#B90C0C"/>
</linearGradient>
<linearGradient id="paint4_linear_249_2" x1="272.097" y1="210.117" x2="496.371" y2="589.431" gradientUnits="userSpaceOnUse">
<stop stop-color="#00CBFF"/>
<stop offset="1" stop-color="#B90C0C"/>
</linearGradient>
<linearGradient id="paint5_linear_249_2" x1="272.097" y1="210.117" x2="496.371" y2="589.431" gradientUnits="userSpaceOnUse">
<stop stop-color="#00CBFF"/>
<stop offset="1" stop-color="#B90C0C"/>
</linearGradient>
<linearGradient id="paint6_linear_249_2" x1="272.097" y1="210.117" x2="496.371" y2="589.431" gradientUnits="userSpaceOnUse">
<stop stop-color="#00CBFF"/>
<stop offset="1" stop-color="#B90C0C"/>
</linearGradient>
<linearGradient id="paint7_linear_249_2" x1="272.097" y1="210.117" x2="496.371" y2="589.431" gradientUnits="userSpaceOnUse">
<stop stop-color="#00CBFF"/>
<stop offset="1" stop-color="#B90C0C"/>
</linearGradient>
<linearGradient id="paint8_linear_249_2" x1="272.097" y1="210.117" x2="496.371" y2="589.431" gradientUnits="userSpaceOnUse">
<stop stop-color="#00CBFF"/>
<stop offset="1" stop-color="#B90C0C"/>
</linearGradient>
<linearGradient id="paint9_linear_249_2" x1="272.097" y1="210.117" x2="496.371" y2="589.431" gradientUnits="userSpaceOnUse">
<stop stop-color="#00CBFF"/>
<stop offset="1" stop-color="#B90C0C"/>
</linearGradient>
<linearGradient id="paint10_linear_249_2" x1="272.097" y1="210.117" x2="496.371" y2="589.431" gradientUnits="userSpaceOnUse">
<stop stop-color="#00CBFF"/>
<stop offset="1" stop-color="#B90C0C"/>
</linearGradient>
<linearGradient id="paint11_linear_249_2" x1="272.097" y1="210.117" x2="496.371" y2="589.431" gradientUnits="userSpaceOnUse">
<stop stop-color="#00CBFF"/>
<stop offset="1" stop-color="#B90C0C"/>
</linearGradient>
<linearGradient id="paint12_linear_249_2" x1="272.097" y1="210.117" x2="496.371" y2="589.431" gradientUnits="userSpaceOnUse">
<stop stop-color="#00CBFF"/>
<stop offset="1" stop-color="#B90C0C"/>
</linearGradient>
<linearGradient id="paint13_linear_249_2" x1="272.097" y1="210.117" x2="496.371" y2="589.431" gradientUnits="userSpaceOnUse">
<stop stop-color="#00CBFF"/>
<stop offset="1" stop-color="#B90C0C"/>
</linearGradient>
<linearGradient id="paint14_linear_249_2" x1="272.097" y1="210.117" x2="496.371" y2="589.431" gradientUnits="userSpaceOnUse">
<stop stop-color="#00CBFF"/>
<stop offset="1" stop-color="#B90C0C"/>
</linearGradient>
<linearGradient id="paint15_linear_249_2" x1="272.097" y1="210.117" x2="496.371" y2="589.431" gradientUnits="userSpaceOnUse">
<stop stop-color="#00CBFF"/>
<stop offset="1" stop-color="#B90C0C"/>
</linearGradient>
<linearGradient id="paint16_linear_249_2" x1="272.097" y1="210.117" x2="496.371" y2="589.431" gradientUnits="userSpaceOnUse">
<stop stop-color="#00CBFF"/>
<stop offset="1" stop-color="#B90C0C"/>
</linearGradient>
<linearGradient id="paint17_linear_249_2" x1="272.097" y1="210.117" x2="496.371" y2="589.431" gradientUnits="userSpaceOnUse">
<stop stop-color="#00CBFF"/>
<stop offset="1" stop-color="#B90C0C"/>
</linearGradient>
<linearGradient id="paint18_linear_249_2" x1="272.097" y1="210.117" x2="496.371" y2="589.431" gradientUnits="userSpaceOnUse">
<stop stop-color="#00CBFF"/>
<stop offset="1" stop-color="#B90C0C"/>
</linearGradient>
<linearGradient id="paint19_linear_249_2" x1="272.097" y1="210.117" x2="496.371" y2="589.431" gradientUnits="userSpaceOnUse">
<stop stop-color="#00CBFF"/>
<stop offset="1" stop-color="#B90C0C"/>
</linearGradient>
<linearGradient id="paint20_linear_249_2" x1="272.097" y1="210.117" x2="496.371" y2="589.431" gradientUnits="userSpaceOnUse">
<stop stop-color="#00CBFF"/>
<stop offset="1" stop-color="#B90C0C"/>
</linearGradient>
<linearGradient id="paint21_linear_249_2" x1="272.097" y1="210.117" x2="496.371" y2="589.431" gradientUnits="userSpaceOnUse">
<stop stop-color="#00CBFF"/>
<stop offset="1" stop-color="#B90C0C"/>
</linearGradient>
<linearGradient id="paint22_linear_249_2" x1="272.097" y1="210.117" x2="496.371" y2="589.431" gradientUnits="userSpaceOnUse">
<stop stop-color="#00CBFF"/>
<stop offset="1" stop-color="#B90C0C"/>
</linearGradient>
<linearGradient id="paint23_linear_249_2" x1="272.097" y1="210.117" x2="496.371" y2="589.431" gradientUnits="userSpaceOnUse">
<stop stop-color="#00CBFF"/>
<stop offset="1" stop-color="#B90C0C"/>
</linearGradient>
<linearGradient id="paint24_linear_249_2" x1="272.097" y1="210.117" x2="496.371" y2="589.431" gradientUnits="userSpaceOnUse">
<stop stop-color="#00CBFF"/>
<stop offset="1" stop-color="#B90C0C"/>
</linearGradient>
<linearGradient id="paint25_linear_249_2" x1="272.097" y1="210.117" x2="496.371" y2="589.431" gradientUnits="userSpaceOnUse">
<stop stop-color="#00CBFF"/>
<stop offset="1" stop-color="#B90C0C"/>
</linearGradient>
<linearGradient id="paint26_linear_249_2" x1="272.097" y1="210.117" x2="496.371" y2="589.431" gradientUnits="userSpaceOnUse">
<stop stop-color="#00CBFF"/>
<stop offset="1" stop-color="#B90C0C"/>
</linearGradient>
<linearGradient id="paint27_linear_249_2" x1="272.097" y1="210.117" x2="496.371" y2="589.431" gradientUnits="userSpaceOnUse">
<stop stop-color="#00CBFF"/>
<stop offset="1" stop-color="#B90C0C"/>
</linearGradient>
<linearGradient id="paint28_linear_249_2" x1="272.097" y1="210.117" x2="496.371" y2="589.431" gradientUnits="userSpaceOnUse">
<stop stop-color="#00CBFF"/>
<stop offset="1" stop-color="#B90C0C"/>
</linearGradient>
<linearGradient id="paint29_linear_249_2" x1="272.097" y1="210.117" x2="496.371" y2="589.431" gradientUnits="userSpaceOnUse">
<stop stop-color="#00CBFF"/>
<stop offset="1" stop-color="#B90C0C"/>
</linearGradient>
<linearGradient id="paint30_linear_249_2" x1="272.097" y1="210.117" x2="496.371" y2="589.431" gradientUnits="userSpaceOnUse">
<stop stop-color="#00CBFF"/>
<stop offset="1" stop-color="#B90C0C"/>
</linearGradient>
<linearGradient id="paint31_linear_249_2" x1="272.097" y1="210.117" x2="496.371" y2="589.431" gradientUnits="userSpaceOnUse">
<stop stop-color="#00CBFF"/>
<stop offset="1" stop-color="#B90C0C"/>
</linearGradient>
<linearGradient id="paint32_linear_249_2" x1="272.097" y1="210.117" x2="496.371" y2="589.431" gradientUnits="userSpaceOnUse">
<stop stop-color="#00CBFF"/>
<stop offset="1" stop-color="#B90C0C"/>
</linearGradient>
<linearGradient id="paint33_linear_249_2" x1="272.097" y1="210.117" x2="496.371" y2="589.431" gradientUnits="userSpaceOnUse">
<stop stop-color="#00CBFF"/>
<stop offset="1" stop-color="#B90C0C"/>
</linearGradient>
<linearGradient id="paint34_linear_249_2" x1="272.097" y1="210.117" x2="496.371" y2="589.431" gradientUnits="userSpaceOnUse">
<stop stop-color="#00CBFF"/>
<stop offset="1" stop-color="#B90C0C"/>
</linearGradient>
<linearGradient id="paint35_linear_249_2" x1="272.097" y1="210.117" x2="496.371" y2="589.431" gradientUnits="userSpaceOnUse">
<stop stop-color="#00CBFF"/>
<stop offset="1" stop-color="#B90C0C"/>
</linearGradient>
<linearGradient id="paint36_linear_249_2" x1="272.097" y1="210.117" x2="496.371" y2="589.431" gradientUnits="userSpaceOnUse">
<stop stop-color="#00CBFF"/>
<stop offset="1" stop-color="#B90C0C"/>
</linearGradient>
<linearGradient id="paint37_linear_249_2" x1="272.097" y1="210.117" x2="496.371" y2="589.431" gradientUnits="userSpaceOnUse">
<stop stop-color="#00CBFF"/>
<stop offset="1" stop-color="#B90C0C"/>
</linearGradient>
<linearGradient id="paint38_linear_249_2" x1="272.097" y1="210.117" x2="496.371" y2="589.431" gradientUnits="userSpaceOnUse">
<stop stop-color="#00CBFF"/>
<stop offset="1" stop-color="#B90C0C"/>
</linearGradient>
<linearGradient id="paint39_linear_249_2" x1="272.097" y1="210.117" x2="496.371" y2="589.431" gradientUnits="userSpaceOnUse">
<stop stop-color="#00CBFF"/>
<stop offset="1" stop-color="#B90C0C"/>
</linearGradient>
<linearGradient id="paint40_linear_249_2" x1="272.097" y1="210.117" x2="496.371" y2="589.431" gradientUnits="userSpaceOnUse">
<stop stop-color="#00CBFF"/>
<stop offset="1" stop-color="#B90C0C"/>
</linearGradient>
<linearGradient id="paint41_linear_249_2" x1="272.097" y1="210.117" x2="496.371" y2="589.431" gradientUnits="userSpaceOnUse">
<stop stop-color="#00CBFF"/>
<stop offset="1" stop-color="#B90C0C"/>
</linearGradient>
<linearGradient id="paint42_linear_249_2" x1="272.097" y1="210.117" x2="496.371" y2="589.431" gradientUnits="userSpaceOnUse">
<stop stop-color="#00CBFF"/>
<stop offset="1" stop-color="#B90C0C"/>
</linearGradient>
<linearGradient id="paint43_linear_249_2" x1="272.097" y1="210.117" x2="496.371" y2="589.431" gradientUnits="userSpaceOnUse">
<stop stop-color="#00CBFF"/>
<stop offset="1" stop-color="#B90C0C"/>
</linearGradient>
<linearGradient id="paint44_linear_249_2" x1="272.097" y1="210.117" x2="496.371" y2="589.431" gradientUnits="userSpaceOnUse">
<stop stop-color="#00CBFF"/>
<stop offset="1" stop-color="#B90C0C"/>
</linearGradient>
<linearGradient id="paint45_linear_249_2" x1="272.097" y1="210.117" x2="496.371" y2="589.431" gradientUnits="userSpaceOnUse">
<stop stop-color="#00CBFF"/>
<stop offset="1" stop-color="#B90C0C"/>
</linearGradient>
<linearGradient id="paint46_linear_249_2" x1="272.097" y1="210.117" x2="496.371" y2="589.431" gradientUnits="userSpaceOnUse">
<stop stop-color="#00CBFF"/>
<stop offset="1" stop-color="#B90C0C"/>
</linearGradient>
<linearGradient id="paint47_linear_249_2" x1="272.097" y1="210.117" x2="496.371" y2="589.431" gradientUnits="userSpaceOnUse">
<stop stop-color="#00CBFF"/>
<stop offset="1" stop-color="#B90C0C"/>
</linearGradient>
<linearGradient id="paint48_linear_249_2" x1="272.097" y1="210.117" x2="496.371" y2="589.431" gradientUnits="userSpaceOnUse">
<stop stop-color="#00CBFF"/>
<stop offset="1" stop-color="#B90C0C"/>
</linearGradient>
<linearGradient id="paint49_linear_249_2" x1="272.097" y1="210.117" x2="496.371" y2="589.431" gradientUnits="userSpaceOnUse">
<stop stop-color="#00CBFF"/>
<stop offset="1" stop-color="#B90C0C"/>
</linearGradient>
<linearGradient id="paint50_linear_249_2" x1="272.097" y1="210.117" x2="496.371" y2="589.431" gradientUnits="userSpaceOnUse">
<stop stop-color="#00CBFF"/>
<stop offset="1" stop-color="#B90C0C"/>
</linearGradient>
<linearGradient id="paint51_linear_249_2" x1="272.097" y1="210.117" x2="496.371" y2="589.431" gradientUnits="userSpaceOnUse">
<stop stop-color="#00CBFF"/>
<stop offset="1" stop-color="#B90C0C"/>
</linearGradient>
</defs>
</svg>
